%FSLAX46Y46*%
%MOMM*%
%AMPS14*
1,1,2.400000,0.000000,0.000000*
%
%ADD14PS14*%
%AMPS29*
1,1,1.000000,0.000000,0.000000*
%
%ADD29PS29*%
%AMPS20*
21,1,0.500000,0.650000,0.000000,0.000000,360.000000*
%
%ADD20PS20*%
%AMPS19*
21,1,0.500000,0.650000,0.000000,0.000000,180.000000*
%
%ADD19PS19*%
%AMPS35*
21,1,0.800000,2.100000,0.000000,0.000000,270.000000*
%
%ADD35PS35*%
%AMPS32*
21,1,0.800000,2.100000,0.000000,0.000000,90.000000*
%
%ADD32PS32*%
%AMPS33*
21,1,2.300000,3.000000,0.000000,0.000000,270.000000*
%
%ADD33PS33*%
%AMPS31*
21,1,2.300000,3.000000,0.000000,0.000000,90.000000*
%
%ADD31PS31*%
%AMPS24*
21,1,0.800000,2.150000,0.000000,0.000000,360.000000*
%
%ADD24PS24*%
%AMPS23*
21,1,0.800000,2.150000,0.000000,0.000000,180.000000*
%
%ADD23PS23*%
%AMPS38*
21,1,0.500000,0.800000,0.000000,0.000000,360.000000*
%
%ADD38PS38*%
%AMPS37*
21,1,0.500000,0.800000,0.000000,0.000000,270.000000*
%
%ADD37PS37*%
%AMPS39*
21,1,0.500000,0.800000,0.000000,0.000000,180.000000*
%
%ADD39PS39*%
%AMPS36*
21,1,0.500000,0.800000,0.000000,0.000000,90.000000*
%
%ADD36PS36*%
%AMPS41*
1,1,0.550000,0.000000,0.000000*
%
%ADD41PS41*%
%AMPS30*
21,1,1.300000,1.300000,0.000000,0.000000,360.000000*
1,1,1.300000,-0.650000,0.000000*
1,1,1.300000,0.650000,0.000000*
%
%ADD30PS30*%
%AMPS12*
1,1,4.200000,0.000000,0.000000*
%
%ADD12PS12*%
%AMPS18*
1,1,1.190600,0.000000,0.000000*
%
%ADD18PS18*%
%AMPS13*
1,1,1.900000,0.000000,0.000000*
%
%ADD13PS13*%
%AMPS15*
1,1,2.575000,0.000000,0.000000*
%
%ADD15PS15*%
%AMPS17*
1,1,2.575000,0.000000,0.000000*
%
%ADD17PS17*%
%AMPS11*
1,1,0.560000,0.220000,0.195000*
1,1,0.560000,-0.220000,-0.195000*
1,1,0.560000,-0.220000,0.195000*
1,1,0.560000,0.220000,-0.195000*
21,1,1.000000,0.390000,0.000000,0.000000,360.000000*
21,1,0.440000,0.950000,0.000000,0.000000,360.000000*
%
%ADD11PS11*%
%AMPS22*
1,1,0.560000,0.195000,-0.220000*
1,1,0.560000,-0.195000,0.220000*
1,1,0.560000,0.195000,0.220000*
1,1,0.560000,-0.195000,-0.220000*
21,1,1.000000,0.390000,0.000000,0.000000,270.000000*
21,1,0.440000,0.950000,0.000000,0.000000,270.000000*
%
%ADD22PS22*%
%AMPS25*
1,1,0.560000,-0.220000,-0.195000*
1,1,0.560000,0.220000,0.195000*
1,1,0.560000,0.220000,-0.195000*
1,1,0.560000,-0.220000,0.195000*
21,1,1.000000,0.390000,0.000000,0.000000,180.000000*
21,1,0.440000,0.950000,0.000000,0.000000,180.000000*
%
%ADD25PS25*%
%AMPS34*
1,1,0.560000,-0.195000,0.220000*
1,1,0.560000,0.195000,-0.220000*
1,1,0.560000,-0.195000,-0.220000*
1,1,0.560000,0.195000,0.220000*
21,1,1.000000,0.390000,0.000000,0.000000,90.000000*
21,1,0.440000,0.950000,0.000000,0.000000,90.000000*
%
%ADD34PS34*%
%AMPS21*
1,1,0.440000,0.330000,-0.130000*
1,1,0.440000,-0.330000,0.130000*
1,1,0.440000,0.330000,0.130000*
1,1,0.440000,-0.330000,-0.130000*
21,1,0.700000,0.660000,0.000000,0.000000,270.000000*
21,1,0.260000,1.100000,0.000000,0.000000,270.000000*
%
%ADD21PS21*%
%AMPS28*
1,1,0.440000,-0.130000,-0.330000*
1,1,0.440000,0.130000,0.330000*
1,1,0.440000,0.130000,-0.330000*
1,1,0.440000,-0.130000,0.330000*
21,1,0.700000,0.660000,0.000000,0.000000,180.000000*
21,1,0.260000,1.100000,0.000000,0.000000,180.000000*
%
%ADD28PS28*%
%AMPS10*
1,1,0.440000,-0.330000,0.130000*
1,1,0.440000,0.330000,-0.130000*
1,1,0.440000,-0.330000,-0.130000*
1,1,0.440000,0.330000,0.130000*
21,1,0.700000,0.660000,0.000000,0.000000,90.000000*
21,1,0.260000,1.100000,0.000000,0.000000,90.000000*
%
%ADD10PS10*%
%AMPS26*
1,1,0.300000,0.250000,0.500000*
1,1,0.300000,-0.250000,-0.500000*
1,1,0.300000,-0.250000,0.500000*
1,1,0.300000,0.250000,-0.500000*
21,1,0.800000,1.000000,0.000000,0.000000,360.000000*
21,1,0.500000,1.300000,0.000000,0.000000,360.000000*
%
%ADD26PS26*%
%AMPS27*
1,1,0.300000,-0.250000,-0.500000*
1,1,0.300000,0.250000,0.500000*
1,1,0.300000,0.250000,-0.500000*
1,1,0.300000,-0.250000,0.500000*
21,1,0.800000,1.000000,0.000000,0.000000,180.000000*
21,1,0.500000,1.300000,0.000000,0.000000,180.000000*
%
%ADD27PS27*%
%AMPS40*
21,1,3.300000,3.300000,0.000000,0.000000,270.000000*
%
%ADD40PS40*%
%AMPS16*
1,1,0.987400,0.000000,0.000000*
%
%ADD16PS16*%
G01*
G01*
%LPD*%
G75*
D10*
X46500000Y31000000D03*
D10*
X46500000Y29500000D03*
D11*
X50250000Y24000000D03*
D11*
X51750000Y24000000D03*
D12*
X18333334Y33000000D03*
D13*
X13253334Y33000000D03*
D14*
X14523334Y35540000D03*
D13*
X23413334Y33000000D03*
D14*
X20873334Y38080000D03*
D11*
X70000000Y35250000D03*
D11*
X71500000Y35250000D03*
D15*
X32687513Y39873333D03*
D16*
X28877513Y36698333D03*
D16*
X31417513Y36698333D03*
D15*
X29512513Y39873333D03*
D17*
X32687513Y34793333D03*
D18*
X27607513Y38349333D03*
D16*
X31417513Y37968333D03*
D16*
X30147513Y37968333D03*
D16*
X30147513Y36698333D03*
D16*
X28877513Y37968333D03*
D18*
X27607513Y36317333D03*
D18*
X32687513Y37333333D03*
D17*
X29512513Y34793333D03*
D19*
X56000000Y37100000D03*
D20*
X56000000Y35750000D03*
D20*
X55500000Y35750000D03*
D20*
X55000000Y35750000D03*
D19*
X55000000Y37100000D03*
D21*
X60000000Y30750000D03*
D21*
X60000000Y32250000D03*
D10*
X58500000Y31250000D03*
D10*
X58500000Y29750000D03*
D12*
X50000000Y33000000D03*
D13*
X44920000Y33000000D03*
D14*
X46190000Y35540000D03*
D13*
X55080000Y33000000D03*
D14*
X52540000Y38080000D03*
D22*
X60250000Y39750000D03*
D22*
X60250000Y38250000D03*
D23*
X19705000Y29450000D03*
D24*
X20975000Y24550000D03*
D23*
X17165000Y29450000D03*
D24*
X22245000Y24550000D03*
D24*
X14625000Y24550000D03*
D24*
X15895000Y24550000D03*
D23*
X14625000Y29450000D03*
D24*
X18435000Y24550000D03*
D24*
X19705000Y24550000D03*
D23*
X15895000Y29450000D03*
D24*
X13355000Y24550000D03*
D23*
X18435000Y29450000D03*
D23*
X20975000Y29450000D03*
D23*
X22245000Y29450000D03*
D23*
X13355000Y29450000D03*
D24*
X17165000Y24550000D03*
D12*
X81666666Y33000000D03*
D13*
X76586666Y33000000D03*
D14*
X77856666Y35540000D03*
D13*
X86746666Y33000000D03*
D14*
X84206666Y38080000D03*
D25*
X48500000Y24000000D03*
D25*
X47000000Y24000000D03*
D10*
X45000000Y31000000D03*
D10*
X45000000Y29500000D03*
D26*
X61800000Y37700000D03*
D26*
X63700000Y37700000D03*
D27*
X63700000Y40300000D03*
D27*
X61800000Y40300000D03*
D27*
X62750000Y40300000D03*
D28*
X41500000Y37000000D03*
D28*
X43000000Y37000000D03*
D29*
X69233335Y39500000D03*
D29*
X71633335Y38500000D03*
D30*
X70833335Y37250000D03*
D29*
X72433335Y39500000D03*
D29*
X70833335Y39500000D03*
D30*
X72733335Y40750000D03*
D30*
X68433335Y40750000D03*
D29*
X70033335Y38500000D03*
D31*
X64000000Y34900000D03*
D32*
X61650000Y29750000D03*
D33*
X64000000Y24600000D03*
D32*
X61650000Y28750000D03*
D32*
X61650000Y30750000D03*
D32*
X61650000Y27750000D03*
D32*
X61650000Y31750000D03*
D22*
X57250000Y37175000D03*
D22*
X57250000Y35675000D03*
D11*
X48750000Y29250000D03*
D11*
X50250000Y29250000D03*
D10*
X14523334Y39750000D03*
D10*
X14523334Y38250000D03*
D25*
X58500000Y24000000D03*
D25*
X57000000Y24000000D03*
D34*
X65250000Y38250000D03*
D34*
X65250000Y39750000D03*
D11*
X53750000Y24000000D03*
D11*
X55250000Y24000000D03*
D33*
X40000000Y24600000D03*
D35*
X42350000Y29750000D03*
D31*
X40000000Y34900000D03*
D35*
X42350000Y30750000D03*
D35*
X42350000Y28750000D03*
D35*
X42350000Y31750000D03*
D35*
X42350000Y27750000D03*
D36*
X56350000Y28750000D03*
D37*
X51650000Y28750000D03*
D38*
X54250000Y25650000D03*
D36*
X56350000Y26250000D03*
D39*
X53250000Y30350000D03*
D36*
X56350000Y29750000D03*
D37*
X51650000Y27250000D03*
D38*
X53750000Y25650000D03*
D39*
X55250000Y30350000D03*
D36*
X56350000Y28250000D03*
D38*
X53250000Y25650000D03*
D36*
X56350000Y26750000D03*
D37*
X51650000Y28250000D03*
D38*
X52250000Y25650000D03*
D37*
X51650000Y26750000D03*
D39*
X52750000Y30350000D03*
D37*
X51650000Y27750000D03*
D40*
X54000000Y28000000D03*
D39*
X55750000Y30350000D03*
D38*
X55250000Y25650000D03*
D39*
X52250000Y30350000D03*
D39*
X54750000Y30350000D03*
D39*
X54250000Y30350000D03*
D38*
X54750000Y25650000D03*
D39*
X53750000Y30350000D03*
D37*
X51650000Y26250000D03*
D37*
X51650000Y29750000D03*
D36*
X56350000Y27750000D03*
D37*
X51650000Y29250000D03*
D36*
X56350000Y27250000D03*
D36*
X56350000Y29250000D03*
D38*
X55750000Y25650000D03*
D38*
X52750000Y25650000D03*
D22*
X11750000Y26000000D03*
D22*
X11750000Y24500000D03*
D21*
X60500000Y33500000D03*
D21*
X60500000Y35000000D03*
D41*
X53250000Y35500000D03*
D41*
X45750000Y28500000D03*
D41*
X59250000Y39250000D03*
D41*
X22250000Y31000000D03*
D41*
X40500000Y39000000D03*
D41*
X50000000Y27250000D03*
D41*
X46750000Y27950000D03*
D41*
X62250000Y24500000D03*
D41*
X60250000Y28750000D03*
D41*
X52750000Y26750000D03*
D41*
X49250000Y24000000D03*
D41*
X40750000Y31750000D03*
D41*
X62750000Y36500000D03*
D41*
X18500000Y26000000D03*
D41*
X15750000Y26000000D03*
D41*
X60250000Y37250000D03*
D41*
X42000000Y35000000D03*
D41*
X24000000Y27500000D03*
D41*
X14750000Y26000000D03*
D41*
X35750000Y25750000D03*
D41*
X11000000Y26000000D03*
D41*
X60500000Y36500000D03*
D41*
X56250000Y40250000D03*
D41*
X57000000Y38000000D03*
D41*
X13250000Y28000000D03*
D41*
X14750000Y28000000D03*
D41*
X43750000Y27750000D03*
D41*
X65250000Y37500000D03*
D41*
X24500000Y40500000D03*
D41*
X46750000Y25750000D03*
D41*
X58750000Y32250000D03*
D41*
X42000000Y24500000D03*
D41*
X57486091Y29513909D03*
D41*
X27750000Y35000000D03*
D41*
X60250000Y29750000D03*
D41*
X50000000Y26500000D03*
D41*
X42000000Y34000000D03*
D41*
X46000000Y26000000D03*
D41*
X60000000Y27000000D03*
D41*
X45250000Y27800000D03*
D41*
X60250000Y40500000D03*
D41*
X26000000Y27500000D03*
D41*
X52750000Y24750000D03*
D41*
X55250000Y29250000D03*
D41*
X59250000Y24000000D03*
D41*
X14750000Y31000000D03*
D41*
X54750000Y37750000D03*
D41*
X52750000Y29250000D03*
D41*
X13250000Y31000000D03*
D41*
X55250000Y26750000D03*
D41*
X66000000Y35000000D03*
D41*
X47500000Y32250000D03*
D41*
X53250000Y34750000D03*
D41*
X43000000Y32750000D03*
D41*
X45250000Y26500000D03*
D41*
X19750000Y26000000D03*
D41*
X41500000Y32750000D03*
D41*
X62750000Y39000000D03*
D41*
X35750000Y30250000D03*
D41*
X50500000Y27949998D03*
D41*
X40500000Y37000000D03*
D41*
X57250000Y41250000D03*
D41*
X56000000Y34250000D03*
D41*
X47750000Y30250000D03*
D41*
X57750000Y26500000D03*
D41*
X26000000Y39000000D03*
D41*
X17000000Y26000000D03*
D41*
X54476375Y24917313D03*
D41*
X48750000Y30000000D03*
D41*
X57000000Y34750000D03*
D10*
X46500000Y77000000D03*
D10*
X46500000Y75500000D03*
D11*
X50250000Y70000000D03*
D11*
X51750000Y70000000D03*
D12*
X18333334Y79000000D03*
D13*
X13253334Y79000000D03*
D14*
X14523334Y81540000D03*
D13*
X23413334Y79000000D03*
D14*
X20873334Y84080000D03*
D11*
X70000000Y81250000D03*
D11*
X71500000Y81250000D03*
D15*
X32687513Y85873333D03*
D16*
X28877513Y82698333D03*
D16*
X31417513Y82698333D03*
D15*
X29512513Y85873333D03*
D17*
X32687513Y80793333D03*
D18*
X27607513Y84349333D03*
D16*
X31417513Y83968333D03*
D16*
X30147513Y83968333D03*
D16*
X30147513Y82698333D03*
D16*
X28877513Y83968333D03*
D18*
X27607513Y82317333D03*
D18*
X32687513Y83333333D03*
D17*
X29512513Y80793333D03*
D19*
X56000000Y83100000D03*
D20*
X56000000Y81750000D03*
D20*
X55500000Y81750000D03*
D20*
X55000000Y81750000D03*
D19*
X55000000Y83100000D03*
D21*
X60000000Y76750000D03*
D21*
X60000000Y78250000D03*
D10*
X58500000Y77250000D03*
D10*
X58500000Y75750000D03*
D12*
X50000000Y79000000D03*
D13*
X44920000Y79000000D03*
D14*
X46190000Y81540000D03*
D13*
X55080000Y79000000D03*
D14*
X52540000Y84080000D03*
D22*
X60250000Y85750000D03*
D22*
X60250000Y84250000D03*
D23*
X19705000Y75450000D03*
D24*
X20975000Y70550000D03*
D23*
X17165000Y75450000D03*
D24*
X22245000Y70550000D03*
D24*
X14625000Y70550000D03*
D24*
X15895000Y70550000D03*
D23*
X14625000Y75450000D03*
D24*
X18435000Y70550000D03*
D24*
X19705000Y70550000D03*
D23*
X15895000Y75450000D03*
D24*
X13355000Y70550000D03*
D23*
X18435000Y75450000D03*
D23*
X20975000Y75450000D03*
D23*
X22245000Y75450000D03*
D23*
X13355000Y75450000D03*
D24*
X17165000Y70550000D03*
D12*
X81666666Y79000000D03*
D13*
X76586666Y79000000D03*
D14*
X77856666Y81540000D03*
D13*
X86746666Y79000000D03*
D14*
X84206666Y84080000D03*
D25*
X48500000Y70000000D03*
D25*
X47000000Y70000000D03*
D10*
X45000000Y77000000D03*
D10*
X45000000Y75500000D03*
D26*
X61800000Y83700000D03*
D26*
X63700000Y83700000D03*
D27*
X63700000Y86300000D03*
D27*
X61800000Y86300000D03*
D27*
X62750000Y86300000D03*
D28*
X41500000Y83000000D03*
D28*
X43000000Y83000000D03*
D29*
X69233335Y85500000D03*
D29*
X71633335Y84500000D03*
D30*
X70833335Y83250000D03*
D29*
X72433335Y85500000D03*
D29*
X70833335Y85500000D03*
D30*
X72733335Y86750000D03*
D30*
X68433335Y86750000D03*
D29*
X70033335Y84500000D03*
D31*
X64000000Y80900000D03*
D32*
X61650000Y75750000D03*
D33*
X64000000Y70600000D03*
D32*
X61650000Y74750000D03*
D32*
X61650000Y76750000D03*
D32*
X61650000Y73750000D03*
D32*
X61650000Y77750000D03*
D22*
X57250000Y83175000D03*
D22*
X57250000Y81675000D03*
D11*
X48750000Y75250000D03*
D11*
X50250000Y75250000D03*
D10*
X14523334Y85750000D03*
D10*
X14523334Y84250000D03*
D25*
X58500000Y70000000D03*
D25*
X57000000Y70000000D03*
D34*
X65250000Y84250000D03*
D34*
X65250000Y85750000D03*
D11*
X53750000Y70000000D03*
D11*
X55250000Y70000000D03*
D33*
X40000000Y70600000D03*
D35*
X42350000Y75750000D03*
D31*
X40000000Y80900000D03*
D35*
X42350000Y76750000D03*
D35*
X42350000Y74750000D03*
D35*
X42350000Y77750000D03*
D35*
X42350000Y73750000D03*
D36*
X56350000Y74750000D03*
D37*
X51650000Y74750000D03*
D38*
X54250000Y71650000D03*
D36*
X56350000Y72250000D03*
D39*
X53250000Y76350000D03*
D36*
X56350000Y75750000D03*
D37*
X51650000Y73250000D03*
D38*
X53750000Y71650000D03*
D39*
X55250000Y76350000D03*
D36*
X56350000Y74250000D03*
D38*
X53250000Y71650000D03*
D36*
X56350000Y72750000D03*
D37*
X51650000Y74250000D03*
D38*
X52250000Y71650000D03*
D37*
X51650000Y72750000D03*
D39*
X52750000Y76350000D03*
D37*
X51650000Y73750000D03*
D40*
X54000000Y74000000D03*
D39*
X55750000Y76350000D03*
D38*
X55250000Y71650000D03*
D39*
X52250000Y76350000D03*
D39*
X54750000Y76350000D03*
D39*
X54250000Y76350000D03*
D38*
X54750000Y71650000D03*
D39*
X53750000Y76350000D03*
D37*
X51650000Y72250000D03*
D37*
X51650000Y75750000D03*
D36*
X56350000Y73750000D03*
D37*
X51650000Y75250000D03*
D36*
X56350000Y73250000D03*
D36*
X56350000Y75250000D03*
D38*
X55750000Y71650000D03*
D38*
X52750000Y71650000D03*
D22*
X11750000Y72000000D03*
D22*
X11750000Y70500000D03*
D21*
X60500000Y79500000D03*
D21*
X60500000Y81000000D03*
D41*
X53250000Y81500000D03*
D41*
X45750000Y74500000D03*
D41*
X59250000Y85250000D03*
D41*
X22250000Y77000000D03*
D41*
X40500000Y85000000D03*
D41*
X50000000Y73250000D03*
D41*
X46750000Y73950000D03*
D41*
X62250000Y70500000D03*
D41*
X60250000Y74750000D03*
D41*
X52750000Y72750000D03*
D41*
X49250000Y70000000D03*
D41*
X40750000Y77750000D03*
D41*
X62750000Y82500000D03*
D41*
X18500000Y72000000D03*
D41*
X15750000Y72000000D03*
D41*
X60250000Y83250000D03*
D41*
X42000000Y81000000D03*
D41*
X24000000Y73500000D03*
D41*
X14750000Y72000000D03*
D41*
X35750000Y71750000D03*
D41*
X11000000Y72000000D03*
D41*
X60500000Y82500000D03*
D41*
X56250000Y86250000D03*
D41*
X57000000Y84000000D03*
D41*
X13250000Y74000000D03*
D41*
X14750000Y74000000D03*
D41*
X43750000Y73750000D03*
D41*
X65250000Y83500000D03*
D41*
X24500000Y86500000D03*
D41*
X46750000Y71750000D03*
D41*
X58750000Y78250000D03*
D41*
X42000000Y70500000D03*
D41*
X57486091Y75513909D03*
D41*
X27750000Y81000000D03*
D41*
X60250000Y75750000D03*
D41*
X50000000Y72500000D03*
D41*
X42000000Y80000000D03*
D41*
X46000000Y72000000D03*
D41*
X60000000Y73000000D03*
D41*
X45250000Y73800000D03*
D41*
X60250000Y86500000D03*
D41*
X26000000Y73500000D03*
D41*
X52750000Y70750000D03*
D41*
X55250000Y75250000D03*
D41*
X59250000Y70000000D03*
D41*
X14750000Y77000000D03*
D41*
X54750000Y83750000D03*
D41*
X52750000Y75250000D03*
D41*
X13250000Y77000000D03*
D41*
X55250000Y72750000D03*
D41*
X66000000Y81000000D03*
D41*
X47500000Y78250000D03*
D41*
X53250000Y80750000D03*
D41*
X43000000Y78750000D03*
D41*
X45250000Y72500000D03*
D41*
X19750000Y72000000D03*
D41*
X41500000Y78750000D03*
D41*
X62750000Y85000000D03*
D41*
X35750000Y76250000D03*
D41*
X50500000Y73949998D03*
D41*
X40500000Y83000000D03*
D41*
X57250000Y87250000D03*
D41*
X56000000Y80250000D03*
D41*
X47750000Y76250000D03*
D41*
X57750000Y72500000D03*
D41*
X26000000Y85000000D03*
D41*
X17000000Y72000000D03*
D41*
X54476375Y70917313D03*
D41*
X48750000Y76000000D03*
D41*
X57000000Y80750000D03*
D10*
X46500000Y8000000D03*
D10*
X46500000Y6500000D03*
D11*
X50250000Y1000000D03*
D11*
X51750000Y1000000D03*
D12*
X18333334Y10000000D03*
D13*
X13253334Y10000000D03*
D14*
X14523334Y12540000D03*
D13*
X23413334Y10000000D03*
D14*
X20873334Y15080000D03*
D11*
X70000000Y12250000D03*
D11*
X71500000Y12250000D03*
D15*
X32687513Y16873333D03*
D16*
X28877513Y13698333D03*
D16*
X31417513Y13698333D03*
D15*
X29512513Y16873333D03*
D17*
X32687513Y11793333D03*
D18*
X27607513Y15349333D03*
D16*
X31417513Y14968333D03*
D16*
X30147513Y14968333D03*
D16*
X30147513Y13698333D03*
D16*
X28877513Y14968333D03*
D18*
X27607513Y13317333D03*
D18*
X32687513Y14333333D03*
D17*
X29512513Y11793333D03*
D19*
X56000000Y14100000D03*
D20*
X56000000Y12750000D03*
D20*
X55500000Y12750000D03*
D20*
X55000000Y12750000D03*
D19*
X55000000Y14100000D03*
D21*
X60000000Y7750000D03*
D21*
X60000000Y9250000D03*
D10*
X58500000Y8250000D03*
D10*
X58500000Y6750000D03*
D12*
X50000000Y10000000D03*
D13*
X44920000Y10000000D03*
D14*
X46190000Y12540000D03*
D13*
X55080000Y10000000D03*
D14*
X52540000Y15080000D03*
D22*
X60250000Y16750000D03*
D22*
X60250000Y15250000D03*
D23*
X19705000Y6450000D03*
D24*
X20975000Y1550000D03*
D23*
X17165000Y6450000D03*
D24*
X22245000Y1550000D03*
D24*
X14625000Y1550000D03*
D24*
X15895000Y1550000D03*
D23*
X14625000Y6450000D03*
D24*
X18435000Y1550000D03*
D24*
X19705000Y1550000D03*
D23*
X15895000Y6450000D03*
D24*
X13355000Y1550000D03*
D23*
X18435000Y6450000D03*
D23*
X20975000Y6450000D03*
D23*
X22245000Y6450000D03*
D23*
X13355000Y6450000D03*
D24*
X17165000Y1550000D03*
D12*
X81666666Y10000000D03*
D13*
X76586666Y10000000D03*
D14*
X77856666Y12540000D03*
D13*
X86746666Y10000000D03*
D14*
X84206666Y15080000D03*
D25*
X48500000Y1000000D03*
D25*
X47000000Y1000000D03*
D10*
X45000000Y8000000D03*
D10*
X45000000Y6500000D03*
D26*
X61800000Y14700000D03*
D26*
X63700000Y14700000D03*
D27*
X63700000Y17300000D03*
D27*
X61800000Y17300000D03*
D27*
X62750000Y17300000D03*
D28*
X41500000Y14000000D03*
D28*
X43000000Y14000000D03*
D29*
X69233335Y16500000D03*
D29*
X71633335Y15500000D03*
D30*
X70833335Y14250000D03*
D29*
X72433335Y16500000D03*
D29*
X70833335Y16500000D03*
D30*
X72733335Y17750000D03*
D30*
X68433335Y17750000D03*
D29*
X70033335Y15500000D03*
D31*
X64000000Y11900000D03*
D32*
X61650000Y6750000D03*
D33*
X64000000Y1600000D03*
D32*
X61650000Y5750000D03*
D32*
X61650000Y7750000D03*
D32*
X61650000Y4750000D03*
D32*
X61650000Y8750000D03*
D22*
X57250000Y14175000D03*
D22*
X57250000Y12675000D03*
D11*
X48750000Y6250000D03*
D11*
X50250000Y6250000D03*
D10*
X14523334Y16750000D03*
D10*
X14523334Y15250000D03*
D25*
X58500000Y1000000D03*
D25*
X57000000Y1000000D03*
D34*
X65250000Y15250000D03*
D34*
X65250000Y16750000D03*
D11*
X53750000Y1000000D03*
D11*
X55250000Y1000000D03*
D33*
X40000000Y1600000D03*
D35*
X42350000Y6750000D03*
D31*
X40000000Y11900000D03*
D35*
X42350000Y7750000D03*
D35*
X42350000Y5750000D03*
D35*
X42350000Y8750000D03*
D35*
X42350000Y4750000D03*
D36*
X56350000Y5750000D03*
D37*
X51650000Y5750000D03*
D38*
X54250000Y2650000D03*
D36*
X56350000Y3250000D03*
D39*
X53250000Y7350000D03*
D36*
X56350000Y6750000D03*
D37*
X51650000Y4250000D03*
D38*
X53750000Y2650000D03*
D39*
X55250000Y7350000D03*
D36*
X56350000Y5250000D03*
D38*
X53250000Y2650000D03*
D36*
X56350000Y3750000D03*
D37*
X51650000Y5250000D03*
D38*
X52250000Y2650000D03*
D37*
X51650000Y3750000D03*
D39*
X52750000Y7350000D03*
D37*
X51650000Y4750000D03*
D40*
X54000000Y5000000D03*
D39*
X55750000Y7350000D03*
D38*
X55250000Y2650000D03*
D39*
X52250000Y7350000D03*
D39*
X54750000Y7350000D03*
D39*
X54250000Y7350000D03*
D38*
X54750000Y2650000D03*
D39*
X53750000Y7350000D03*
D37*
X51650000Y3250000D03*
D37*
X51650000Y6750000D03*
D36*
X56350000Y4750000D03*
D37*
X51650000Y6250000D03*
D36*
X56350000Y4250000D03*
D36*
X56350000Y6250000D03*
D38*
X55750000Y2650000D03*
D38*
X52750000Y2650000D03*
D22*
X11750000Y3000000D03*
D22*
X11750000Y1500000D03*
D21*
X60500000Y10500000D03*
D21*
X60500000Y12000000D03*
D41*
X53250000Y12500000D03*
D41*
X45750000Y5500000D03*
D41*
X59250000Y16250000D03*
D41*
X22250000Y8000000D03*
D41*
X40500000Y16000000D03*
D41*
X50000000Y4250000D03*
D41*
X46750000Y4950000D03*
D41*
X62250000Y1500000D03*
D41*
X60250000Y5750000D03*
D41*
X52750000Y3750000D03*
D41*
X49250000Y1000000D03*
D41*
X40750000Y8750000D03*
D41*
X62750000Y13500000D03*
D41*
X18500000Y3000000D03*
D41*
X15750000Y3000000D03*
D41*
X60250000Y14250000D03*
D41*
X42000000Y12000000D03*
D41*
X24000000Y4500000D03*
D41*
X14750000Y3000000D03*
D41*
X35750000Y2750000D03*
D41*
X11000000Y3000000D03*
D41*
X60500000Y13500000D03*
D41*
X56250000Y17250000D03*
D41*
X57000000Y15000000D03*
D41*
X13250000Y5000000D03*
D41*
X14750000Y5000000D03*
D41*
X43750000Y4750000D03*
D41*
X65250000Y14500000D03*
D41*
X24500000Y17500000D03*
D41*
X46750000Y2750000D03*
D41*
X58750000Y9250000D03*
D41*
X42000000Y1500000D03*
D41*
X57486091Y6513909D03*
D41*
X27750000Y12000000D03*
D41*
X60250000Y6750000D03*
D41*
X50000000Y3500000D03*
D41*
X42000000Y11000000D03*
D41*
X46000000Y3000000D03*
D41*
X60000000Y4000000D03*
D41*
X45250000Y4800000D03*
D41*
X60250000Y17500000D03*
D41*
X26000000Y4500000D03*
D41*
X52750000Y1750000D03*
D41*
X55250000Y6250000D03*
D41*
X59250000Y1000000D03*
D41*
X14750000Y8000000D03*
D41*
X54750000Y14750000D03*
D41*
X52750000Y6250000D03*
D41*
X13250000Y8000000D03*
D41*
X55250000Y3750000D03*
D41*
X66000000Y12000000D03*
D41*
X47500000Y9250000D03*
D41*
X53250000Y11750000D03*
D41*
X43000000Y9750000D03*
D41*
X45250000Y3500000D03*
D41*
X19750000Y3000000D03*
D41*
X41500000Y9750000D03*
D41*
X62750000Y16000000D03*
D41*
X35750000Y7250000D03*
D41*
X50500000Y4949998D03*
D41*
X40500000Y14000000D03*
D41*
X57250000Y18250000D03*
D41*
X56000000Y11250000D03*
D41*
X47750000Y7250000D03*
D41*
X57750000Y3500000D03*
D41*
X26000000Y16000000D03*
D41*
X17000000Y3000000D03*
D41*
X54476375Y1917313D03*
D41*
X48750000Y7000000D03*
D41*
X57000000Y11750000D03*
D10*
X46500000Y54000000D03*
D10*
X46500000Y52500000D03*
D11*
X50250000Y47000000D03*
D11*
X51750000Y47000000D03*
D12*
X18333334Y56000000D03*
D13*
X13253334Y56000000D03*
D14*
X14523334Y58540000D03*
D13*
X23413334Y56000000D03*
D14*
X20873334Y61080000D03*
D11*
X70000000Y58250000D03*
D11*
X71500000Y58250000D03*
D15*
X32687513Y62873333D03*
D16*
X28877513Y59698333D03*
D16*
X31417513Y59698333D03*
D15*
X29512513Y62873333D03*
D17*
X32687513Y57793333D03*
D18*
X27607513Y61349333D03*
D16*
X31417513Y60968333D03*
D16*
X30147513Y60968333D03*
D16*
X30147513Y59698333D03*
D16*
X28877513Y60968333D03*
D18*
X27607513Y59317333D03*
D18*
X32687513Y60333333D03*
D17*
X29512513Y57793333D03*
D19*
X56000000Y60100000D03*
D20*
X56000000Y58750000D03*
D20*
X55500000Y58750000D03*
D20*
X55000000Y58750000D03*
D19*
X55000000Y60100000D03*
D21*
X60000000Y53750000D03*
D21*
X60000000Y55250000D03*
D10*
X58500000Y54250000D03*
D10*
X58500000Y52750000D03*
D12*
X50000000Y56000000D03*
D13*
X44920000Y56000000D03*
D14*
X46190000Y58540000D03*
D13*
X55080000Y56000000D03*
D14*
X52540000Y61080000D03*
D22*
X60250000Y62750000D03*
D22*
X60250000Y61250000D03*
D23*
X19705000Y52450000D03*
D24*
X20975000Y47550000D03*
D23*
X17165000Y52450000D03*
D24*
X22245000Y47550000D03*
D24*
X14625000Y47550000D03*
D24*
X15895000Y47550000D03*
D23*
X14625000Y52450000D03*
D24*
X18435000Y47550000D03*
D24*
X19705000Y47550000D03*
D23*
X15895000Y52450000D03*
D24*
X13355000Y47550000D03*
D23*
X18435000Y52450000D03*
D23*
X20975000Y52450000D03*
D23*
X22245000Y52450000D03*
D23*
X13355000Y52450000D03*
D24*
X17165000Y47550000D03*
D12*
X81666666Y56000000D03*
D13*
X76586666Y56000000D03*
D14*
X77856666Y58540000D03*
D13*
X86746666Y56000000D03*
D14*
X84206666Y61080000D03*
D25*
X48500000Y47000000D03*
D25*
X47000000Y47000000D03*
D10*
X45000000Y54000000D03*
D10*
X45000000Y52500000D03*
D26*
X61800000Y60700000D03*
D26*
X63700000Y60700000D03*
D27*
X63700000Y63300000D03*
D27*
X61800000Y63300000D03*
D27*
X62750000Y63300000D03*
D28*
X41500000Y60000000D03*
D28*
X43000000Y60000000D03*
D29*
X69233335Y62500000D03*
D29*
X71633335Y61500000D03*
D30*
X70833335Y60250000D03*
D29*
X72433335Y62500000D03*
D29*
X70833335Y62500000D03*
D30*
X72733335Y63750000D03*
D30*
X68433335Y63750000D03*
D29*
X70033335Y61500000D03*
D31*
X64000000Y57900000D03*
D32*
X61650000Y52750000D03*
D33*
X64000000Y47600000D03*
D32*
X61650000Y51750000D03*
D32*
X61650000Y53750000D03*
D32*
X61650000Y50750000D03*
D32*
X61650000Y54750000D03*
D22*
X57250000Y60175000D03*
D22*
X57250000Y58675000D03*
D11*
X48750000Y52250000D03*
D11*
X50250000Y52250000D03*
D10*
X14523334Y62750000D03*
D10*
X14523334Y61250000D03*
D25*
X58500000Y47000000D03*
D25*
X57000000Y47000000D03*
D34*
X65250000Y61250000D03*
D34*
X65250000Y62750000D03*
D11*
X53750000Y47000000D03*
D11*
X55250000Y47000000D03*
D33*
X40000000Y47600000D03*
D35*
X42350000Y52750000D03*
D31*
X40000000Y57900000D03*
D35*
X42350000Y53750000D03*
D35*
X42350000Y51750000D03*
D35*
X42350000Y54750000D03*
D35*
X42350000Y50750000D03*
D36*
X56350000Y51750000D03*
D37*
X51650000Y51750000D03*
D38*
X54250000Y48650000D03*
D36*
X56350000Y49250000D03*
D39*
X53250000Y53350000D03*
D36*
X56350000Y52750000D03*
D37*
X51650000Y50250000D03*
D38*
X53750000Y48650000D03*
D39*
X55250000Y53350000D03*
D36*
X56350000Y51250000D03*
D38*
X53250000Y48650000D03*
D36*
X56350000Y49750000D03*
D37*
X51650000Y51250000D03*
D38*
X52250000Y48650000D03*
D37*
X51650000Y49750000D03*
D39*
X52750000Y53350000D03*
D37*
X51650000Y50750000D03*
D40*
X54000000Y51000000D03*
D39*
X55750000Y53350000D03*
D38*
X55250000Y48650000D03*
D39*
X52250000Y53350000D03*
D39*
X54750000Y53350000D03*
D39*
X54250000Y53350000D03*
D38*
X54750000Y48650000D03*
D39*
X53750000Y53350000D03*
D37*
X51650000Y49250000D03*
D37*
X51650000Y52750000D03*
D36*
X56350000Y50750000D03*
D37*
X51650000Y52250000D03*
D36*
X56350000Y50250000D03*
D36*
X56350000Y52250000D03*
D38*
X55750000Y48650000D03*
D38*
X52750000Y48650000D03*
D22*
X11750000Y49000000D03*
D22*
X11750000Y47500000D03*
D21*
X60500000Y56500000D03*
D21*
X60500000Y58000000D03*
D41*
X53250000Y58500000D03*
D41*
X45750000Y51500000D03*
D41*
X59250000Y62250000D03*
D41*
X22250000Y54000000D03*
D41*
X40500000Y62000000D03*
D41*
X50000000Y50250000D03*
D41*
X46750000Y50950000D03*
D41*
X62250000Y47500000D03*
D41*
X60250000Y51750000D03*
D41*
X52750000Y49750000D03*
D41*
X49250000Y47000000D03*
D41*
X40750000Y54750000D03*
D41*
X62750000Y59500000D03*
D41*
X18500000Y49000000D03*
D41*
X15750000Y49000000D03*
D41*
X60250000Y60250000D03*
D41*
X42000000Y58000000D03*
D41*
X24000000Y50500000D03*
D41*
X14750000Y49000000D03*
D41*
X35750000Y48750000D03*
D41*
X11000000Y49000000D03*
D41*
X60500000Y59500000D03*
D41*
X56250000Y63250000D03*
D41*
X57000000Y61000000D03*
D41*
X13250000Y51000000D03*
D41*
X14750000Y51000000D03*
D41*
X43750000Y50750000D03*
D41*
X65250000Y60500000D03*
D41*
X24500000Y63500000D03*
D41*
X46750000Y48750000D03*
D41*
X58750000Y55250000D03*
D41*
X42000000Y47500000D03*
D41*
X57486091Y52513909D03*
D41*
X27750000Y58000000D03*
D41*
X60250000Y52750000D03*
D41*
X50000000Y49500000D03*
D41*
X42000000Y57000000D03*
D41*
X46000000Y49000000D03*
D41*
X60000000Y50000000D03*
D41*
X45250000Y50800000D03*
D41*
X60250000Y63500000D03*
D41*
X26000000Y50500000D03*
D41*
X52750000Y47750000D03*
D41*
X55250000Y52250000D03*
D41*
X59250000Y47000000D03*
D41*
X14750000Y54000000D03*
D41*
X54750000Y60750000D03*
D41*
X52750000Y52250000D03*
D41*
X13250000Y54000000D03*
D41*
X55250000Y49750000D03*
D41*
X66000000Y58000000D03*
D41*
X47500000Y55250000D03*
D41*
X53250000Y57750000D03*
D41*
X43000000Y55750000D03*
D41*
X45250000Y49500000D03*
D41*
X19750000Y49000000D03*
D41*
X41500000Y55750000D03*
D41*
X62750000Y62000000D03*
D41*
X35750000Y53250000D03*
D41*
X50500000Y50949998D03*
D41*
X40500000Y60000000D03*
D41*
X57250000Y64250000D03*
D41*
X56000000Y57250000D03*
D41*
X47750000Y53250000D03*
D41*
X57750000Y49500000D03*
D41*
X26000000Y62000000D03*
D41*
X17000000Y49000000D03*
D41*
X54476375Y47917313D03*
D41*
X48750000Y53000000D03*
D41*
X57000000Y57750000D03*
M02*
