%FSLAX46Y46*%
%MOMM*%
%ADD11C,0.120000*%
%ADD10C,0.150000*%
G01*
G01*
%LPD*%
D10*
X2357142Y25928572D02*
X1214285Y25928572D01*
D10*
X2571428Y25857144D02*
X2357142Y25928572D01*
D10*
X2642857Y25785716D02*
X2571428Y25857144D01*
D10*
X2714285Y25642856D02*
X2642857Y25785716D01*
D10*
X2714285Y25500000D02*
X2714285Y25642856D01*
D10*
X2642857Y25357144D02*
X2714285Y25500000D01*
D10*
X2571428Y25285716D02*
X2642857Y25357144D01*
D10*
X2357142Y25214286D02*
X2571428Y25285716D01*
D10*
X2214285Y25214286D02*
X2357142Y25214286D01*
D10*
X2714285Y26500000D02*
X1214285Y26500000D01*
D10*
X2714285Y27357144D02*
X2714285Y26500000D01*
D10*
X1428571Y28642856D02*
X1571428Y28714286D01*
D10*
X1285714Y28500000D02*
X1428571Y28642856D01*
D10*
X1214285Y28357144D02*
X1285714Y28500000D01*
D10*
X1214285Y28071428D02*
X1214285Y28357144D01*
D10*
X1285714Y27928572D02*
X1214285Y28071428D01*
D10*
X1428571Y27785714D02*
X1285714Y27928572D01*
D10*
X1571428Y27714286D02*
X1428571Y27785714D01*
D10*
X1785714Y27642856D02*
X1571428Y27714286D01*
D10*
X2142857Y27642856D02*
X1785714Y27642856D01*
D10*
X2357142Y27714286D02*
X2142857Y27642856D01*
D10*
X2500000Y27785714D02*
X2357142Y27714286D01*
D10*
X2642857Y27928572D02*
X2500000Y27785714D01*
D10*
X2714285Y28071428D02*
X2642857Y27928572D01*
D10*
X2714285Y28357144D02*
X2714285Y28071428D01*
D10*
X2642857Y28500000D02*
X2714285Y28357144D01*
D10*
X2500000Y28642856D02*
X2642857Y28500000D01*
D10*
X2357142Y28714286D02*
X2500000Y28642856D01*
D10*
X2357142Y29785714D02*
X1214285Y29785714D01*
D10*
X2571428Y29714286D02*
X2357142Y29785714D01*
D10*
X2642857Y29642856D02*
X2571428Y29714286D01*
D10*
X2714285Y29500000D02*
X2642857Y29642856D01*
D10*
X2714285Y29357144D02*
X2714285Y29500000D01*
D10*
X2642857Y29214286D02*
X2714285Y29357144D01*
D10*
X2571428Y29142856D02*
X2642857Y29214286D01*
D10*
X2357142Y29071428D02*
X2571428Y29142856D01*
D10*
X2214285Y29071428D02*
X2357142Y29071428D01*
D10*
X2714285Y30357144D02*
X1214285Y30357144D01*
D10*
X2714285Y31214286D02*
X2714285Y30357144D01*
D10*
X1428571Y32500000D02*
X1571428Y32571428D01*
D10*
X1285714Y32357144D02*
X1428571Y32500000D01*
D10*
X1214285Y32214286D02*
X1285714Y32357144D01*
D10*
X1214285Y31928572D02*
X1214285Y32214286D01*
D10*
X1285714Y31785714D02*
X1214285Y31928572D01*
D10*
X1428571Y31642856D02*
X1285714Y31785714D01*
D10*
X1571428Y31571428D02*
X1428571Y31642856D01*
D10*
X1785714Y31500000D02*
X1571428Y31571428D01*
D10*
X2142857Y31500000D02*
X1785714Y31500000D01*
D10*
X2357142Y31571428D02*
X2142857Y31500000D01*
D10*
X2500000Y31642856D02*
X2357142Y31571428D01*
D10*
X2642857Y31785714D02*
X2500000Y31642856D01*
D10*
X2714285Y31928572D02*
X2642857Y31785714D01*
D10*
X2714285Y32214286D02*
X2714285Y31928572D01*
D10*
X2642857Y32357144D02*
X2714285Y32214286D01*
D10*
X2500000Y32500000D02*
X2642857Y32357144D01*
D10*
X2357142Y32571428D02*
X2500000Y32500000D01*
D10*
X2357142Y33642856D02*
X1214285Y33642856D01*
D10*
X2571428Y33571428D02*
X2357142Y33642856D01*
D10*
X2642857Y33500000D02*
X2571428Y33571428D01*
D10*
X2714285Y33357144D02*
X2642857Y33500000D01*
D10*
X2714285Y33214286D02*
X2714285Y33357144D01*
D10*
X2642857Y33071428D02*
X2714285Y33214286D01*
D10*
X2571428Y33000000D02*
X2642857Y33071428D01*
D10*
X2357142Y32928572D02*
X2571428Y33000000D01*
D10*
X2214285Y32928572D02*
X2357142Y32928572D01*
D10*
X2714285Y34214288D02*
X1214285Y34214288D01*
D10*
X2714285Y35071428D02*
X2714285Y34214288D01*
D10*
X1428571Y36357144D02*
X1571428Y36428572D01*
D10*
X1285714Y36214288D02*
X1428571Y36357144D01*
D10*
X1214285Y36071428D02*
X1285714Y36214288D01*
D10*
X1214285Y35785716D02*
X1214285Y36071428D01*
D10*
X1285714Y35642856D02*
X1214285Y35785716D01*
D10*
X1428571Y35500000D02*
X1285714Y35642856D01*
D10*
X1571428Y35428572D02*
X1428571Y35500000D01*
D10*
X1785714Y35357144D02*
X1571428Y35428572D01*
D10*
X2142857Y35357144D02*
X1785714Y35357144D01*
D10*
X2357142Y35428572D02*
X2142857Y35357144D01*
D10*
X2500000Y35500000D02*
X2357142Y35428572D01*
D10*
X2642857Y35642856D02*
X2500000Y35500000D01*
D10*
X2714285Y35785716D02*
X2642857Y35642856D01*
D10*
X2714285Y36071428D02*
X2714285Y35785716D01*
D10*
X2642857Y36214288D02*
X2714285Y36071428D01*
D10*
X2500000Y36357144D02*
X2642857Y36214288D01*
D10*
X2357142Y36428572D02*
X2500000Y36357144D01*
D10*
X2357142Y37500000D02*
X1214285Y37500000D01*
D10*
X2571428Y37428572D02*
X2357142Y37500000D01*
D10*
X2642857Y37357144D02*
X2571428Y37428572D01*
D10*
X2714285Y37214284D02*
X2642857Y37357144D01*
D10*
X2714285Y37071428D02*
X2714285Y37214284D01*
D10*
X2642857Y36928572D02*
X2714285Y37071428D01*
D10*
X2571428Y36857144D02*
X2642857Y36928572D01*
D10*
X2357142Y36785716D02*
X2571428Y36857144D01*
D10*
X2214285Y36785716D02*
X2357142Y36785716D01*
D10*
X2714285Y38071428D02*
X1214285Y38071428D01*
D10*
X2714285Y38928572D02*
X2714285Y38071428D01*
D10*
X1428571Y40214284D02*
X1571428Y40285716D01*
D10*
X1285714Y40071428D02*
X1428571Y40214284D01*
D10*
X1214285Y39928572D02*
X1285714Y40071428D01*
D10*
X1214285Y39642856D02*
X1214285Y39928572D01*
D10*
X1285714Y39500000D02*
X1214285Y39642856D01*
D10*
X1428571Y39357144D02*
X1285714Y39500000D01*
D10*
X1571428Y39285716D02*
X1428571Y39357144D01*
D10*
X1785714Y39214284D02*
X1571428Y39285716D01*
D10*
X2142857Y39214284D02*
X1785714Y39214284D01*
D10*
X2357142Y39285716D02*
X2142857Y39214284D01*
D10*
X2500000Y39357144D02*
X2357142Y39285716D01*
D10*
X2642857Y39500000D02*
X2500000Y39357144D01*
D10*
X2714285Y39642856D02*
X2642857Y39500000D01*
D10*
X2714285Y39928572D02*
X2714285Y39642856D01*
D10*
X2642857Y40071428D02*
X2714285Y39928572D01*
D10*
X2500000Y40214284D02*
X2642857Y40071428D01*
D10*
X2357142Y40285716D02*
X2500000Y40214284D01*
D10*
X59964284Y34435716D02*
X60392856Y35935716D01*
D10*
X60035716Y34435716D02*
X60464284Y35935716D01*
D10*
X60178572Y35007144D02*
X61392856Y35935716D01*
D10*
X60964284Y34435716D02*
X60678572Y35292856D01*
D10*
X60892856Y34435716D02*
X60607144Y35292856D01*
D10*
X60678572Y35935716D02*
X60178572Y35935716D01*
D10*
X61535716Y35935716D02*
X61107144Y35935716D01*
D10*
X60250000Y34435716D02*
X59750000Y34435716D01*
D10*
X61107144Y34435716D02*
X60678572Y34435716D01*
D10*
X61607144Y34435716D02*
X62035716Y35935716D01*
D10*
X61678572Y34435716D02*
X62107144Y35935716D01*
D10*
X62321428Y35935716D02*
X61821428Y35935716D01*
D10*
X61892856Y34435716D02*
X61392856Y34435716D01*
D10*
X63750000Y35792856D02*
X63678572Y35792856D01*
D10*
X63821428Y35935716D02*
X63750000Y35792856D01*
D10*
X63750000Y35507144D02*
X63821428Y35935716D01*
D10*
X63750000Y35650000D02*
X63750000Y35507144D01*
D10*
X63678572Y35792856D02*
X63750000Y35650000D01*
D10*
X63607144Y35864284D02*
X63678572Y35792856D01*
D10*
X63392856Y35935716D02*
X63607144Y35864284D01*
D10*
X63107144Y35935716D02*
X63392856Y35935716D01*
D10*
X62892856Y35864284D02*
X63107144Y35935716D01*
D10*
X62750000Y35721428D02*
X62892856Y35864284D01*
D10*
X62750000Y35578572D02*
X62750000Y35721428D01*
D10*
X62821428Y35435716D02*
X62750000Y35578572D01*
D10*
X62892856Y35364284D02*
X62821428Y35435716D01*
D10*
X63392856Y35078572D02*
X62892856Y35364284D01*
D10*
X63535716Y34935716D02*
X63392856Y35078572D01*
D10*
X62892856Y35435716D02*
X62750000Y35578572D01*
D10*
X63392856Y35150000D02*
X62892856Y35435716D01*
D10*
X63464284Y35078572D02*
X63392856Y35150000D01*
D10*
X63535716Y34935716D02*
X63464284Y35078572D01*
D10*
X63535716Y34721428D02*
X63535716Y34935716D01*
D10*
X63464284Y34578572D02*
X63535716Y34721428D01*
D10*
X63392856Y34507144D02*
X63464284Y34578572D01*
D10*
X63178572Y34435716D02*
X63392856Y34507144D01*
D10*
X62892856Y34435716D02*
X63178572Y34435716D01*
D10*
X62678572Y34507144D02*
X62892856Y34435716D01*
D10*
X62607144Y34578572D02*
X62678572Y34507144D01*
D10*
X62535716Y34721428D02*
X62607144Y34578572D01*
D10*
X62535716Y34864284D02*
X62535716Y34721428D01*
D10*
X62464284Y34435716D02*
X62535716Y34864284D01*
D10*
X62535716Y34578572D02*
X62464284Y34435716D01*
D10*
X62607144Y34578572D02*
X62535716Y34578572D01*
D10*
X64678572Y34435716D02*
X65107144Y35935716D01*
D10*
X64750000Y34435716D02*
X65178572Y35935716D01*
D10*
X65607144Y35292856D02*
X65678572Y35364284D01*
D10*
X65678572Y35221428D02*
X65607144Y35292856D01*
D10*
X65750000Y35292856D02*
X65678572Y35221428D01*
D10*
X65750000Y35364284D02*
X65750000Y35292856D01*
D10*
X65678572Y35435716D02*
X65750000Y35364284D01*
D10*
X65607144Y35435716D02*
X65678572Y35435716D01*
D10*
X65464284Y35364284D02*
X65607144Y35435716D01*
D10*
X65178572Y35078572D02*
X65464284Y35364284D01*
D10*
X65035712Y35007144D02*
X65178572Y35078572D01*
D10*
X64892856Y35007144D02*
X65035712Y35007144D01*
D10*
X65178572Y34935716D02*
X65035712Y35007144D01*
D10*
X65321428Y34507144D02*
X65178572Y34935716D01*
D10*
X65392856Y34435716D02*
X65321428Y34507144D01*
D10*
X65107144Y34935716D02*
X65035712Y35007144D01*
D10*
X65250000Y34507144D02*
X65107144Y34935716D01*
D10*
X65321428Y34435716D02*
X65250000Y34507144D01*
D10*
X65464284Y34435716D02*
X65321428Y34435716D01*
D10*
X65607144Y34507144D02*
X65464284Y34435716D01*
D10*
X65750000Y34721428D02*
X65607144Y34507144D01*
D10*
X65178572Y35935716D02*
X64892856Y35935716D01*
D10*
X66535712Y34864284D02*
X66250000Y34792856D01*
D10*
X66750000Y34935716D02*
X66535712Y34864284D01*
D10*
X66964284Y35078572D02*
X66750000Y34935716D01*
D10*
X67035712Y35221428D02*
X66964284Y35078572D01*
D10*
X66964284Y35364284D02*
X67035712Y35221428D01*
D10*
X66821428Y35435716D02*
X66964284Y35364284D01*
D10*
X66607144Y35435716D02*
X66821428Y35435716D01*
D10*
X66392856Y35364284D02*
X66607144Y35435716D01*
D10*
X66250000Y35150000D02*
X66392856Y35364284D01*
D10*
X66178572Y34935716D02*
X66250000Y35150000D01*
D10*
X66178572Y34721428D02*
X66178572Y34935716D01*
D10*
X66250000Y34578572D02*
X66178572Y34721428D01*
D10*
X66321428Y34507144D02*
X66250000Y34578572D01*
D10*
X66464284Y34435716D02*
X66321428Y34507144D01*
D10*
X66607144Y34435716D02*
X66464284Y34435716D01*
D10*
X66821428Y34507144D02*
X66607144Y34435716D01*
D10*
X66964284Y34650000D02*
X66821428Y34507144D01*
D10*
X66464284Y35364284D02*
X66607144Y35435716D01*
D10*
X66321428Y35150000D02*
X66464284Y35364284D01*
D10*
X66250000Y34935716D02*
X66321428Y35150000D01*
D10*
X66250000Y34650000D02*
X66250000Y34935716D01*
D10*
X66321428Y34507144D02*
X66250000Y34650000D01*
D10*
X67392856Y35292856D02*
X67321432Y35150000D01*
D10*
X67535712Y35435716D02*
X67392856Y35292856D01*
D10*
X67750000Y35435716D02*
X67535712Y35435716D01*
D10*
X67821432Y35364284D02*
X67750000Y35435716D01*
D10*
X67821432Y35150000D02*
X67821432Y35364284D01*
D10*
X67678568Y34721428D02*
X67821432Y35150000D01*
D10*
X67678568Y34578572D02*
X67678568Y34721428D01*
D10*
X67821432Y34435716D02*
X67678568Y34578572D01*
D10*
X67750000Y35364284D02*
X67678568Y35435716D01*
D10*
X67750000Y35150000D02*
X67750000Y35364284D01*
D10*
X67607144Y34721428D02*
X67750000Y35150000D01*
D10*
X67607144Y34578572D02*
X67607144Y34721428D01*
D10*
X67678568Y34507144D02*
X67607144Y34578572D01*
D10*
X67821432Y34435716D02*
X67678568Y34507144D01*
D10*
X67964288Y34435716D02*
X67821432Y34435716D01*
D10*
X68107144Y34507144D02*
X67964288Y34435716D01*
D10*
X68250000Y34650000D02*
X68107144Y34507144D01*
D10*
X68392856Y34935716D02*
X68250000Y34650000D01*
D10*
X68321424Y34435716D02*
X68607144Y35435716D01*
D10*
X68250000Y34221428D02*
X68321424Y34435716D01*
D10*
X68107144Y34007144D02*
X68250000Y34221428D01*
D10*
X67892856Y33935716D02*
X68107144Y34007144D01*
D10*
X67678568Y33935716D02*
X67892856Y33935716D01*
D10*
X67535712Y34007144D02*
X67678568Y33935716D01*
D10*
X67464288Y34078572D02*
X67535712Y34007144D01*
D10*
X67464288Y34150000D02*
X67464288Y34078572D01*
D10*
X67535712Y34221428D02*
X67464288Y34150000D01*
D10*
X67607144Y34150000D02*
X67535712Y34221428D01*
D10*
X67535712Y34078572D02*
X67607144Y34150000D01*
D10*
X68250000Y34435716D02*
X68535712Y35435716D01*
D10*
X68178568Y34221428D02*
X68250000Y34435716D01*
D10*
X68035712Y34007144D02*
X68178568Y34221428D01*
D10*
X67892856Y33935716D02*
X68035712Y34007144D01*
D10*
X68892856Y35292856D02*
X68821424Y35150000D01*
D10*
X69035712Y35435716D02*
X68892856Y35292856D01*
D10*
X69250000Y35435716D02*
X69035712Y35435716D01*
D10*
X69321424Y35364284D02*
X69250000Y35435716D01*
D10*
X69321424Y35221428D02*
X69321424Y35364284D01*
D10*
X69250000Y34935716D02*
X69321424Y35221428D01*
D10*
X68964288Y33935716D02*
X69250000Y34935716D01*
D10*
X69250000Y35364284D02*
X69178568Y35435716D01*
D10*
X69250000Y35221428D02*
X69250000Y35364284D01*
D10*
X69178568Y34935716D02*
X69250000Y35221428D01*
D10*
X68892856Y33935716D02*
X69178568Y34935716D01*
D10*
X69321424Y35150000D02*
X69250000Y34935716D01*
D10*
X69464288Y35364284D02*
X69321424Y35150000D01*
D10*
X69607144Y35435716D02*
X69464288Y35364284D01*
D10*
X69750000Y35435716D02*
X69607144Y35435716D01*
D10*
X69892856Y35364284D02*
X69750000Y35435716D01*
D10*
X69964288Y35292856D02*
X69892856Y35364284D01*
D10*
X70035712Y35150000D02*
X69964288Y35292856D01*
D10*
X70035712Y34935716D02*
X70035712Y35150000D01*
D10*
X69964288Y34721428D02*
X70035712Y34935716D01*
D10*
X69821424Y34507144D02*
X69964288Y34721428D01*
D10*
X69607144Y34435716D02*
X69821424Y34507144D01*
D10*
X69464288Y34435716D02*
X69607144Y34435716D01*
D10*
X69321424Y34507144D02*
X69464288Y34435716D01*
D10*
X69250000Y34721428D02*
X69321424Y34507144D01*
D10*
X69250000Y34935716D02*
X69250000Y34721428D01*
D10*
X69964288Y35221428D02*
X69892856Y35364284D01*
D10*
X69964288Y34935716D02*
X69964288Y35221428D01*
D10*
X69892856Y34721428D02*
X69964288Y34935716D01*
D10*
X69750000Y34507144D02*
X69892856Y34721428D01*
D10*
X69607144Y34435716D02*
X69750000Y34507144D01*
D10*
X69178568Y33935716D02*
X68678568Y33935716D01*
D10*
X71250000Y34935716D02*
X71392856Y35435716D01*
D10*
X71178568Y34650000D02*
X71250000Y34935716D01*
D10*
X71178568Y34507144D02*
X71178568Y34650000D01*
D10*
X71250000Y34435716D02*
X71178568Y34507144D01*
D10*
X71464288Y34435716D02*
X71250000Y34435716D01*
D10*
X71607144Y34578572D02*
X71464288Y34435716D01*
D10*
X71678568Y34721428D02*
X71607144Y34578572D01*
D10*
X71321424Y34935716D02*
X71464288Y35435716D01*
D10*
X71250000Y34650000D02*
X71321424Y34935716D01*
D10*
X71250000Y34507144D02*
X71250000Y34650000D01*
D10*
X71321424Y34435716D02*
X71250000Y34507144D01*
D10*
X71250000Y35150000D02*
X71250000Y34935716D01*
D10*
X71178568Y35364284D02*
X71250000Y35150000D01*
D10*
X71035712Y35435716D02*
X71178568Y35364284D01*
D10*
X70892856Y35435716D02*
X71035712Y35435716D01*
D10*
X70678568Y35364284D02*
X70892856Y35435716D01*
D10*
X70535712Y35150000D02*
X70678568Y35364284D01*
D10*
X70464288Y34935716D02*
X70535712Y35150000D01*
D10*
X70464288Y34721428D02*
X70464288Y34935716D01*
D10*
X70535712Y34578572D02*
X70464288Y34721428D01*
D10*
X70607144Y34507144D02*
X70535712Y34578572D01*
D10*
X70750000Y34435716D02*
X70607144Y34507144D01*
D10*
X70892856Y34435716D02*
X70750000Y34435716D01*
D10*
X71035712Y34507144D02*
X70892856Y34435716D01*
D10*
X71178568Y34721428D02*
X71035712Y34507144D01*
D10*
X71250000Y34935716D02*
X71178568Y34721428D01*
D10*
X70750000Y35364284D02*
X70892856Y35435716D01*
D10*
X70607144Y35150000D02*
X70750000Y35364284D01*
D10*
X70535712Y34935716D02*
X70607144Y35150000D01*
D10*
X70535712Y34650000D02*
X70535712Y34935716D01*
D10*
X70607144Y34507144D02*
X70535712Y34650000D01*
D10*
X72750000Y34935716D02*
X73035712Y35935716D01*
D10*
X72678568Y34650000D02*
X72750000Y34935716D01*
D10*
X72678568Y34507144D02*
X72678568Y34650000D01*
D10*
X72750000Y34435716D02*
X72678568Y34507144D01*
D10*
X72964288Y34435716D02*
X72750000Y34435716D01*
D10*
X73107144Y34578572D02*
X72964288Y34435716D01*
D10*
X73178568Y34721428D02*
X73107144Y34578572D01*
D10*
X72821424Y34935716D02*
X73107144Y35935716D01*
D10*
X72750000Y34650000D02*
X72821424Y34935716D01*
D10*
X72750000Y34507144D02*
X72750000Y34650000D01*
D10*
X72821424Y34435716D02*
X72750000Y34507144D01*
D10*
X72750000Y35150000D02*
X72750000Y34935716D01*
D10*
X72678568Y35364284D02*
X72750000Y35150000D01*
D10*
X72535712Y35435716D02*
X72678568Y35364284D01*
D10*
X72392856Y35435716D02*
X72535712Y35435716D01*
D10*
X72178568Y35364284D02*
X72392856Y35435716D01*
D10*
X72035712Y35150000D02*
X72178568Y35364284D01*
D10*
X71964288Y34935716D02*
X72035712Y35150000D01*
D10*
X71964288Y34721428D02*
X71964288Y34935716D01*
D10*
X72035712Y34578572D02*
X71964288Y34721428D01*
D10*
X72107144Y34507144D02*
X72035712Y34578572D01*
D10*
X72250000Y34435716D02*
X72107144Y34507144D01*
D10*
X72392856Y34435716D02*
X72250000Y34435716D01*
D10*
X72535712Y34507144D02*
X72392856Y34435716D01*
D10*
X72678568Y34721428D02*
X72535712Y34507144D01*
D10*
X72750000Y34935716D02*
X72678568Y34721428D01*
D10*
X72250000Y35364284D02*
X72392856Y35435716D01*
D10*
X72107144Y35150000D02*
X72250000Y35364284D01*
D10*
X72035712Y34935716D02*
X72107144Y35150000D01*
D10*
X72035712Y34650000D02*
X72035712Y34935716D01*
D10*
X72107144Y34507144D02*
X72035712Y34650000D01*
D10*
X73107144Y35935716D02*
X72821424Y35935716D01*
D10*
X59964284Y32260714D02*
X60392856Y33760716D01*
D10*
X60035716Y32260714D02*
X60464284Y33760716D01*
D10*
X60678572Y33760716D02*
X60178572Y33760716D01*
D10*
X60821428Y32260714D02*
X59750000Y32260714D01*
D10*
X60964284Y32689286D02*
X60821428Y32260714D01*
D10*
X60750000Y32260714D02*
X60964284Y32689286D01*
D10*
X61321428Y33117858D02*
X61250000Y32975000D01*
D10*
X61464284Y33260714D02*
X61321428Y33117858D01*
D10*
X61678572Y33260714D02*
X61464284Y33260714D01*
D10*
X61750000Y33189286D02*
X61678572Y33260714D01*
D10*
X61750000Y32975000D02*
X61750000Y33189286D01*
D10*
X61607144Y32546428D02*
X61750000Y32975000D01*
D10*
X61607144Y32403572D02*
X61607144Y32546428D01*
D10*
X61750000Y32260714D02*
X61607144Y32403572D01*
D10*
X61678572Y33189286D02*
X61607144Y33260714D01*
D10*
X61678572Y32975000D02*
X61678572Y33189286D01*
D10*
X61535716Y32546428D02*
X61678572Y32975000D01*
D10*
X61535716Y32403572D02*
X61535716Y32546428D01*
D10*
X61607144Y32332142D02*
X61535716Y32403572D01*
D10*
X61750000Y32260714D02*
X61607144Y32332142D01*
D10*
X61892856Y32260714D02*
X61750000Y32260714D01*
D10*
X62035716Y32332142D02*
X61892856Y32260714D01*
D10*
X62178572Y32475000D02*
X62035716Y32332142D01*
D10*
X62321428Y32760714D02*
X62178572Y32475000D01*
D10*
X62321428Y32760714D02*
X62464284Y33260714D01*
D10*
X62250000Y32475000D02*
X62321428Y32760714D01*
D10*
X62250000Y32332142D02*
X62250000Y32475000D01*
D10*
X62321428Y32260714D02*
X62250000Y32332142D01*
D10*
X62535716Y32260714D02*
X62321428Y32260714D01*
D10*
X62678572Y32403572D02*
X62535716Y32260714D01*
D10*
X62750000Y32546428D02*
X62678572Y32403572D01*
D10*
X62392856Y32760714D02*
X62535716Y33260714D01*
D10*
X62321428Y32475000D02*
X62392856Y32760714D01*
D10*
X62321428Y32332142D02*
X62321428Y32475000D01*
D10*
X62392856Y32260714D02*
X62321428Y32332142D01*
D10*
X62964284Y32260714D02*
X63392856Y33760716D01*
D10*
X63035716Y32260714D02*
X63464284Y33760716D01*
D10*
X63892856Y33117858D02*
X63964284Y33189286D01*
D10*
X63964284Y33046428D02*
X63892856Y33117858D01*
D10*
X64035712Y33117858D02*
X63964284Y33046428D01*
D10*
X64035712Y33189286D02*
X64035712Y33117858D01*
D10*
X63964284Y33260714D02*
X64035712Y33189286D01*
D10*
X63892856Y33260714D02*
X63964284Y33260714D01*
D10*
X63750000Y33189286D02*
X63892856Y33260714D01*
D10*
X63464284Y32903572D02*
X63750000Y33189286D01*
D10*
X63321428Y32832142D02*
X63464284Y32903572D01*
D10*
X63178572Y32832142D02*
X63321428Y32832142D01*
D10*
X63464284Y32760714D02*
X63321428Y32832142D01*
D10*
X63607144Y32332142D02*
X63464284Y32760714D01*
D10*
X63678572Y32260714D02*
X63607144Y32332142D01*
D10*
X63392856Y32760714D02*
X63321428Y32832142D01*
D10*
X63535716Y32332142D02*
X63392856Y32760714D01*
D10*
X63607144Y32260714D02*
X63535716Y32332142D01*
D10*
X63750000Y32260714D02*
X63607144Y32260714D01*
D10*
X63892856Y32332142D02*
X63750000Y32260714D01*
D10*
X64035712Y32546428D02*
X63892856Y32332142D01*
D10*
X63464284Y33760716D02*
X63178572Y33760716D01*
D10*
X65250000Y32760714D02*
X65392856Y33260714D01*
D10*
X65178572Y32475000D02*
X65250000Y32760714D01*
D10*
X65178572Y32332142D02*
X65178572Y32475000D01*
D10*
X65250000Y32260714D02*
X65178572Y32332142D01*
D10*
X65464284Y32260714D02*
X65250000Y32260714D01*
D10*
X65607144Y32403572D02*
X65464284Y32260714D01*
D10*
X65678572Y32546428D02*
X65607144Y32403572D01*
D10*
X65321428Y32760714D02*
X65464284Y33260714D01*
D10*
X65250000Y32475000D02*
X65321428Y32760714D01*
D10*
X65250000Y32332142D02*
X65250000Y32475000D01*
D10*
X65321428Y32260714D02*
X65250000Y32332142D01*
D10*
X65250000Y32975000D02*
X65250000Y32760714D01*
D10*
X65178572Y33189286D02*
X65250000Y32975000D01*
D10*
X65035712Y33260714D02*
X65178572Y33189286D01*
D10*
X64892856Y33260714D02*
X65035712Y33260714D01*
D10*
X64678572Y33189286D02*
X64892856Y33260714D01*
D10*
X64535712Y32975000D02*
X64678572Y33189286D01*
D10*
X64464284Y32760714D02*
X64535712Y32975000D01*
D10*
X64464284Y32546428D02*
X64464284Y32760714D01*
D10*
X64535712Y32403572D02*
X64464284Y32546428D01*
D10*
X64607144Y32332142D02*
X64535712Y32403572D01*
D10*
X64750000Y32260714D02*
X64607144Y32332142D01*
D10*
X64892856Y32260714D02*
X64750000Y32260714D01*
D10*
X65035712Y32332142D02*
X64892856Y32260714D01*
D10*
X65178572Y32546428D02*
X65035712Y32332142D01*
D10*
X65250000Y32760714D02*
X65178572Y32546428D01*
D10*
X64750000Y33189286D02*
X64892856Y33260714D01*
D10*
X64607144Y32975000D02*
X64750000Y33189286D01*
D10*
X64535712Y32760714D02*
X64607144Y32975000D01*
D10*
X64535712Y32475000D02*
X64535712Y32760714D01*
D10*
X64607144Y32332142D02*
X64535712Y32475000D01*
D10*
X66750000Y33046428D02*
X66750000Y33117858D01*
D10*
X66821428Y33046428D02*
X66750000Y33046428D01*
D10*
X66821428Y33117858D02*
X66821428Y33046428D01*
D10*
X66750000Y33189286D02*
X66821428Y33117858D01*
D10*
X66535712Y33260714D02*
X66750000Y33189286D01*
D10*
X66321428Y33260714D02*
X66535712Y33260714D01*
D10*
X66107144Y33189286D02*
X66321428Y33260714D01*
D10*
X66035712Y33117858D02*
X66107144Y33189286D01*
D10*
X66035712Y32975000D02*
X66035712Y33117858D01*
D10*
X66107144Y32903572D02*
X66035712Y32975000D01*
D10*
X66607144Y32617858D02*
X66107144Y32903572D01*
D10*
X66678572Y32546428D02*
X66607144Y32617858D01*
D10*
X66107144Y32975000D02*
X66035712Y33046428D01*
D10*
X66607144Y32689286D02*
X66107144Y32975000D01*
D10*
X66678572Y32617858D02*
X66607144Y32689286D01*
D10*
X66678572Y32403572D02*
X66678572Y32617858D01*
D10*
X66607144Y32332142D02*
X66678572Y32403572D01*
D10*
X66392856Y32260714D02*
X66607144Y32332142D01*
D10*
X66178572Y32260714D02*
X66392856Y32260714D01*
D10*
X65964284Y32332142D02*
X66178572Y32260714D01*
D10*
X65892856Y32403572D02*
X65964284Y32332142D01*
D10*
X65892856Y32475000D02*
X65892856Y32403572D01*
D10*
X65964284Y32475000D02*
X65892856Y32475000D01*
D10*
X65964284Y32403572D02*
X65964284Y32475000D01*
D10*
X67750000Y32260714D02*
X68178568Y33760716D01*
D10*
X67821432Y32260714D02*
X68250000Y33760716D01*
D10*
X67964288Y32832142D02*
X69178568Y33760716D01*
D10*
X68750000Y32260714D02*
X68464288Y33117858D01*
D10*
X68678568Y32260714D02*
X68392856Y33117858D01*
D10*
X68464288Y33760716D02*
X67964288Y33760716D01*
D10*
X69321424Y33760716D02*
X68892856Y33760716D01*
D10*
X68035712Y32260714D02*
X67535712Y32260714D01*
D10*
X68892856Y32260714D02*
X68464288Y32260714D01*
D10*
X69464288Y32332142D02*
X69535712Y32403572D01*
D10*
X69535712Y32260714D02*
X69464288Y32332142D01*
D10*
X69607144Y32332142D02*
X69535712Y32260714D01*
D10*
X69535712Y32403572D02*
X69607144Y32332142D01*
D10*
X60321428Y31228572D02*
X60250000Y31300000D01*
D10*
X60250000Y31157142D02*
X60321428Y31228572D01*
D10*
X60178572Y31228572D02*
X60250000Y31157142D01*
D10*
X60178572Y31300000D02*
X60178572Y31228572D01*
D10*
X60250000Y31442858D02*
X60178572Y31300000D01*
D10*
X60321428Y31514286D02*
X60250000Y31442858D01*
D10*
X60535716Y31585714D02*
X60321428Y31514286D01*
D10*
X60750000Y31585714D02*
X60535716Y31585714D01*
D10*
X60964284Y31514286D02*
X60750000Y31585714D01*
D10*
X61035716Y31371428D02*
X60964284Y31514286D01*
D10*
X61035716Y31228572D02*
X61035716Y31371428D01*
D10*
X60964284Y31085714D02*
X61035716Y31228572D01*
D10*
X60821428Y30942858D02*
X60964284Y31085714D01*
D10*
X60607144Y30800000D02*
X60821428Y30942858D01*
D10*
X60321428Y30657142D02*
X60607144Y30800000D01*
D10*
X60107144Y30514286D02*
X60321428Y30657142D01*
D10*
X59964284Y30371428D02*
X60107144Y30514286D01*
D10*
X59821428Y30085714D02*
X59964284Y30371428D01*
D10*
X60892856Y31514286D02*
X60750000Y31585714D01*
D10*
X60964284Y31371428D02*
X60892856Y31514286D01*
D10*
X60964284Y31228572D02*
X60964284Y31371428D01*
D10*
X60892856Y31085714D02*
X60964284Y31228572D01*
D10*
X60750000Y30942858D02*
X60892856Y31085714D01*
D10*
X60321428Y30657142D02*
X60750000Y30942858D01*
D10*
X59964284Y30300000D02*
X59892856Y30228572D01*
D10*
X60107144Y30300000D02*
X59964284Y30300000D01*
D10*
X60464284Y30157142D02*
X60107144Y30300000D01*
D10*
X60678572Y30157142D02*
X60464284Y30157142D01*
D10*
X60821428Y30228572D02*
X60678572Y30157142D01*
D10*
X60892856Y30371428D02*
X60821428Y30228572D01*
D10*
X60464284Y30085714D02*
X60107144Y30300000D01*
D10*
X60678572Y30085714D02*
X60464284Y30085714D01*
D10*
X60821428Y30157142D02*
X60678572Y30085714D01*
D10*
X60892856Y30371428D02*
X60821428Y30157142D01*
D10*
X61892856Y31514286D02*
X62107144Y31585714D01*
D10*
X61750000Y31371428D02*
X61892856Y31514286D01*
D10*
X61607144Y31157142D02*
X61750000Y31371428D01*
D10*
X61535716Y30942858D02*
X61607144Y31157142D01*
D10*
X61464284Y30657142D02*
X61535716Y30942858D01*
D10*
X61464284Y30442858D02*
X61464284Y30657142D01*
D10*
X61535716Y30228572D02*
X61464284Y30442858D01*
D10*
X61607144Y30157142D02*
X61535716Y30228572D01*
D10*
X61750000Y30085714D02*
X61607144Y30157142D01*
D10*
X61892856Y30085714D02*
X61750000Y30085714D01*
D10*
X62107144Y30157142D02*
X61892856Y30085714D01*
D10*
X62250000Y30300000D02*
X62107144Y30157142D01*
D10*
X62392856Y30514286D02*
X62250000Y30300000D01*
D10*
X62464284Y30728572D02*
X62392856Y30514286D01*
D10*
X62535716Y31014286D02*
X62464284Y30728572D01*
D10*
X62535716Y31228572D02*
X62535716Y31014286D01*
D10*
X62464284Y31442858D02*
X62535716Y31228572D01*
D10*
X62392856Y31514286D02*
X62464284Y31442858D01*
D10*
X62250000Y31585714D02*
X62392856Y31514286D01*
D10*
X62107144Y31585714D02*
X62250000Y31585714D01*
D10*
X61964284Y31514286D02*
X62107144Y31585714D01*
D10*
X61821428Y31371428D02*
X61964284Y31514286D01*
D10*
X61678572Y31157142D02*
X61821428Y31371428D01*
D10*
X61607144Y30942858D02*
X61678572Y31157142D01*
D10*
X61535716Y30657142D02*
X61607144Y30942858D01*
D10*
X61535716Y30442858D02*
X61535716Y30657142D01*
D10*
X61607144Y30228572D02*
X61535716Y30442858D01*
D10*
X61750000Y30085714D02*
X61607144Y30228572D01*
D10*
X62035716Y30157142D02*
X61892856Y30085714D01*
D10*
X62178572Y30300000D02*
X62035716Y30157142D01*
D10*
X62321428Y30514286D02*
X62178572Y30300000D01*
D10*
X62392856Y30728572D02*
X62321428Y30514286D01*
D10*
X62464284Y31014286D02*
X62392856Y30728572D01*
D10*
X62464284Y31228572D02*
X62464284Y31014286D01*
D10*
X62392856Y31442858D02*
X62464284Y31228572D01*
D10*
X62250000Y31585714D02*
X62392856Y31442858D01*
D10*
X63321428Y31228572D02*
X63250000Y31300000D01*
D10*
X63250000Y31157142D02*
X63321428Y31228572D01*
D10*
X63178572Y31228572D02*
X63250000Y31157142D01*
D10*
X63178572Y31300000D02*
X63178572Y31228572D01*
D10*
X63250000Y31442858D02*
X63178572Y31300000D01*
D10*
X63321428Y31514286D02*
X63250000Y31442858D01*
D10*
X63535716Y31585714D02*
X63321428Y31514286D01*
D10*
X63750000Y31585714D02*
X63535716Y31585714D01*
D10*
X63964284Y31514286D02*
X63750000Y31585714D01*
D10*
X64035712Y31371428D02*
X63964284Y31514286D01*
D10*
X64035712Y31228572D02*
X64035712Y31371428D01*
D10*
X63964284Y31085714D02*
X64035712Y31228572D01*
D10*
X63821428Y30942858D02*
X63964284Y31085714D01*
D10*
X63607144Y30800000D02*
X63821428Y30942858D01*
D10*
X63321428Y30657142D02*
X63607144Y30800000D01*
D10*
X63107144Y30514286D02*
X63321428Y30657142D01*
D10*
X62964284Y30371428D02*
X63107144Y30514286D01*
D10*
X62821428Y30085714D02*
X62964284Y30371428D01*
D10*
X63892856Y31514286D02*
X63750000Y31585714D01*
D10*
X63964284Y31371428D02*
X63892856Y31514286D01*
D10*
X63964284Y31228572D02*
X63964284Y31371428D01*
D10*
X63892856Y31085714D02*
X63964284Y31228572D01*
D10*
X63750000Y30942858D02*
X63892856Y31085714D01*
D10*
X63321428Y30657142D02*
X63750000Y30942858D01*
D10*
X62964284Y30300000D02*
X62892856Y30228572D01*
D10*
X63107144Y30300000D02*
X62964284Y30300000D01*
D10*
X63464284Y30157142D02*
X63107144Y30300000D01*
D10*
X63678572Y30157142D02*
X63464284Y30157142D01*
D10*
X63821428Y30228572D02*
X63678572Y30157142D01*
D10*
X63892856Y30371428D02*
X63821428Y30228572D01*
D10*
X63464284Y30085714D02*
X63107144Y30300000D01*
D10*
X63678572Y30085714D02*
X63464284Y30085714D01*
D10*
X63821428Y30157142D02*
X63678572Y30085714D01*
D10*
X63892856Y30371428D02*
X63821428Y30157142D01*
D10*
X64821428Y31228572D02*
X64750000Y31300000D01*
D10*
X64750000Y31157142D02*
X64821428Y31228572D01*
D10*
X64678572Y31228572D02*
X64750000Y31157142D01*
D10*
X64678572Y31300000D02*
X64678572Y31228572D01*
D10*
X64750000Y31442858D02*
X64678572Y31300000D01*
D10*
X64821428Y31514286D02*
X64750000Y31442858D01*
D10*
X65035712Y31585714D02*
X64821428Y31514286D01*
D10*
X65250000Y31585714D02*
X65035712Y31585714D01*
D10*
X65464284Y31514286D02*
X65250000Y31585714D01*
D10*
X65535712Y31371428D02*
X65464284Y31514286D01*
D10*
X65535712Y31228572D02*
X65535712Y31371428D01*
D10*
X65464284Y31085714D02*
X65535712Y31228572D01*
D10*
X65321428Y30942858D02*
X65464284Y31085714D01*
D10*
X65107144Y30800000D02*
X65321428Y30942858D01*
D10*
X64821428Y30657142D02*
X65107144Y30800000D01*
D10*
X64607144Y30514286D02*
X64821428Y30657142D01*
D10*
X64464284Y30371428D02*
X64607144Y30514286D01*
D10*
X64321428Y30085714D02*
X64464284Y30371428D01*
D10*
X65392856Y31514286D02*
X65250000Y31585714D01*
D10*
X65464284Y31371428D02*
X65392856Y31514286D01*
D10*
X65464284Y31228572D02*
X65464284Y31371428D01*
D10*
X65392856Y31085714D02*
X65464284Y31228572D01*
D10*
X65250000Y30942858D02*
X65392856Y31085714D01*
D10*
X64821428Y30657142D02*
X65250000Y30942858D01*
D10*
X64464284Y30300000D02*
X64392856Y30228572D01*
D10*
X64607144Y30300000D02*
X64464284Y30300000D01*
D10*
X64964284Y30157142D02*
X64607144Y30300000D01*
D10*
X65178572Y30157142D02*
X64964284Y30157142D01*
D10*
X65321428Y30228572D02*
X65178572Y30157142D01*
D10*
X65392856Y30371428D02*
X65321428Y30228572D01*
D10*
X64964284Y30085714D02*
X64607144Y30300000D01*
D10*
X65178572Y30085714D02*
X64964284Y30085714D01*
D10*
X65321428Y30157142D02*
X65178572Y30085714D01*
D10*
X65392856Y30371428D02*
X65321428Y30157142D01*
D11*
X11348334Y39985000D02*
X25318334Y39985000D01*
D11*
X11348334Y26015000D02*
X11348334Y39985000D01*
D11*
X25318334Y26015000D02*
X11348334Y26015000D01*
D11*
X25318334Y39985000D02*
X25318334Y26015000D01*
D11*
X43015000Y39985000D02*
X56985000Y39985000D01*
D11*
X43015000Y26015000D02*
X43015000Y39985000D01*
D11*
X56985000Y26015000D02*
X43015000Y26015000D01*
D11*
X56985000Y39985000D02*
X56985000Y26015000D01*
D11*
X74681666Y39985000D02*
X88651666Y39985000D01*
D11*
X74681666Y26015000D02*
X74681666Y39985000D01*
D11*
X88651666Y26015000D02*
X74681666Y26015000D01*
D11*
X88651666Y39985000D02*
X88651666Y26015000D01*
D10*
X59964284Y80435712D02*
X60392856Y81935712D01*
D10*
X60035716Y80435712D02*
X60464284Y81935712D01*
D10*
X60178572Y81007144D02*
X61392856Y81935712D01*
D10*
X60964284Y80435712D02*
X60678572Y81292856D01*
D10*
X60892856Y80435712D02*
X60607144Y81292856D01*
D10*
X60678572Y81935712D02*
X60178572Y81935712D01*
D10*
X61535716Y81935712D02*
X61107144Y81935712D01*
D10*
X60250000Y80435712D02*
X59750000Y80435712D01*
D10*
X61107144Y80435712D02*
X60678572Y80435712D01*
D10*
X61607144Y80435712D02*
X62035716Y81935712D01*
D10*
X61678572Y80435712D02*
X62107144Y81935712D01*
D10*
X62321428Y81935712D02*
X61821428Y81935712D01*
D10*
X61892856Y80435712D02*
X61392856Y80435712D01*
D10*
X63750000Y81792856D02*
X63678572Y81792856D01*
D10*
X63821428Y81935712D02*
X63750000Y81792856D01*
D10*
X63750000Y81507144D02*
X63821428Y81935712D01*
D10*
X63750000Y81650000D02*
X63750000Y81507144D01*
D10*
X63678572Y81792856D02*
X63750000Y81650000D01*
D10*
X63607144Y81864288D02*
X63678572Y81792856D01*
D10*
X63392856Y81935712D02*
X63607144Y81864288D01*
D10*
X63107144Y81935712D02*
X63392856Y81935712D01*
D10*
X62892856Y81864288D02*
X63107144Y81935712D01*
D10*
X62750000Y81721432D02*
X62892856Y81864288D01*
D10*
X62750000Y81578568D02*
X62750000Y81721432D01*
D10*
X62821428Y81435712D02*
X62750000Y81578568D01*
D10*
X62892856Y81364288D02*
X62821428Y81435712D01*
D10*
X63392856Y81078568D02*
X62892856Y81364288D01*
D10*
X63535716Y80935712D02*
X63392856Y81078568D01*
D10*
X62892856Y81435712D02*
X62750000Y81578568D01*
D10*
X63392856Y81150000D02*
X62892856Y81435712D01*
D10*
X63464284Y81078568D02*
X63392856Y81150000D01*
D10*
X63535716Y80935712D02*
X63464284Y81078568D01*
D10*
X63535716Y80721432D02*
X63535716Y80935712D01*
D10*
X63464284Y80578568D02*
X63535716Y80721432D01*
D10*
X63392856Y80507144D02*
X63464284Y80578568D01*
D10*
X63178572Y80435712D02*
X63392856Y80507144D01*
D10*
X62892856Y80435712D02*
X63178572Y80435712D01*
D10*
X62678572Y80507144D02*
X62892856Y80435712D01*
D10*
X62607144Y80578568D02*
X62678572Y80507144D01*
D10*
X62535716Y80721432D02*
X62607144Y80578568D01*
D10*
X62535716Y80864288D02*
X62535716Y80721432D01*
D10*
X62464284Y80435712D02*
X62535716Y80864288D01*
D10*
X62535716Y80578568D02*
X62464284Y80435712D01*
D10*
X62607144Y80578568D02*
X62535716Y80578568D01*
D10*
X64678572Y80435712D02*
X65107144Y81935712D01*
D10*
X64750000Y80435712D02*
X65178572Y81935712D01*
D10*
X65607144Y81292856D02*
X65678572Y81364288D01*
D10*
X65678572Y81221432D02*
X65607144Y81292856D01*
D10*
X65750000Y81292856D02*
X65678572Y81221432D01*
D10*
X65750000Y81364288D02*
X65750000Y81292856D01*
D10*
X65678572Y81435712D02*
X65750000Y81364288D01*
D10*
X65607144Y81435712D02*
X65678572Y81435712D01*
D10*
X65464284Y81364288D02*
X65607144Y81435712D01*
D10*
X65178572Y81078568D02*
X65464284Y81364288D01*
D10*
X65035712Y81007144D02*
X65178572Y81078568D01*
D10*
X64892856Y81007144D02*
X65035712Y81007144D01*
D10*
X65178572Y80935712D02*
X65035712Y81007144D01*
D10*
X65321428Y80507144D02*
X65178572Y80935712D01*
D10*
X65392856Y80435712D02*
X65321428Y80507144D01*
D10*
X65107144Y80935712D02*
X65035712Y81007144D01*
D10*
X65250000Y80507144D02*
X65107144Y80935712D01*
D10*
X65321428Y80435712D02*
X65250000Y80507144D01*
D10*
X65464284Y80435712D02*
X65321428Y80435712D01*
D10*
X65607144Y80507144D02*
X65464284Y80435712D01*
D10*
X65750000Y80721432D02*
X65607144Y80507144D01*
D10*
X65178572Y81935712D02*
X64892856Y81935712D01*
D10*
X66535712Y80864288D02*
X66250000Y80792856D01*
D10*
X66750000Y80935712D02*
X66535712Y80864288D01*
D10*
X66964284Y81078568D02*
X66750000Y80935712D01*
D10*
X67035712Y81221432D02*
X66964284Y81078568D01*
D10*
X66964284Y81364288D02*
X67035712Y81221432D01*
D10*
X66821428Y81435712D02*
X66964284Y81364288D01*
D10*
X66607144Y81435712D02*
X66821428Y81435712D01*
D10*
X66392856Y81364288D02*
X66607144Y81435712D01*
D10*
X66250000Y81150000D02*
X66392856Y81364288D01*
D10*
X66178572Y80935712D02*
X66250000Y81150000D01*
D10*
X66178572Y80721432D02*
X66178572Y80935712D01*
D10*
X66250000Y80578568D02*
X66178572Y80721432D01*
D10*
X66321428Y80507144D02*
X66250000Y80578568D01*
D10*
X66464284Y80435712D02*
X66321428Y80507144D01*
D10*
X66607144Y80435712D02*
X66464284Y80435712D01*
D10*
X66821428Y80507144D02*
X66607144Y80435712D01*
D10*
X66964284Y80650000D02*
X66821428Y80507144D01*
D10*
X66464284Y81364288D02*
X66607144Y81435712D01*
D10*
X66321428Y81150000D02*
X66464284Y81364288D01*
D10*
X66250000Y80935712D02*
X66321428Y81150000D01*
D10*
X66250000Y80650000D02*
X66250000Y80935712D01*
D10*
X66321428Y80507144D02*
X66250000Y80650000D01*
D10*
X67392856Y81292856D02*
X67321432Y81150000D01*
D10*
X67535712Y81435712D02*
X67392856Y81292856D01*
D10*
X67750000Y81435712D02*
X67535712Y81435712D01*
D10*
X67821432Y81364288D02*
X67750000Y81435712D01*
D10*
X67821432Y81150000D02*
X67821432Y81364288D01*
D10*
X67678568Y80721432D02*
X67821432Y81150000D01*
D10*
X67678568Y80578568D02*
X67678568Y80721432D01*
D10*
X67821432Y80435712D02*
X67678568Y80578568D01*
D10*
X67750000Y81364288D02*
X67678568Y81435712D01*
D10*
X67750000Y81150000D02*
X67750000Y81364288D01*
D10*
X67607144Y80721432D02*
X67750000Y81150000D01*
D10*
X67607144Y80578568D02*
X67607144Y80721432D01*
D10*
X67678568Y80507144D02*
X67607144Y80578568D01*
D10*
X67821432Y80435712D02*
X67678568Y80507144D01*
D10*
X67964288Y80435712D02*
X67821432Y80435712D01*
D10*
X68107144Y80507144D02*
X67964288Y80435712D01*
D10*
X68250000Y80650000D02*
X68107144Y80507144D01*
D10*
X68392856Y80935712D02*
X68250000Y80650000D01*
D10*
X68321424Y80435712D02*
X68607144Y81435712D01*
D10*
X68250000Y80221432D02*
X68321424Y80435712D01*
D10*
X68107144Y80007144D02*
X68250000Y80221432D01*
D10*
X67892856Y79935712D02*
X68107144Y80007144D01*
D10*
X67678568Y79935712D02*
X67892856Y79935712D01*
D10*
X67535712Y80007144D02*
X67678568Y79935712D01*
D10*
X67464288Y80078568D02*
X67535712Y80007144D01*
D10*
X67464288Y80150000D02*
X67464288Y80078568D01*
D10*
X67535712Y80221432D02*
X67464288Y80150000D01*
D10*
X67607144Y80150000D02*
X67535712Y80221432D01*
D10*
X67535712Y80078568D02*
X67607144Y80150000D01*
D10*
X68250000Y80435712D02*
X68535712Y81435712D01*
D10*
X68178568Y80221432D02*
X68250000Y80435712D01*
D10*
X68035712Y80007144D02*
X68178568Y80221432D01*
D10*
X67892856Y79935712D02*
X68035712Y80007144D01*
D10*
X68892856Y81292856D02*
X68821424Y81150000D01*
D10*
X69035712Y81435712D02*
X68892856Y81292856D01*
D10*
X69250000Y81435712D02*
X69035712Y81435712D01*
D10*
X69321424Y81364288D02*
X69250000Y81435712D01*
D10*
X69321424Y81221432D02*
X69321424Y81364288D01*
D10*
X69250000Y80935712D02*
X69321424Y81221432D01*
D10*
X68964288Y79935712D02*
X69250000Y80935712D01*
D10*
X69250000Y81364288D02*
X69178568Y81435712D01*
D10*
X69250000Y81221432D02*
X69250000Y81364288D01*
D10*
X69178568Y80935712D02*
X69250000Y81221432D01*
D10*
X68892856Y79935712D02*
X69178568Y80935712D01*
D10*
X69321424Y81150000D02*
X69250000Y80935712D01*
D10*
X69464288Y81364288D02*
X69321424Y81150000D01*
D10*
X69607144Y81435712D02*
X69464288Y81364288D01*
D10*
X69750000Y81435712D02*
X69607144Y81435712D01*
D10*
X69892856Y81364288D02*
X69750000Y81435712D01*
D10*
X69964288Y81292856D02*
X69892856Y81364288D01*
D10*
X70035712Y81150000D02*
X69964288Y81292856D01*
D10*
X70035712Y80935712D02*
X70035712Y81150000D01*
D10*
X69964288Y80721432D02*
X70035712Y80935712D01*
D10*
X69821424Y80507144D02*
X69964288Y80721432D01*
D10*
X69607144Y80435712D02*
X69821424Y80507144D01*
D10*
X69464288Y80435712D02*
X69607144Y80435712D01*
D10*
X69321424Y80507144D02*
X69464288Y80435712D01*
D10*
X69250000Y80721432D02*
X69321424Y80507144D01*
D10*
X69250000Y80935712D02*
X69250000Y80721432D01*
D10*
X69964288Y81221432D02*
X69892856Y81364288D01*
D10*
X69964288Y80935712D02*
X69964288Y81221432D01*
D10*
X69892856Y80721432D02*
X69964288Y80935712D01*
D10*
X69750000Y80507144D02*
X69892856Y80721432D01*
D10*
X69607144Y80435712D02*
X69750000Y80507144D01*
D10*
X69178568Y79935712D02*
X68678568Y79935712D01*
D10*
X71250000Y80935712D02*
X71392856Y81435712D01*
D10*
X71178568Y80650000D02*
X71250000Y80935712D01*
D10*
X71178568Y80507144D02*
X71178568Y80650000D01*
D10*
X71250000Y80435712D02*
X71178568Y80507144D01*
D10*
X71464288Y80435712D02*
X71250000Y80435712D01*
D10*
X71607144Y80578568D02*
X71464288Y80435712D01*
D10*
X71678568Y80721432D02*
X71607144Y80578568D01*
D10*
X71321424Y80935712D02*
X71464288Y81435712D01*
D10*
X71250000Y80650000D02*
X71321424Y80935712D01*
D10*
X71250000Y80507144D02*
X71250000Y80650000D01*
D10*
X71321424Y80435712D02*
X71250000Y80507144D01*
D10*
X71250000Y81150000D02*
X71250000Y80935712D01*
D10*
X71178568Y81364288D02*
X71250000Y81150000D01*
D10*
X71035712Y81435712D02*
X71178568Y81364288D01*
D10*
X70892856Y81435712D02*
X71035712Y81435712D01*
D10*
X70678568Y81364288D02*
X70892856Y81435712D01*
D10*
X70535712Y81150000D02*
X70678568Y81364288D01*
D10*
X70464288Y80935712D02*
X70535712Y81150000D01*
D10*
X70464288Y80721432D02*
X70464288Y80935712D01*
D10*
X70535712Y80578568D02*
X70464288Y80721432D01*
D10*
X70607144Y80507144D02*
X70535712Y80578568D01*
D10*
X70750000Y80435712D02*
X70607144Y80507144D01*
D10*
X70892856Y80435712D02*
X70750000Y80435712D01*
D10*
X71035712Y80507144D02*
X70892856Y80435712D01*
D10*
X71178568Y80721432D02*
X71035712Y80507144D01*
D10*
X71250000Y80935712D02*
X71178568Y80721432D01*
D10*
X70750000Y81364288D02*
X70892856Y81435712D01*
D10*
X70607144Y81150000D02*
X70750000Y81364288D01*
D10*
X70535712Y80935712D02*
X70607144Y81150000D01*
D10*
X70535712Y80650000D02*
X70535712Y80935712D01*
D10*
X70607144Y80507144D02*
X70535712Y80650000D01*
D10*
X72750000Y80935712D02*
X73035712Y81935712D01*
D10*
X72678568Y80650000D02*
X72750000Y80935712D01*
D10*
X72678568Y80507144D02*
X72678568Y80650000D01*
D10*
X72750000Y80435712D02*
X72678568Y80507144D01*
D10*
X72964288Y80435712D02*
X72750000Y80435712D01*
D10*
X73107144Y80578568D02*
X72964288Y80435712D01*
D10*
X73178568Y80721432D02*
X73107144Y80578568D01*
D10*
X72821424Y80935712D02*
X73107144Y81935712D01*
D10*
X72750000Y80650000D02*
X72821424Y80935712D01*
D10*
X72750000Y80507144D02*
X72750000Y80650000D01*
D10*
X72821424Y80435712D02*
X72750000Y80507144D01*
D10*
X72750000Y81150000D02*
X72750000Y80935712D01*
D10*
X72678568Y81364288D02*
X72750000Y81150000D01*
D10*
X72535712Y81435712D02*
X72678568Y81364288D01*
D10*
X72392856Y81435712D02*
X72535712Y81435712D01*
D10*
X72178568Y81364288D02*
X72392856Y81435712D01*
D10*
X72035712Y81150000D02*
X72178568Y81364288D01*
D10*
X71964288Y80935712D02*
X72035712Y81150000D01*
D10*
X71964288Y80721432D02*
X71964288Y80935712D01*
D10*
X72035712Y80578568D02*
X71964288Y80721432D01*
D10*
X72107144Y80507144D02*
X72035712Y80578568D01*
D10*
X72250000Y80435712D02*
X72107144Y80507144D01*
D10*
X72392856Y80435712D02*
X72250000Y80435712D01*
D10*
X72535712Y80507144D02*
X72392856Y80435712D01*
D10*
X72678568Y80721432D02*
X72535712Y80507144D01*
D10*
X72750000Y80935712D02*
X72678568Y80721432D01*
D10*
X72250000Y81364288D02*
X72392856Y81435712D01*
D10*
X72107144Y81150000D02*
X72250000Y81364288D01*
D10*
X72035712Y80935712D02*
X72107144Y81150000D01*
D10*
X72035712Y80650000D02*
X72035712Y80935712D01*
D10*
X72107144Y80507144D02*
X72035712Y80650000D01*
D10*
X73107144Y81935712D02*
X72821424Y81935712D01*
D10*
X59964284Y78260712D02*
X60392856Y79760712D01*
D10*
X60035716Y78260712D02*
X60464284Y79760712D01*
D10*
X60678572Y79760712D02*
X60178572Y79760712D01*
D10*
X60821428Y78260712D02*
X59750000Y78260712D01*
D10*
X60964284Y78689288D02*
X60821428Y78260712D01*
D10*
X60750000Y78260712D02*
X60964284Y78689288D01*
D10*
X61321428Y79117856D02*
X61250000Y78975000D01*
D10*
X61464284Y79260712D02*
X61321428Y79117856D01*
D10*
X61678572Y79260712D02*
X61464284Y79260712D01*
D10*
X61750000Y79189288D02*
X61678572Y79260712D01*
D10*
X61750000Y78975000D02*
X61750000Y79189288D01*
D10*
X61607144Y78546432D02*
X61750000Y78975000D01*
D10*
X61607144Y78403568D02*
X61607144Y78546432D01*
D10*
X61750000Y78260712D02*
X61607144Y78403568D01*
D10*
X61678572Y79189288D02*
X61607144Y79260712D01*
D10*
X61678572Y78975000D02*
X61678572Y79189288D01*
D10*
X61535716Y78546432D02*
X61678572Y78975000D01*
D10*
X61535716Y78403568D02*
X61535716Y78546432D01*
D10*
X61607144Y78332144D02*
X61535716Y78403568D01*
D10*
X61750000Y78260712D02*
X61607144Y78332144D01*
D10*
X61892856Y78260712D02*
X61750000Y78260712D01*
D10*
X62035716Y78332144D02*
X61892856Y78260712D01*
D10*
X62178572Y78475000D02*
X62035716Y78332144D01*
D10*
X62321428Y78760712D02*
X62178572Y78475000D01*
D10*
X62321428Y78760712D02*
X62464284Y79260712D01*
D10*
X62250000Y78475000D02*
X62321428Y78760712D01*
D10*
X62250000Y78332144D02*
X62250000Y78475000D01*
D10*
X62321428Y78260712D02*
X62250000Y78332144D01*
D10*
X62535716Y78260712D02*
X62321428Y78260712D01*
D10*
X62678572Y78403568D02*
X62535716Y78260712D01*
D10*
X62750000Y78546432D02*
X62678572Y78403568D01*
D10*
X62392856Y78760712D02*
X62535716Y79260712D01*
D10*
X62321428Y78475000D02*
X62392856Y78760712D01*
D10*
X62321428Y78332144D02*
X62321428Y78475000D01*
D10*
X62392856Y78260712D02*
X62321428Y78332144D01*
D10*
X62964284Y78260712D02*
X63392856Y79760712D01*
D10*
X63035716Y78260712D02*
X63464284Y79760712D01*
D10*
X63892856Y79117856D02*
X63964284Y79189288D01*
D10*
X63964284Y79046432D02*
X63892856Y79117856D01*
D10*
X64035712Y79117856D02*
X63964284Y79046432D01*
D10*
X64035712Y79189288D02*
X64035712Y79117856D01*
D10*
X63964284Y79260712D02*
X64035712Y79189288D01*
D10*
X63892856Y79260712D02*
X63964284Y79260712D01*
D10*
X63750000Y79189288D02*
X63892856Y79260712D01*
D10*
X63464284Y78903568D02*
X63750000Y79189288D01*
D10*
X63321428Y78832144D02*
X63464284Y78903568D01*
D10*
X63178572Y78832144D02*
X63321428Y78832144D01*
D10*
X63464284Y78760712D02*
X63321428Y78832144D01*
D10*
X63607144Y78332144D02*
X63464284Y78760712D01*
D10*
X63678572Y78260712D02*
X63607144Y78332144D01*
D10*
X63392856Y78760712D02*
X63321428Y78832144D01*
D10*
X63535716Y78332144D02*
X63392856Y78760712D01*
D10*
X63607144Y78260712D02*
X63535716Y78332144D01*
D10*
X63750000Y78260712D02*
X63607144Y78260712D01*
D10*
X63892856Y78332144D02*
X63750000Y78260712D01*
D10*
X64035712Y78546432D02*
X63892856Y78332144D01*
D10*
X63464284Y79760712D02*
X63178572Y79760712D01*
D10*
X65250000Y78760712D02*
X65392856Y79260712D01*
D10*
X65178572Y78475000D02*
X65250000Y78760712D01*
D10*
X65178572Y78332144D02*
X65178572Y78475000D01*
D10*
X65250000Y78260712D02*
X65178572Y78332144D01*
D10*
X65464284Y78260712D02*
X65250000Y78260712D01*
D10*
X65607144Y78403568D02*
X65464284Y78260712D01*
D10*
X65678572Y78546432D02*
X65607144Y78403568D01*
D10*
X65321428Y78760712D02*
X65464284Y79260712D01*
D10*
X65250000Y78475000D02*
X65321428Y78760712D01*
D10*
X65250000Y78332144D02*
X65250000Y78475000D01*
D10*
X65321428Y78260712D02*
X65250000Y78332144D01*
D10*
X65250000Y78975000D02*
X65250000Y78760712D01*
D10*
X65178572Y79189288D02*
X65250000Y78975000D01*
D10*
X65035712Y79260712D02*
X65178572Y79189288D01*
D10*
X64892856Y79260712D02*
X65035712Y79260712D01*
D10*
X64678572Y79189288D02*
X64892856Y79260712D01*
D10*
X64535712Y78975000D02*
X64678572Y79189288D01*
D10*
X64464284Y78760712D02*
X64535712Y78975000D01*
D10*
X64464284Y78546432D02*
X64464284Y78760712D01*
D10*
X64535712Y78403568D02*
X64464284Y78546432D01*
D10*
X64607144Y78332144D02*
X64535712Y78403568D01*
D10*
X64750000Y78260712D02*
X64607144Y78332144D01*
D10*
X64892856Y78260712D02*
X64750000Y78260712D01*
D10*
X65035712Y78332144D02*
X64892856Y78260712D01*
D10*
X65178572Y78546432D02*
X65035712Y78332144D01*
D10*
X65250000Y78760712D02*
X65178572Y78546432D01*
D10*
X64750000Y79189288D02*
X64892856Y79260712D01*
D10*
X64607144Y78975000D02*
X64750000Y79189288D01*
D10*
X64535712Y78760712D02*
X64607144Y78975000D01*
D10*
X64535712Y78475000D02*
X64535712Y78760712D01*
D10*
X64607144Y78332144D02*
X64535712Y78475000D01*
D10*
X66750000Y79046432D02*
X66750000Y79117856D01*
D10*
X66821428Y79046432D02*
X66750000Y79046432D01*
D10*
X66821428Y79117856D02*
X66821428Y79046432D01*
D10*
X66750000Y79189288D02*
X66821428Y79117856D01*
D10*
X66535712Y79260712D02*
X66750000Y79189288D01*
D10*
X66321428Y79260712D02*
X66535712Y79260712D01*
D10*
X66107144Y79189288D02*
X66321428Y79260712D01*
D10*
X66035712Y79117856D02*
X66107144Y79189288D01*
D10*
X66035712Y78975000D02*
X66035712Y79117856D01*
D10*
X66107144Y78903568D02*
X66035712Y78975000D01*
D10*
X66607144Y78617856D02*
X66107144Y78903568D01*
D10*
X66678572Y78546432D02*
X66607144Y78617856D01*
D10*
X66107144Y78975000D02*
X66035712Y79046432D01*
D10*
X66607144Y78689288D02*
X66107144Y78975000D01*
D10*
X66678572Y78617856D02*
X66607144Y78689288D01*
D10*
X66678572Y78403568D02*
X66678572Y78617856D01*
D10*
X66607144Y78332144D02*
X66678572Y78403568D01*
D10*
X66392856Y78260712D02*
X66607144Y78332144D01*
D10*
X66178572Y78260712D02*
X66392856Y78260712D01*
D10*
X65964284Y78332144D02*
X66178572Y78260712D01*
D10*
X65892856Y78403568D02*
X65964284Y78332144D01*
D10*
X65892856Y78475000D02*
X65892856Y78403568D01*
D10*
X65964284Y78475000D02*
X65892856Y78475000D01*
D10*
X65964284Y78403568D02*
X65964284Y78475000D01*
D10*
X67750000Y78260712D02*
X68178568Y79760712D01*
D10*
X67821432Y78260712D02*
X68250000Y79760712D01*
D10*
X67964288Y78832144D02*
X69178568Y79760712D01*
D10*
X68750000Y78260712D02*
X68464288Y79117856D01*
D10*
X68678568Y78260712D02*
X68392856Y79117856D01*
D10*
X68464288Y79760712D02*
X67964288Y79760712D01*
D10*
X69321424Y79760712D02*
X68892856Y79760712D01*
D10*
X68035712Y78260712D02*
X67535712Y78260712D01*
D10*
X68892856Y78260712D02*
X68464288Y78260712D01*
D10*
X69464288Y78332144D02*
X69535712Y78403568D01*
D10*
X69535712Y78260712D02*
X69464288Y78332144D01*
D10*
X69607144Y78332144D02*
X69535712Y78260712D01*
D10*
X69535712Y78403568D02*
X69607144Y78332144D01*
D10*
X60321428Y77228568D02*
X60250000Y77300000D01*
D10*
X60250000Y77157144D02*
X60321428Y77228568D01*
D10*
X60178572Y77228568D02*
X60250000Y77157144D01*
D10*
X60178572Y77300000D02*
X60178572Y77228568D01*
D10*
X60250000Y77442856D02*
X60178572Y77300000D01*
D10*
X60321428Y77514288D02*
X60250000Y77442856D01*
D10*
X60535716Y77585712D02*
X60321428Y77514288D01*
D10*
X60750000Y77585712D02*
X60535716Y77585712D01*
D10*
X60964284Y77514288D02*
X60750000Y77585712D01*
D10*
X61035716Y77371432D02*
X60964284Y77514288D01*
D10*
X61035716Y77228568D02*
X61035716Y77371432D01*
D10*
X60964284Y77085712D02*
X61035716Y77228568D01*
D10*
X60821428Y76942856D02*
X60964284Y77085712D01*
D10*
X60607144Y76800000D02*
X60821428Y76942856D01*
D10*
X60321428Y76657144D02*
X60607144Y76800000D01*
D10*
X60107144Y76514288D02*
X60321428Y76657144D01*
D10*
X59964284Y76371432D02*
X60107144Y76514288D01*
D10*
X59821428Y76085712D02*
X59964284Y76371432D01*
D10*
X60892856Y77514288D02*
X60750000Y77585712D01*
D10*
X60964284Y77371432D02*
X60892856Y77514288D01*
D10*
X60964284Y77228568D02*
X60964284Y77371432D01*
D10*
X60892856Y77085712D02*
X60964284Y77228568D01*
D10*
X60750000Y76942856D02*
X60892856Y77085712D01*
D10*
X60321428Y76657144D02*
X60750000Y76942856D01*
D10*
X59964284Y76300000D02*
X59892856Y76228568D01*
D10*
X60107144Y76300000D02*
X59964284Y76300000D01*
D10*
X60464284Y76157144D02*
X60107144Y76300000D01*
D10*
X60678572Y76157144D02*
X60464284Y76157144D01*
D10*
X60821428Y76228568D02*
X60678572Y76157144D01*
D10*
X60892856Y76371432D02*
X60821428Y76228568D01*
D10*
X60464284Y76085712D02*
X60107144Y76300000D01*
D10*
X60678572Y76085712D02*
X60464284Y76085712D01*
D10*
X60821428Y76157144D02*
X60678572Y76085712D01*
D10*
X60892856Y76371432D02*
X60821428Y76157144D01*
D10*
X61892856Y77514288D02*
X62107144Y77585712D01*
D10*
X61750000Y77371432D02*
X61892856Y77514288D01*
D10*
X61607144Y77157144D02*
X61750000Y77371432D01*
D10*
X61535716Y76942856D02*
X61607144Y77157144D01*
D10*
X61464284Y76657144D02*
X61535716Y76942856D01*
D10*
X61464284Y76442856D02*
X61464284Y76657144D01*
D10*
X61535716Y76228568D02*
X61464284Y76442856D01*
D10*
X61607144Y76157144D02*
X61535716Y76228568D01*
D10*
X61750000Y76085712D02*
X61607144Y76157144D01*
D10*
X61892856Y76085712D02*
X61750000Y76085712D01*
D10*
X62107144Y76157144D02*
X61892856Y76085712D01*
D10*
X62250000Y76300000D02*
X62107144Y76157144D01*
D10*
X62392856Y76514288D02*
X62250000Y76300000D01*
D10*
X62464284Y76728568D02*
X62392856Y76514288D01*
D10*
X62535716Y77014288D02*
X62464284Y76728568D01*
D10*
X62535716Y77228568D02*
X62535716Y77014288D01*
D10*
X62464284Y77442856D02*
X62535716Y77228568D01*
D10*
X62392856Y77514288D02*
X62464284Y77442856D01*
D10*
X62250000Y77585712D02*
X62392856Y77514288D01*
D10*
X62107144Y77585712D02*
X62250000Y77585712D01*
D10*
X61964284Y77514288D02*
X62107144Y77585712D01*
D10*
X61821428Y77371432D02*
X61964284Y77514288D01*
D10*
X61678572Y77157144D02*
X61821428Y77371432D01*
D10*
X61607144Y76942856D02*
X61678572Y77157144D01*
D10*
X61535716Y76657144D02*
X61607144Y76942856D01*
D10*
X61535716Y76442856D02*
X61535716Y76657144D01*
D10*
X61607144Y76228568D02*
X61535716Y76442856D01*
D10*
X61750000Y76085712D02*
X61607144Y76228568D01*
D10*
X62035716Y76157144D02*
X61892856Y76085712D01*
D10*
X62178572Y76300000D02*
X62035716Y76157144D01*
D10*
X62321428Y76514288D02*
X62178572Y76300000D01*
D10*
X62392856Y76728568D02*
X62321428Y76514288D01*
D10*
X62464284Y77014288D02*
X62392856Y76728568D01*
D10*
X62464284Y77228568D02*
X62464284Y77014288D01*
D10*
X62392856Y77442856D02*
X62464284Y77228568D01*
D10*
X62250000Y77585712D02*
X62392856Y77442856D01*
D10*
X63321428Y77228568D02*
X63250000Y77300000D01*
D10*
X63250000Y77157144D02*
X63321428Y77228568D01*
D10*
X63178572Y77228568D02*
X63250000Y77157144D01*
D10*
X63178572Y77300000D02*
X63178572Y77228568D01*
D10*
X63250000Y77442856D02*
X63178572Y77300000D01*
D10*
X63321428Y77514288D02*
X63250000Y77442856D01*
D10*
X63535716Y77585712D02*
X63321428Y77514288D01*
D10*
X63750000Y77585712D02*
X63535716Y77585712D01*
D10*
X63964284Y77514288D02*
X63750000Y77585712D01*
D10*
X64035712Y77371432D02*
X63964284Y77514288D01*
D10*
X64035712Y77228568D02*
X64035712Y77371432D01*
D10*
X63964284Y77085712D02*
X64035712Y77228568D01*
D10*
X63821428Y76942856D02*
X63964284Y77085712D01*
D10*
X63607144Y76800000D02*
X63821428Y76942856D01*
D10*
X63321428Y76657144D02*
X63607144Y76800000D01*
D10*
X63107144Y76514288D02*
X63321428Y76657144D01*
D10*
X62964284Y76371432D02*
X63107144Y76514288D01*
D10*
X62821428Y76085712D02*
X62964284Y76371432D01*
D10*
X63892856Y77514288D02*
X63750000Y77585712D01*
D10*
X63964284Y77371432D02*
X63892856Y77514288D01*
D10*
X63964284Y77228568D02*
X63964284Y77371432D01*
D10*
X63892856Y77085712D02*
X63964284Y77228568D01*
D10*
X63750000Y76942856D02*
X63892856Y77085712D01*
D10*
X63321428Y76657144D02*
X63750000Y76942856D01*
D10*
X62964284Y76300000D02*
X62892856Y76228568D01*
D10*
X63107144Y76300000D02*
X62964284Y76300000D01*
D10*
X63464284Y76157144D02*
X63107144Y76300000D01*
D10*
X63678572Y76157144D02*
X63464284Y76157144D01*
D10*
X63821428Y76228568D02*
X63678572Y76157144D01*
D10*
X63892856Y76371432D02*
X63821428Y76228568D01*
D10*
X63464284Y76085712D02*
X63107144Y76300000D01*
D10*
X63678572Y76085712D02*
X63464284Y76085712D01*
D10*
X63821428Y76157144D02*
X63678572Y76085712D01*
D10*
X63892856Y76371432D02*
X63821428Y76157144D01*
D10*
X64821428Y77228568D02*
X64750000Y77300000D01*
D10*
X64750000Y77157144D02*
X64821428Y77228568D01*
D10*
X64678572Y77228568D02*
X64750000Y77157144D01*
D10*
X64678572Y77300000D02*
X64678572Y77228568D01*
D10*
X64750000Y77442856D02*
X64678572Y77300000D01*
D10*
X64821428Y77514288D02*
X64750000Y77442856D01*
D10*
X65035712Y77585712D02*
X64821428Y77514288D01*
D10*
X65250000Y77585712D02*
X65035712Y77585712D01*
D10*
X65464284Y77514288D02*
X65250000Y77585712D01*
D10*
X65535712Y77371432D02*
X65464284Y77514288D01*
D10*
X65535712Y77228568D02*
X65535712Y77371432D01*
D10*
X65464284Y77085712D02*
X65535712Y77228568D01*
D10*
X65321428Y76942856D02*
X65464284Y77085712D01*
D10*
X65107144Y76800000D02*
X65321428Y76942856D01*
D10*
X64821428Y76657144D02*
X65107144Y76800000D01*
D10*
X64607144Y76514288D02*
X64821428Y76657144D01*
D10*
X64464284Y76371432D02*
X64607144Y76514288D01*
D10*
X64321428Y76085712D02*
X64464284Y76371432D01*
D10*
X65392856Y77514288D02*
X65250000Y77585712D01*
D10*
X65464284Y77371432D02*
X65392856Y77514288D01*
D10*
X65464284Y77228568D02*
X65464284Y77371432D01*
D10*
X65392856Y77085712D02*
X65464284Y77228568D01*
D10*
X65250000Y76942856D02*
X65392856Y77085712D01*
D10*
X64821428Y76657144D02*
X65250000Y76942856D01*
D10*
X64464284Y76300000D02*
X64392856Y76228568D01*
D10*
X64607144Y76300000D02*
X64464284Y76300000D01*
D10*
X64964284Y76157144D02*
X64607144Y76300000D01*
D10*
X65178572Y76157144D02*
X64964284Y76157144D01*
D10*
X65321428Y76228568D02*
X65178572Y76157144D01*
D10*
X65392856Y76371432D02*
X65321428Y76228568D01*
D10*
X64964284Y76085712D02*
X64607144Y76300000D01*
D10*
X65178572Y76085712D02*
X64964284Y76085712D01*
D10*
X65321428Y76157144D02*
X65178572Y76085712D01*
D10*
X65392856Y76371432D02*
X65321428Y76157144D01*
D11*
X11348334Y85985000D02*
X25318334Y85985000D01*
D11*
X11348334Y72015000D02*
X11348334Y85985000D01*
D11*
X25318334Y72015000D02*
X11348334Y72015000D01*
D11*
X25318334Y85985000D02*
X25318334Y72015000D01*
D11*
X43015000Y85985000D02*
X56985000Y85985000D01*
D11*
X43015000Y72015000D02*
X43015000Y85985000D01*
D11*
X56985000Y72015000D02*
X43015000Y72015000D01*
D11*
X56985000Y85985000D02*
X56985000Y72015000D01*
D11*
X74681666Y85985000D02*
X88651666Y85985000D01*
D11*
X74681666Y72015000D02*
X74681666Y85985000D01*
D11*
X88651666Y72015000D02*
X74681666Y72015000D01*
D11*
X88651666Y85985000D02*
X88651666Y72015000D01*
D10*
X59964284Y11435714D02*
X60392856Y12935714D01*
D10*
X60035716Y11435714D02*
X60464284Y12935714D01*
D10*
X60178572Y12007143D02*
X61392856Y12935714D01*
D10*
X60964284Y11435714D02*
X60678572Y12292857D01*
D10*
X60892856Y11435714D02*
X60607144Y12292857D01*
D10*
X60678572Y12935714D02*
X60178572Y12935714D01*
D10*
X61535716Y12935714D02*
X61107144Y12935714D01*
D10*
X60250000Y11435714D02*
X59750000Y11435714D01*
D10*
X61107144Y11435714D02*
X60678572Y11435714D01*
D10*
X61607144Y11435714D02*
X62035716Y12935714D01*
D10*
X61678572Y11435714D02*
X62107144Y12935714D01*
D10*
X62321428Y12935714D02*
X61821428Y12935714D01*
D10*
X61892856Y11435714D02*
X61392856Y11435714D01*
D10*
X63750000Y12792857D02*
X63678572Y12792857D01*
D10*
X63821428Y12935714D02*
X63750000Y12792857D01*
D10*
X63750000Y12507143D02*
X63821428Y12935714D01*
D10*
X63750000Y12650000D02*
X63750000Y12507143D01*
D10*
X63678572Y12792857D02*
X63750000Y12650000D01*
D10*
X63607144Y12864286D02*
X63678572Y12792857D01*
D10*
X63392856Y12935714D02*
X63607144Y12864286D01*
D10*
X63107144Y12935714D02*
X63392856Y12935714D01*
D10*
X62892856Y12864286D02*
X63107144Y12935714D01*
D10*
X62750000Y12721429D02*
X62892856Y12864286D01*
D10*
X62750000Y12578571D02*
X62750000Y12721429D01*
D10*
X62821428Y12435714D02*
X62750000Y12578571D01*
D10*
X62892856Y12364286D02*
X62821428Y12435714D01*
D10*
X63392856Y12078571D02*
X62892856Y12364286D01*
D10*
X63535716Y11935714D02*
X63392856Y12078571D01*
D10*
X62892856Y12435714D02*
X62750000Y12578571D01*
D10*
X63392856Y12150000D02*
X62892856Y12435714D01*
D10*
X63464284Y12078571D02*
X63392856Y12150000D01*
D10*
X63535716Y11935714D02*
X63464284Y12078571D01*
D10*
X63535716Y11721429D02*
X63535716Y11935714D01*
D10*
X63464284Y11578571D02*
X63535716Y11721429D01*
D10*
X63392856Y11507143D02*
X63464284Y11578571D01*
D10*
X63178572Y11435714D02*
X63392856Y11507143D01*
D10*
X62892856Y11435714D02*
X63178572Y11435714D01*
D10*
X62678572Y11507143D02*
X62892856Y11435714D01*
D10*
X62607144Y11578571D02*
X62678572Y11507143D01*
D10*
X62535716Y11721429D02*
X62607144Y11578571D01*
D10*
X62535716Y11864286D02*
X62535716Y11721429D01*
D10*
X62464284Y11435714D02*
X62535716Y11864286D01*
D10*
X62535716Y11578571D02*
X62464284Y11435714D01*
D10*
X62607144Y11578571D02*
X62535716Y11578571D01*
D10*
X64678572Y11435714D02*
X65107144Y12935714D01*
D10*
X64750000Y11435714D02*
X65178572Y12935714D01*
D10*
X65607144Y12292857D02*
X65678572Y12364286D01*
D10*
X65678572Y12221429D02*
X65607144Y12292857D01*
D10*
X65750000Y12292857D02*
X65678572Y12221429D01*
D10*
X65750000Y12364286D02*
X65750000Y12292857D01*
D10*
X65678572Y12435714D02*
X65750000Y12364286D01*
D10*
X65607144Y12435714D02*
X65678572Y12435714D01*
D10*
X65464284Y12364286D02*
X65607144Y12435714D01*
D10*
X65178572Y12078571D02*
X65464284Y12364286D01*
D10*
X65035712Y12007143D02*
X65178572Y12078571D01*
D10*
X64892856Y12007143D02*
X65035712Y12007143D01*
D10*
X65178572Y11935714D02*
X65035712Y12007143D01*
D10*
X65321428Y11507143D02*
X65178572Y11935714D01*
D10*
X65392856Y11435714D02*
X65321428Y11507143D01*
D10*
X65107144Y11935714D02*
X65035712Y12007143D01*
D10*
X65250000Y11507143D02*
X65107144Y11935714D01*
D10*
X65321428Y11435714D02*
X65250000Y11507143D01*
D10*
X65464284Y11435714D02*
X65321428Y11435714D01*
D10*
X65607144Y11507143D02*
X65464284Y11435714D01*
D10*
X65750000Y11721429D02*
X65607144Y11507143D01*
D10*
X65178572Y12935714D02*
X64892856Y12935714D01*
D10*
X66535712Y11864286D02*
X66250000Y11792857D01*
D10*
X66750000Y11935714D02*
X66535712Y11864286D01*
D10*
X66964284Y12078571D02*
X66750000Y11935714D01*
D10*
X67035712Y12221429D02*
X66964284Y12078571D01*
D10*
X66964284Y12364286D02*
X67035712Y12221429D01*
D10*
X66821428Y12435714D02*
X66964284Y12364286D01*
D10*
X66607144Y12435714D02*
X66821428Y12435714D01*
D10*
X66392856Y12364286D02*
X66607144Y12435714D01*
D10*
X66250000Y12150000D02*
X66392856Y12364286D01*
D10*
X66178572Y11935714D02*
X66250000Y12150000D01*
D10*
X66178572Y11721429D02*
X66178572Y11935714D01*
D10*
X66250000Y11578571D02*
X66178572Y11721429D01*
D10*
X66321428Y11507143D02*
X66250000Y11578571D01*
D10*
X66464284Y11435714D02*
X66321428Y11507143D01*
D10*
X66607144Y11435714D02*
X66464284Y11435714D01*
D10*
X66821428Y11507143D02*
X66607144Y11435714D01*
D10*
X66964284Y11650000D02*
X66821428Y11507143D01*
D10*
X66464284Y12364286D02*
X66607144Y12435714D01*
D10*
X66321428Y12150000D02*
X66464284Y12364286D01*
D10*
X66250000Y11935714D02*
X66321428Y12150000D01*
D10*
X66250000Y11650000D02*
X66250000Y11935714D01*
D10*
X66321428Y11507143D02*
X66250000Y11650000D01*
D10*
X67392856Y12292857D02*
X67321432Y12150000D01*
D10*
X67535712Y12435714D02*
X67392856Y12292857D01*
D10*
X67750000Y12435714D02*
X67535712Y12435714D01*
D10*
X67821432Y12364286D02*
X67750000Y12435714D01*
D10*
X67821432Y12150000D02*
X67821432Y12364286D01*
D10*
X67678568Y11721429D02*
X67821432Y12150000D01*
D10*
X67678568Y11578571D02*
X67678568Y11721429D01*
D10*
X67821432Y11435714D02*
X67678568Y11578571D01*
D10*
X67750000Y12364286D02*
X67678568Y12435714D01*
D10*
X67750000Y12150000D02*
X67750000Y12364286D01*
D10*
X67607144Y11721429D02*
X67750000Y12150000D01*
D10*
X67607144Y11578571D02*
X67607144Y11721429D01*
D10*
X67678568Y11507143D02*
X67607144Y11578571D01*
D10*
X67821432Y11435714D02*
X67678568Y11507143D01*
D10*
X67964288Y11435714D02*
X67821432Y11435714D01*
D10*
X68107144Y11507143D02*
X67964288Y11435714D01*
D10*
X68250000Y11650000D02*
X68107144Y11507143D01*
D10*
X68392856Y11935714D02*
X68250000Y11650000D01*
D10*
X68321424Y11435714D02*
X68607144Y12435714D01*
D10*
X68250000Y11221429D02*
X68321424Y11435714D01*
D10*
X68107144Y11007143D02*
X68250000Y11221429D01*
D10*
X67892856Y10935714D02*
X68107144Y11007143D01*
D10*
X67678568Y10935714D02*
X67892856Y10935714D01*
D10*
X67535712Y11007143D02*
X67678568Y10935714D01*
D10*
X67464288Y11078572D02*
X67535712Y11007143D01*
D10*
X67464288Y11150000D02*
X67464288Y11078572D01*
D10*
X67535712Y11221429D02*
X67464288Y11150000D01*
D10*
X67607144Y11150000D02*
X67535712Y11221429D01*
D10*
X67535712Y11078572D02*
X67607144Y11150000D01*
D10*
X68250000Y11435714D02*
X68535712Y12435714D01*
D10*
X68178568Y11221429D02*
X68250000Y11435714D01*
D10*
X68035712Y11007143D02*
X68178568Y11221429D01*
D10*
X67892856Y10935714D02*
X68035712Y11007143D01*
D10*
X68892856Y12292857D02*
X68821424Y12150000D01*
D10*
X69035712Y12435714D02*
X68892856Y12292857D01*
D10*
X69250000Y12435714D02*
X69035712Y12435714D01*
D10*
X69321424Y12364286D02*
X69250000Y12435714D01*
D10*
X69321424Y12221429D02*
X69321424Y12364286D01*
D10*
X69250000Y11935714D02*
X69321424Y12221429D01*
D10*
X68964288Y10935714D02*
X69250000Y11935714D01*
D10*
X69250000Y12364286D02*
X69178568Y12435714D01*
D10*
X69250000Y12221429D02*
X69250000Y12364286D01*
D10*
X69178568Y11935714D02*
X69250000Y12221429D01*
D10*
X68892856Y10935714D02*
X69178568Y11935714D01*
D10*
X69321424Y12150000D02*
X69250000Y11935714D01*
D10*
X69464288Y12364286D02*
X69321424Y12150000D01*
D10*
X69607144Y12435714D02*
X69464288Y12364286D01*
D10*
X69750000Y12435714D02*
X69607144Y12435714D01*
D10*
X69892856Y12364286D02*
X69750000Y12435714D01*
D10*
X69964288Y12292857D02*
X69892856Y12364286D01*
D10*
X70035712Y12150000D02*
X69964288Y12292857D01*
D10*
X70035712Y11935714D02*
X70035712Y12150000D01*
D10*
X69964288Y11721429D02*
X70035712Y11935714D01*
D10*
X69821424Y11507143D02*
X69964288Y11721429D01*
D10*
X69607144Y11435714D02*
X69821424Y11507143D01*
D10*
X69464288Y11435714D02*
X69607144Y11435714D01*
D10*
X69321424Y11507143D02*
X69464288Y11435714D01*
D10*
X69250000Y11721429D02*
X69321424Y11507143D01*
D10*
X69250000Y11935714D02*
X69250000Y11721429D01*
D10*
X69964288Y12221429D02*
X69892856Y12364286D01*
D10*
X69964288Y11935714D02*
X69964288Y12221429D01*
D10*
X69892856Y11721429D02*
X69964288Y11935714D01*
D10*
X69750000Y11507143D02*
X69892856Y11721429D01*
D10*
X69607144Y11435714D02*
X69750000Y11507143D01*
D10*
X69178568Y10935714D02*
X68678568Y10935714D01*
D10*
X71250000Y11935714D02*
X71392856Y12435714D01*
D10*
X71178568Y11650000D02*
X71250000Y11935714D01*
D10*
X71178568Y11507143D02*
X71178568Y11650000D01*
D10*
X71250000Y11435714D02*
X71178568Y11507143D01*
D10*
X71464288Y11435714D02*
X71250000Y11435714D01*
D10*
X71607144Y11578571D02*
X71464288Y11435714D01*
D10*
X71678568Y11721429D02*
X71607144Y11578571D01*
D10*
X71321424Y11935714D02*
X71464288Y12435714D01*
D10*
X71250000Y11650000D02*
X71321424Y11935714D01*
D10*
X71250000Y11507143D02*
X71250000Y11650000D01*
D10*
X71321424Y11435714D02*
X71250000Y11507143D01*
D10*
X71250000Y12150000D02*
X71250000Y11935714D01*
D10*
X71178568Y12364286D02*
X71250000Y12150000D01*
D10*
X71035712Y12435714D02*
X71178568Y12364286D01*
D10*
X70892856Y12435714D02*
X71035712Y12435714D01*
D10*
X70678568Y12364286D02*
X70892856Y12435714D01*
D10*
X70535712Y12150000D02*
X70678568Y12364286D01*
D10*
X70464288Y11935714D02*
X70535712Y12150000D01*
D10*
X70464288Y11721429D02*
X70464288Y11935714D01*
D10*
X70535712Y11578571D02*
X70464288Y11721429D01*
D10*
X70607144Y11507143D02*
X70535712Y11578571D01*
D10*
X70750000Y11435714D02*
X70607144Y11507143D01*
D10*
X70892856Y11435714D02*
X70750000Y11435714D01*
D10*
X71035712Y11507143D02*
X70892856Y11435714D01*
D10*
X71178568Y11721429D02*
X71035712Y11507143D01*
D10*
X71250000Y11935714D02*
X71178568Y11721429D01*
D10*
X70750000Y12364286D02*
X70892856Y12435714D01*
D10*
X70607144Y12150000D02*
X70750000Y12364286D01*
D10*
X70535712Y11935714D02*
X70607144Y12150000D01*
D10*
X70535712Y11650000D02*
X70535712Y11935714D01*
D10*
X70607144Y11507143D02*
X70535712Y11650000D01*
D10*
X72750000Y11935714D02*
X73035712Y12935714D01*
D10*
X72678568Y11650000D02*
X72750000Y11935714D01*
D10*
X72678568Y11507143D02*
X72678568Y11650000D01*
D10*
X72750000Y11435714D02*
X72678568Y11507143D01*
D10*
X72964288Y11435714D02*
X72750000Y11435714D01*
D10*
X73107144Y11578571D02*
X72964288Y11435714D01*
D10*
X73178568Y11721429D02*
X73107144Y11578571D01*
D10*
X72821424Y11935714D02*
X73107144Y12935714D01*
D10*
X72750000Y11650000D02*
X72821424Y11935714D01*
D10*
X72750000Y11507143D02*
X72750000Y11650000D01*
D10*
X72821424Y11435714D02*
X72750000Y11507143D01*
D10*
X72750000Y12150000D02*
X72750000Y11935714D01*
D10*
X72678568Y12364286D02*
X72750000Y12150000D01*
D10*
X72535712Y12435714D02*
X72678568Y12364286D01*
D10*
X72392856Y12435714D02*
X72535712Y12435714D01*
D10*
X72178568Y12364286D02*
X72392856Y12435714D01*
D10*
X72035712Y12150000D02*
X72178568Y12364286D01*
D10*
X71964288Y11935714D02*
X72035712Y12150000D01*
D10*
X71964288Y11721429D02*
X71964288Y11935714D01*
D10*
X72035712Y11578571D02*
X71964288Y11721429D01*
D10*
X72107144Y11507143D02*
X72035712Y11578571D01*
D10*
X72250000Y11435714D02*
X72107144Y11507143D01*
D10*
X72392856Y11435714D02*
X72250000Y11435714D01*
D10*
X72535712Y11507143D02*
X72392856Y11435714D01*
D10*
X72678568Y11721429D02*
X72535712Y11507143D01*
D10*
X72750000Y11935714D02*
X72678568Y11721429D01*
D10*
X72250000Y12364286D02*
X72392856Y12435714D01*
D10*
X72107144Y12150000D02*
X72250000Y12364286D01*
D10*
X72035712Y11935714D02*
X72107144Y12150000D01*
D10*
X72035712Y11650000D02*
X72035712Y11935714D01*
D10*
X72107144Y11507143D02*
X72035712Y11650000D01*
D10*
X73107144Y12935714D02*
X72821424Y12935714D01*
D10*
X59964284Y9260714D02*
X60392856Y10760714D01*
D10*
X60035716Y9260714D02*
X60464284Y10760714D01*
D10*
X60678572Y10760714D02*
X60178572Y10760714D01*
D10*
X60821428Y9260714D02*
X59750000Y9260714D01*
D10*
X60964284Y9689286D02*
X60821428Y9260714D01*
D10*
X60750000Y9260714D02*
X60964284Y9689286D01*
D10*
X61321428Y10117857D02*
X61250000Y9975000D01*
D10*
X61464284Y10260714D02*
X61321428Y10117857D01*
D10*
X61678572Y10260714D02*
X61464284Y10260714D01*
D10*
X61750000Y10189286D02*
X61678572Y10260714D01*
D10*
X61750000Y9975000D02*
X61750000Y10189286D01*
D10*
X61607144Y9546429D02*
X61750000Y9975000D01*
D10*
X61607144Y9403571D02*
X61607144Y9546429D01*
D10*
X61750000Y9260714D02*
X61607144Y9403571D01*
D10*
X61678572Y10189286D02*
X61607144Y10260714D01*
D10*
X61678572Y9975000D02*
X61678572Y10189286D01*
D10*
X61535716Y9546429D02*
X61678572Y9975000D01*
D10*
X61535716Y9403571D02*
X61535716Y9546429D01*
D10*
X61607144Y9332143D02*
X61535716Y9403571D01*
D10*
X61750000Y9260714D02*
X61607144Y9332143D01*
D10*
X61892856Y9260714D02*
X61750000Y9260714D01*
D10*
X62035716Y9332143D02*
X61892856Y9260714D01*
D10*
X62178572Y9475000D02*
X62035716Y9332143D01*
D10*
X62321428Y9760714D02*
X62178572Y9475000D01*
D10*
X62321428Y9760714D02*
X62464284Y10260714D01*
D10*
X62250000Y9475000D02*
X62321428Y9760714D01*
D10*
X62250000Y9332143D02*
X62250000Y9475000D01*
D10*
X62321428Y9260714D02*
X62250000Y9332143D01*
D10*
X62535716Y9260714D02*
X62321428Y9260714D01*
D10*
X62678572Y9403571D02*
X62535716Y9260714D01*
D10*
X62750000Y9546429D02*
X62678572Y9403571D01*
D10*
X62392856Y9760714D02*
X62535716Y10260714D01*
D10*
X62321428Y9475000D02*
X62392856Y9760714D01*
D10*
X62321428Y9332143D02*
X62321428Y9475000D01*
D10*
X62392856Y9260714D02*
X62321428Y9332143D01*
D10*
X62964284Y9260714D02*
X63392856Y10760714D01*
D10*
X63035716Y9260714D02*
X63464284Y10760714D01*
D10*
X63892856Y10117857D02*
X63964284Y10189286D01*
D10*
X63964284Y10046429D02*
X63892856Y10117857D01*
D10*
X64035712Y10117857D02*
X63964284Y10046429D01*
D10*
X64035712Y10189286D02*
X64035712Y10117857D01*
D10*
X63964284Y10260714D02*
X64035712Y10189286D01*
D10*
X63892856Y10260714D02*
X63964284Y10260714D01*
D10*
X63750000Y10189286D02*
X63892856Y10260714D01*
D10*
X63464284Y9903571D02*
X63750000Y10189286D01*
D10*
X63321428Y9832143D02*
X63464284Y9903571D01*
D10*
X63178572Y9832143D02*
X63321428Y9832143D01*
D10*
X63464284Y9760714D02*
X63321428Y9832143D01*
D10*
X63607144Y9332143D02*
X63464284Y9760714D01*
D10*
X63678572Y9260714D02*
X63607144Y9332143D01*
D10*
X63392856Y9760714D02*
X63321428Y9832143D01*
D10*
X63535716Y9332143D02*
X63392856Y9760714D01*
D10*
X63607144Y9260714D02*
X63535716Y9332143D01*
D10*
X63750000Y9260714D02*
X63607144Y9260714D01*
D10*
X63892856Y9332143D02*
X63750000Y9260714D01*
D10*
X64035712Y9546429D02*
X63892856Y9332143D01*
D10*
X63464284Y10760714D02*
X63178572Y10760714D01*
D10*
X65250000Y9760714D02*
X65392856Y10260714D01*
D10*
X65178572Y9475000D02*
X65250000Y9760714D01*
D10*
X65178572Y9332143D02*
X65178572Y9475000D01*
D10*
X65250000Y9260714D02*
X65178572Y9332143D01*
D10*
X65464284Y9260714D02*
X65250000Y9260714D01*
D10*
X65607144Y9403571D02*
X65464284Y9260714D01*
D10*
X65678572Y9546429D02*
X65607144Y9403571D01*
D10*
X65321428Y9760714D02*
X65464284Y10260714D01*
D10*
X65250000Y9475000D02*
X65321428Y9760714D01*
D10*
X65250000Y9332143D02*
X65250000Y9475000D01*
D10*
X65321428Y9260714D02*
X65250000Y9332143D01*
D10*
X65250000Y9975000D02*
X65250000Y9760714D01*
D10*
X65178572Y10189286D02*
X65250000Y9975000D01*
D10*
X65035712Y10260714D02*
X65178572Y10189286D01*
D10*
X64892856Y10260714D02*
X65035712Y10260714D01*
D10*
X64678572Y10189286D02*
X64892856Y10260714D01*
D10*
X64535712Y9975000D02*
X64678572Y10189286D01*
D10*
X64464284Y9760714D02*
X64535712Y9975000D01*
D10*
X64464284Y9546429D02*
X64464284Y9760714D01*
D10*
X64535712Y9403571D02*
X64464284Y9546429D01*
D10*
X64607144Y9332143D02*
X64535712Y9403571D01*
D10*
X64750000Y9260714D02*
X64607144Y9332143D01*
D10*
X64892856Y9260714D02*
X64750000Y9260714D01*
D10*
X65035712Y9332143D02*
X64892856Y9260714D01*
D10*
X65178572Y9546429D02*
X65035712Y9332143D01*
D10*
X65250000Y9760714D02*
X65178572Y9546429D01*
D10*
X64750000Y10189286D02*
X64892856Y10260714D01*
D10*
X64607144Y9975000D02*
X64750000Y10189286D01*
D10*
X64535712Y9760714D02*
X64607144Y9975000D01*
D10*
X64535712Y9475000D02*
X64535712Y9760714D01*
D10*
X64607144Y9332143D02*
X64535712Y9475000D01*
D10*
X66750000Y10046429D02*
X66750000Y10117857D01*
D10*
X66821428Y10046429D02*
X66750000Y10046429D01*
D10*
X66821428Y10117857D02*
X66821428Y10046429D01*
D10*
X66750000Y10189286D02*
X66821428Y10117857D01*
D10*
X66535712Y10260714D02*
X66750000Y10189286D01*
D10*
X66321428Y10260714D02*
X66535712Y10260714D01*
D10*
X66107144Y10189286D02*
X66321428Y10260714D01*
D10*
X66035712Y10117857D02*
X66107144Y10189286D01*
D10*
X66035712Y9975000D02*
X66035712Y10117857D01*
D10*
X66107144Y9903571D02*
X66035712Y9975000D01*
D10*
X66607144Y9617857D02*
X66107144Y9903571D01*
D10*
X66678572Y9546429D02*
X66607144Y9617857D01*
D10*
X66107144Y9975000D02*
X66035712Y10046429D01*
D10*
X66607144Y9689286D02*
X66107144Y9975000D01*
D10*
X66678572Y9617857D02*
X66607144Y9689286D01*
D10*
X66678572Y9403571D02*
X66678572Y9617857D01*
D10*
X66607144Y9332143D02*
X66678572Y9403571D01*
D10*
X66392856Y9260714D02*
X66607144Y9332143D01*
D10*
X66178572Y9260714D02*
X66392856Y9260714D01*
D10*
X65964284Y9332143D02*
X66178572Y9260714D01*
D10*
X65892856Y9403571D02*
X65964284Y9332143D01*
D10*
X65892856Y9475000D02*
X65892856Y9403571D01*
D10*
X65964284Y9475000D02*
X65892856Y9475000D01*
D10*
X65964284Y9403571D02*
X65964284Y9475000D01*
D10*
X67750000Y9260714D02*
X68178568Y10760714D01*
D10*
X67821432Y9260714D02*
X68250000Y10760714D01*
D10*
X67964288Y9832143D02*
X69178568Y10760714D01*
D10*
X68750000Y9260714D02*
X68464288Y10117857D01*
D10*
X68678568Y9260714D02*
X68392856Y10117857D01*
D10*
X68464288Y10760714D02*
X67964288Y10760714D01*
D10*
X69321424Y10760714D02*
X68892856Y10760714D01*
D10*
X68035712Y9260714D02*
X67535712Y9260714D01*
D10*
X68892856Y9260714D02*
X68464288Y9260714D01*
D10*
X69464288Y9332143D02*
X69535712Y9403571D01*
D10*
X69535712Y9260714D02*
X69464288Y9332143D01*
D10*
X69607144Y9332143D02*
X69535712Y9260714D01*
D10*
X69535712Y9403571D02*
X69607144Y9332143D01*
D10*
X60321428Y8228571D02*
X60250000Y8300000D01*
D10*
X60250000Y8157143D02*
X60321428Y8228571D01*
D10*
X60178572Y8228571D02*
X60250000Y8157143D01*
D10*
X60178572Y8300000D02*
X60178572Y8228571D01*
D10*
X60250000Y8442857D02*
X60178572Y8300000D01*
D10*
X60321428Y8514286D02*
X60250000Y8442857D01*
D10*
X60535716Y8585714D02*
X60321428Y8514286D01*
D10*
X60750000Y8585714D02*
X60535716Y8585714D01*
D10*
X60964284Y8514286D02*
X60750000Y8585714D01*
D10*
X61035716Y8371428D02*
X60964284Y8514286D01*
D10*
X61035716Y8228571D02*
X61035716Y8371428D01*
D10*
X60964284Y8085714D02*
X61035716Y8228571D01*
D10*
X60821428Y7942857D02*
X60964284Y8085714D01*
D10*
X60607144Y7800000D02*
X60821428Y7942857D01*
D10*
X60321428Y7657143D02*
X60607144Y7800000D01*
D10*
X60107144Y7514285D02*
X60321428Y7657143D01*
D10*
X59964284Y7371428D02*
X60107144Y7514285D01*
D10*
X59821428Y7085714D02*
X59964284Y7371428D01*
D10*
X60892856Y8514286D02*
X60750000Y8585714D01*
D10*
X60964284Y8371428D02*
X60892856Y8514286D01*
D10*
X60964284Y8228571D02*
X60964284Y8371428D01*
D10*
X60892856Y8085714D02*
X60964284Y8228571D01*
D10*
X60750000Y7942857D02*
X60892856Y8085714D01*
D10*
X60321428Y7657143D02*
X60750000Y7942857D01*
D10*
X59964284Y7300000D02*
X59892856Y7228571D01*
D10*
X60107144Y7300000D02*
X59964284Y7300000D01*
D10*
X60464284Y7157143D02*
X60107144Y7300000D01*
D10*
X60678572Y7157143D02*
X60464284Y7157143D01*
D10*
X60821428Y7228571D02*
X60678572Y7157143D01*
D10*
X60892856Y7371428D02*
X60821428Y7228571D01*
D10*
X60464284Y7085714D02*
X60107144Y7300000D01*
D10*
X60678572Y7085714D02*
X60464284Y7085714D01*
D10*
X60821428Y7157143D02*
X60678572Y7085714D01*
D10*
X60892856Y7371428D02*
X60821428Y7157143D01*
D10*
X61892856Y8514286D02*
X62107144Y8585714D01*
D10*
X61750000Y8371428D02*
X61892856Y8514286D01*
D10*
X61607144Y8157143D02*
X61750000Y8371428D01*
D10*
X61535716Y7942857D02*
X61607144Y8157143D01*
D10*
X61464284Y7657143D02*
X61535716Y7942857D01*
D10*
X61464284Y7442857D02*
X61464284Y7657143D01*
D10*
X61535716Y7228571D02*
X61464284Y7442857D01*
D10*
X61607144Y7157143D02*
X61535716Y7228571D01*
D10*
X61750000Y7085714D02*
X61607144Y7157143D01*
D10*
X61892856Y7085714D02*
X61750000Y7085714D01*
D10*
X62107144Y7157143D02*
X61892856Y7085714D01*
D10*
X62250000Y7300000D02*
X62107144Y7157143D01*
D10*
X62392856Y7514285D02*
X62250000Y7300000D01*
D10*
X62464284Y7728571D02*
X62392856Y7514285D01*
D10*
X62535716Y8014285D02*
X62464284Y7728571D01*
D10*
X62535716Y8228571D02*
X62535716Y8014285D01*
D10*
X62464284Y8442857D02*
X62535716Y8228571D01*
D10*
X62392856Y8514286D02*
X62464284Y8442857D01*
D10*
X62250000Y8585714D02*
X62392856Y8514286D01*
D10*
X62107144Y8585714D02*
X62250000Y8585714D01*
D10*
X61964284Y8514286D02*
X62107144Y8585714D01*
D10*
X61821428Y8371428D02*
X61964284Y8514286D01*
D10*
X61678572Y8157143D02*
X61821428Y8371428D01*
D10*
X61607144Y7942857D02*
X61678572Y8157143D01*
D10*
X61535716Y7657143D02*
X61607144Y7942857D01*
D10*
X61535716Y7442857D02*
X61535716Y7657143D01*
D10*
X61607144Y7228571D02*
X61535716Y7442857D01*
D10*
X61750000Y7085714D02*
X61607144Y7228571D01*
D10*
X62035716Y7157143D02*
X61892856Y7085714D01*
D10*
X62178572Y7300000D02*
X62035716Y7157143D01*
D10*
X62321428Y7514285D02*
X62178572Y7300000D01*
D10*
X62392856Y7728571D02*
X62321428Y7514285D01*
D10*
X62464284Y8014285D02*
X62392856Y7728571D01*
D10*
X62464284Y8228571D02*
X62464284Y8014285D01*
D10*
X62392856Y8442857D02*
X62464284Y8228571D01*
D10*
X62250000Y8585714D02*
X62392856Y8442857D01*
D10*
X63321428Y8228571D02*
X63250000Y8300000D01*
D10*
X63250000Y8157143D02*
X63321428Y8228571D01*
D10*
X63178572Y8228571D02*
X63250000Y8157143D01*
D10*
X63178572Y8300000D02*
X63178572Y8228571D01*
D10*
X63250000Y8442857D02*
X63178572Y8300000D01*
D10*
X63321428Y8514286D02*
X63250000Y8442857D01*
D10*
X63535716Y8585714D02*
X63321428Y8514286D01*
D10*
X63750000Y8585714D02*
X63535716Y8585714D01*
D10*
X63964284Y8514286D02*
X63750000Y8585714D01*
D10*
X64035712Y8371428D02*
X63964284Y8514286D01*
D10*
X64035712Y8228571D02*
X64035712Y8371428D01*
D10*
X63964284Y8085714D02*
X64035712Y8228571D01*
D10*
X63821428Y7942857D02*
X63964284Y8085714D01*
D10*
X63607144Y7800000D02*
X63821428Y7942857D01*
D10*
X63321428Y7657143D02*
X63607144Y7800000D01*
D10*
X63107144Y7514285D02*
X63321428Y7657143D01*
D10*
X62964284Y7371428D02*
X63107144Y7514285D01*
D10*
X62821428Y7085714D02*
X62964284Y7371428D01*
D10*
X63892856Y8514286D02*
X63750000Y8585714D01*
D10*
X63964284Y8371428D02*
X63892856Y8514286D01*
D10*
X63964284Y8228571D02*
X63964284Y8371428D01*
D10*
X63892856Y8085714D02*
X63964284Y8228571D01*
D10*
X63750000Y7942857D02*
X63892856Y8085714D01*
D10*
X63321428Y7657143D02*
X63750000Y7942857D01*
D10*
X62964284Y7300000D02*
X62892856Y7228571D01*
D10*
X63107144Y7300000D02*
X62964284Y7300000D01*
D10*
X63464284Y7157143D02*
X63107144Y7300000D01*
D10*
X63678572Y7157143D02*
X63464284Y7157143D01*
D10*
X63821428Y7228571D02*
X63678572Y7157143D01*
D10*
X63892856Y7371428D02*
X63821428Y7228571D01*
D10*
X63464284Y7085714D02*
X63107144Y7300000D01*
D10*
X63678572Y7085714D02*
X63464284Y7085714D01*
D10*
X63821428Y7157143D02*
X63678572Y7085714D01*
D10*
X63892856Y7371428D02*
X63821428Y7157143D01*
D10*
X64821428Y8228571D02*
X64750000Y8300000D01*
D10*
X64750000Y8157143D02*
X64821428Y8228571D01*
D10*
X64678572Y8228571D02*
X64750000Y8157143D01*
D10*
X64678572Y8300000D02*
X64678572Y8228571D01*
D10*
X64750000Y8442857D02*
X64678572Y8300000D01*
D10*
X64821428Y8514286D02*
X64750000Y8442857D01*
D10*
X65035712Y8585714D02*
X64821428Y8514286D01*
D10*
X65250000Y8585714D02*
X65035712Y8585714D01*
D10*
X65464284Y8514286D02*
X65250000Y8585714D01*
D10*
X65535712Y8371428D02*
X65464284Y8514286D01*
D10*
X65535712Y8228571D02*
X65535712Y8371428D01*
D10*
X65464284Y8085714D02*
X65535712Y8228571D01*
D10*
X65321428Y7942857D02*
X65464284Y8085714D01*
D10*
X65107144Y7800000D02*
X65321428Y7942857D01*
D10*
X64821428Y7657143D02*
X65107144Y7800000D01*
D10*
X64607144Y7514285D02*
X64821428Y7657143D01*
D10*
X64464284Y7371428D02*
X64607144Y7514285D01*
D10*
X64321428Y7085714D02*
X64464284Y7371428D01*
D10*
X65392856Y8514286D02*
X65250000Y8585714D01*
D10*
X65464284Y8371428D02*
X65392856Y8514286D01*
D10*
X65464284Y8228571D02*
X65464284Y8371428D01*
D10*
X65392856Y8085714D02*
X65464284Y8228571D01*
D10*
X65250000Y7942857D02*
X65392856Y8085714D01*
D10*
X64821428Y7657143D02*
X65250000Y7942857D01*
D10*
X64464284Y7300000D02*
X64392856Y7228571D01*
D10*
X64607144Y7300000D02*
X64464284Y7300000D01*
D10*
X64964284Y7157143D02*
X64607144Y7300000D01*
D10*
X65178572Y7157143D02*
X64964284Y7157143D01*
D10*
X65321428Y7228571D02*
X65178572Y7157143D01*
D10*
X65392856Y7371428D02*
X65321428Y7228571D01*
D10*
X64964284Y7085714D02*
X64607144Y7300000D01*
D10*
X65178572Y7085714D02*
X64964284Y7085714D01*
D10*
X65321428Y7157143D02*
X65178572Y7085714D01*
D10*
X65392856Y7371428D02*
X65321428Y7157143D01*
D11*
X11348334Y16985000D02*
X25318334Y16985000D01*
D11*
X11348334Y3015000D02*
X11348334Y16985000D01*
D11*
X25318334Y3015000D02*
X11348334Y3015000D01*
D11*
X25318334Y16985000D02*
X25318334Y3015000D01*
D11*
X43015000Y16985000D02*
X56985000Y16985000D01*
D11*
X43015000Y3015000D02*
X43015000Y16985000D01*
D11*
X56985000Y3015000D02*
X43015000Y3015000D01*
D11*
X56985000Y16985000D02*
X56985000Y3015000D01*
D11*
X74681666Y16985000D02*
X88651666Y16985000D01*
D11*
X74681666Y3015000D02*
X74681666Y16985000D01*
D11*
X88651666Y3015000D02*
X74681666Y3015000D01*
D11*
X88651666Y16985000D02*
X88651666Y3015000D01*
D10*
X59964284Y57435716D02*
X60392856Y58935716D01*
D10*
X60035716Y57435716D02*
X60464284Y58935716D01*
D10*
X60178572Y58007144D02*
X61392856Y58935716D01*
D10*
X60964284Y57435716D02*
X60678572Y58292856D01*
D10*
X60892856Y57435716D02*
X60607144Y58292856D01*
D10*
X60678572Y58935716D02*
X60178572Y58935716D01*
D10*
X61535716Y58935716D02*
X61107144Y58935716D01*
D10*
X60250000Y57435716D02*
X59750000Y57435716D01*
D10*
X61107144Y57435716D02*
X60678572Y57435716D01*
D10*
X61607144Y57435716D02*
X62035716Y58935716D01*
D10*
X61678572Y57435716D02*
X62107144Y58935716D01*
D10*
X62321428Y58935716D02*
X61821428Y58935716D01*
D10*
X61892856Y57435716D02*
X61392856Y57435716D01*
D10*
X63750000Y58792856D02*
X63678572Y58792856D01*
D10*
X63821428Y58935716D02*
X63750000Y58792856D01*
D10*
X63750000Y58507144D02*
X63821428Y58935716D01*
D10*
X63750000Y58650000D02*
X63750000Y58507144D01*
D10*
X63678572Y58792856D02*
X63750000Y58650000D01*
D10*
X63607144Y58864284D02*
X63678572Y58792856D01*
D10*
X63392856Y58935716D02*
X63607144Y58864284D01*
D10*
X63107144Y58935716D02*
X63392856Y58935716D01*
D10*
X62892856Y58864284D02*
X63107144Y58935716D01*
D10*
X62750000Y58721428D02*
X62892856Y58864284D01*
D10*
X62750000Y58578572D02*
X62750000Y58721428D01*
D10*
X62821428Y58435716D02*
X62750000Y58578572D01*
D10*
X62892856Y58364284D02*
X62821428Y58435716D01*
D10*
X63392856Y58078572D02*
X62892856Y58364284D01*
D10*
X63535716Y57935716D02*
X63392856Y58078572D01*
D10*
X62892856Y58435716D02*
X62750000Y58578572D01*
D10*
X63392856Y58150000D02*
X62892856Y58435716D01*
D10*
X63464284Y58078572D02*
X63392856Y58150000D01*
D10*
X63535716Y57935716D02*
X63464284Y58078572D01*
D10*
X63535716Y57721428D02*
X63535716Y57935716D01*
D10*
X63464284Y57578572D02*
X63535716Y57721428D01*
D10*
X63392856Y57507144D02*
X63464284Y57578572D01*
D10*
X63178572Y57435716D02*
X63392856Y57507144D01*
D10*
X62892856Y57435716D02*
X63178572Y57435716D01*
D10*
X62678572Y57507144D02*
X62892856Y57435716D01*
D10*
X62607144Y57578572D02*
X62678572Y57507144D01*
D10*
X62535716Y57721428D02*
X62607144Y57578572D01*
D10*
X62535716Y57864284D02*
X62535716Y57721428D01*
D10*
X62464284Y57435716D02*
X62535716Y57864284D01*
D10*
X62535716Y57578572D02*
X62464284Y57435716D01*
D10*
X62607144Y57578572D02*
X62535716Y57578572D01*
D10*
X64678572Y57435716D02*
X65107144Y58935716D01*
D10*
X64750000Y57435716D02*
X65178572Y58935716D01*
D10*
X65607144Y58292856D02*
X65678572Y58364284D01*
D10*
X65678572Y58221428D02*
X65607144Y58292856D01*
D10*
X65750000Y58292856D02*
X65678572Y58221428D01*
D10*
X65750000Y58364284D02*
X65750000Y58292856D01*
D10*
X65678572Y58435716D02*
X65750000Y58364284D01*
D10*
X65607144Y58435716D02*
X65678572Y58435716D01*
D10*
X65464284Y58364284D02*
X65607144Y58435716D01*
D10*
X65178572Y58078572D02*
X65464284Y58364284D01*
D10*
X65035712Y58007144D02*
X65178572Y58078572D01*
D10*
X64892856Y58007144D02*
X65035712Y58007144D01*
D10*
X65178572Y57935716D02*
X65035712Y58007144D01*
D10*
X65321428Y57507144D02*
X65178572Y57935716D01*
D10*
X65392856Y57435716D02*
X65321428Y57507144D01*
D10*
X65107144Y57935716D02*
X65035712Y58007144D01*
D10*
X65250000Y57507144D02*
X65107144Y57935716D01*
D10*
X65321428Y57435716D02*
X65250000Y57507144D01*
D10*
X65464284Y57435716D02*
X65321428Y57435716D01*
D10*
X65607144Y57507144D02*
X65464284Y57435716D01*
D10*
X65750000Y57721428D02*
X65607144Y57507144D01*
D10*
X65178572Y58935716D02*
X64892856Y58935716D01*
D10*
X66535712Y57864284D02*
X66250000Y57792856D01*
D10*
X66750000Y57935716D02*
X66535712Y57864284D01*
D10*
X66964284Y58078572D02*
X66750000Y57935716D01*
D10*
X67035712Y58221428D02*
X66964284Y58078572D01*
D10*
X66964284Y58364284D02*
X67035712Y58221428D01*
D10*
X66821428Y58435716D02*
X66964284Y58364284D01*
D10*
X66607144Y58435716D02*
X66821428Y58435716D01*
D10*
X66392856Y58364284D02*
X66607144Y58435716D01*
D10*
X66250000Y58150000D02*
X66392856Y58364284D01*
D10*
X66178572Y57935716D02*
X66250000Y58150000D01*
D10*
X66178572Y57721428D02*
X66178572Y57935716D01*
D10*
X66250000Y57578572D02*
X66178572Y57721428D01*
D10*
X66321428Y57507144D02*
X66250000Y57578572D01*
D10*
X66464284Y57435716D02*
X66321428Y57507144D01*
D10*
X66607144Y57435716D02*
X66464284Y57435716D01*
D10*
X66821428Y57507144D02*
X66607144Y57435716D01*
D10*
X66964284Y57650000D02*
X66821428Y57507144D01*
D10*
X66464284Y58364284D02*
X66607144Y58435716D01*
D10*
X66321428Y58150000D02*
X66464284Y58364284D01*
D10*
X66250000Y57935716D02*
X66321428Y58150000D01*
D10*
X66250000Y57650000D02*
X66250000Y57935716D01*
D10*
X66321428Y57507144D02*
X66250000Y57650000D01*
D10*
X67392856Y58292856D02*
X67321432Y58150000D01*
D10*
X67535712Y58435716D02*
X67392856Y58292856D01*
D10*
X67750000Y58435716D02*
X67535712Y58435716D01*
D10*
X67821432Y58364284D02*
X67750000Y58435716D01*
D10*
X67821432Y58150000D02*
X67821432Y58364284D01*
D10*
X67678568Y57721428D02*
X67821432Y58150000D01*
D10*
X67678568Y57578572D02*
X67678568Y57721428D01*
D10*
X67821432Y57435716D02*
X67678568Y57578572D01*
D10*
X67750000Y58364284D02*
X67678568Y58435716D01*
D10*
X67750000Y58150000D02*
X67750000Y58364284D01*
D10*
X67607144Y57721428D02*
X67750000Y58150000D01*
D10*
X67607144Y57578572D02*
X67607144Y57721428D01*
D10*
X67678568Y57507144D02*
X67607144Y57578572D01*
D10*
X67821432Y57435716D02*
X67678568Y57507144D01*
D10*
X67964288Y57435716D02*
X67821432Y57435716D01*
D10*
X68107144Y57507144D02*
X67964288Y57435716D01*
D10*
X68250000Y57650000D02*
X68107144Y57507144D01*
D10*
X68392856Y57935716D02*
X68250000Y57650000D01*
D10*
X68321424Y57435716D02*
X68607144Y58435716D01*
D10*
X68250000Y57221428D02*
X68321424Y57435716D01*
D10*
X68107144Y57007144D02*
X68250000Y57221428D01*
D10*
X67892856Y56935716D02*
X68107144Y57007144D01*
D10*
X67678568Y56935716D02*
X67892856Y56935716D01*
D10*
X67535712Y57007144D02*
X67678568Y56935716D01*
D10*
X67464288Y57078572D02*
X67535712Y57007144D01*
D10*
X67464288Y57150000D02*
X67464288Y57078572D01*
D10*
X67535712Y57221428D02*
X67464288Y57150000D01*
D10*
X67607144Y57150000D02*
X67535712Y57221428D01*
D10*
X67535712Y57078572D02*
X67607144Y57150000D01*
D10*
X68250000Y57435716D02*
X68535712Y58435716D01*
D10*
X68178568Y57221428D02*
X68250000Y57435716D01*
D10*
X68035712Y57007144D02*
X68178568Y57221428D01*
D10*
X67892856Y56935716D02*
X68035712Y57007144D01*
D10*
X68892856Y58292856D02*
X68821424Y58150000D01*
D10*
X69035712Y58435716D02*
X68892856Y58292856D01*
D10*
X69250000Y58435716D02*
X69035712Y58435716D01*
D10*
X69321424Y58364284D02*
X69250000Y58435716D01*
D10*
X69321424Y58221428D02*
X69321424Y58364284D01*
D10*
X69250000Y57935716D02*
X69321424Y58221428D01*
D10*
X68964288Y56935716D02*
X69250000Y57935716D01*
D10*
X69250000Y58364284D02*
X69178568Y58435716D01*
D10*
X69250000Y58221428D02*
X69250000Y58364284D01*
D10*
X69178568Y57935716D02*
X69250000Y58221428D01*
D10*
X68892856Y56935716D02*
X69178568Y57935716D01*
D10*
X69321424Y58150000D02*
X69250000Y57935716D01*
D10*
X69464288Y58364284D02*
X69321424Y58150000D01*
D10*
X69607144Y58435716D02*
X69464288Y58364284D01*
D10*
X69750000Y58435716D02*
X69607144Y58435716D01*
D10*
X69892856Y58364284D02*
X69750000Y58435716D01*
D10*
X69964288Y58292856D02*
X69892856Y58364284D01*
D10*
X70035712Y58150000D02*
X69964288Y58292856D01*
D10*
X70035712Y57935716D02*
X70035712Y58150000D01*
D10*
X69964288Y57721428D02*
X70035712Y57935716D01*
D10*
X69821424Y57507144D02*
X69964288Y57721428D01*
D10*
X69607144Y57435716D02*
X69821424Y57507144D01*
D10*
X69464288Y57435716D02*
X69607144Y57435716D01*
D10*
X69321424Y57507144D02*
X69464288Y57435716D01*
D10*
X69250000Y57721428D02*
X69321424Y57507144D01*
D10*
X69250000Y57935716D02*
X69250000Y57721428D01*
D10*
X69964288Y58221428D02*
X69892856Y58364284D01*
D10*
X69964288Y57935716D02*
X69964288Y58221428D01*
D10*
X69892856Y57721428D02*
X69964288Y57935716D01*
D10*
X69750000Y57507144D02*
X69892856Y57721428D01*
D10*
X69607144Y57435716D02*
X69750000Y57507144D01*
D10*
X69178568Y56935716D02*
X68678568Y56935716D01*
D10*
X71250000Y57935716D02*
X71392856Y58435716D01*
D10*
X71178568Y57650000D02*
X71250000Y57935716D01*
D10*
X71178568Y57507144D02*
X71178568Y57650000D01*
D10*
X71250000Y57435716D02*
X71178568Y57507144D01*
D10*
X71464288Y57435716D02*
X71250000Y57435716D01*
D10*
X71607144Y57578572D02*
X71464288Y57435716D01*
D10*
X71678568Y57721428D02*
X71607144Y57578572D01*
D10*
X71321424Y57935716D02*
X71464288Y58435716D01*
D10*
X71250000Y57650000D02*
X71321424Y57935716D01*
D10*
X71250000Y57507144D02*
X71250000Y57650000D01*
D10*
X71321424Y57435716D02*
X71250000Y57507144D01*
D10*
X71250000Y58150000D02*
X71250000Y57935716D01*
D10*
X71178568Y58364284D02*
X71250000Y58150000D01*
D10*
X71035712Y58435716D02*
X71178568Y58364284D01*
D10*
X70892856Y58435716D02*
X71035712Y58435716D01*
D10*
X70678568Y58364284D02*
X70892856Y58435716D01*
D10*
X70535712Y58150000D02*
X70678568Y58364284D01*
D10*
X70464288Y57935716D02*
X70535712Y58150000D01*
D10*
X70464288Y57721428D02*
X70464288Y57935716D01*
D10*
X70535712Y57578572D02*
X70464288Y57721428D01*
D10*
X70607144Y57507144D02*
X70535712Y57578572D01*
D10*
X70750000Y57435716D02*
X70607144Y57507144D01*
D10*
X70892856Y57435716D02*
X70750000Y57435716D01*
D10*
X71035712Y57507144D02*
X70892856Y57435716D01*
D10*
X71178568Y57721428D02*
X71035712Y57507144D01*
D10*
X71250000Y57935716D02*
X71178568Y57721428D01*
D10*
X70750000Y58364284D02*
X70892856Y58435716D01*
D10*
X70607144Y58150000D02*
X70750000Y58364284D01*
D10*
X70535712Y57935716D02*
X70607144Y58150000D01*
D10*
X70535712Y57650000D02*
X70535712Y57935716D01*
D10*
X70607144Y57507144D02*
X70535712Y57650000D01*
D10*
X72750000Y57935716D02*
X73035712Y58935716D01*
D10*
X72678568Y57650000D02*
X72750000Y57935716D01*
D10*
X72678568Y57507144D02*
X72678568Y57650000D01*
D10*
X72750000Y57435716D02*
X72678568Y57507144D01*
D10*
X72964288Y57435716D02*
X72750000Y57435716D01*
D10*
X73107144Y57578572D02*
X72964288Y57435716D01*
D10*
X73178568Y57721428D02*
X73107144Y57578572D01*
D10*
X72821424Y57935716D02*
X73107144Y58935716D01*
D10*
X72750000Y57650000D02*
X72821424Y57935716D01*
D10*
X72750000Y57507144D02*
X72750000Y57650000D01*
D10*
X72821424Y57435716D02*
X72750000Y57507144D01*
D10*
X72750000Y58150000D02*
X72750000Y57935716D01*
D10*
X72678568Y58364284D02*
X72750000Y58150000D01*
D10*
X72535712Y58435716D02*
X72678568Y58364284D01*
D10*
X72392856Y58435716D02*
X72535712Y58435716D01*
D10*
X72178568Y58364284D02*
X72392856Y58435716D01*
D10*
X72035712Y58150000D02*
X72178568Y58364284D01*
D10*
X71964288Y57935716D02*
X72035712Y58150000D01*
D10*
X71964288Y57721428D02*
X71964288Y57935716D01*
D10*
X72035712Y57578572D02*
X71964288Y57721428D01*
D10*
X72107144Y57507144D02*
X72035712Y57578572D01*
D10*
X72250000Y57435716D02*
X72107144Y57507144D01*
D10*
X72392856Y57435716D02*
X72250000Y57435716D01*
D10*
X72535712Y57507144D02*
X72392856Y57435716D01*
D10*
X72678568Y57721428D02*
X72535712Y57507144D01*
D10*
X72750000Y57935716D02*
X72678568Y57721428D01*
D10*
X72250000Y58364284D02*
X72392856Y58435716D01*
D10*
X72107144Y58150000D02*
X72250000Y58364284D01*
D10*
X72035712Y57935716D02*
X72107144Y58150000D01*
D10*
X72035712Y57650000D02*
X72035712Y57935716D01*
D10*
X72107144Y57507144D02*
X72035712Y57650000D01*
D10*
X73107144Y58935716D02*
X72821424Y58935716D01*
D10*
X59964284Y55260716D02*
X60392856Y56760716D01*
D10*
X60035716Y55260716D02*
X60464284Y56760716D01*
D10*
X60678572Y56760716D02*
X60178572Y56760716D01*
D10*
X60821428Y55260716D02*
X59750000Y55260716D01*
D10*
X60964284Y55689284D02*
X60821428Y55260716D01*
D10*
X60750000Y55260716D02*
X60964284Y55689284D01*
D10*
X61321428Y56117856D02*
X61250000Y55975000D01*
D10*
X61464284Y56260716D02*
X61321428Y56117856D01*
D10*
X61678572Y56260716D02*
X61464284Y56260716D01*
D10*
X61750000Y56189284D02*
X61678572Y56260716D01*
D10*
X61750000Y55975000D02*
X61750000Y56189284D01*
D10*
X61607144Y55546428D02*
X61750000Y55975000D01*
D10*
X61607144Y55403572D02*
X61607144Y55546428D01*
D10*
X61750000Y55260716D02*
X61607144Y55403572D01*
D10*
X61678572Y56189284D02*
X61607144Y56260716D01*
D10*
X61678572Y55975000D02*
X61678572Y56189284D01*
D10*
X61535716Y55546428D02*
X61678572Y55975000D01*
D10*
X61535716Y55403572D02*
X61535716Y55546428D01*
D10*
X61607144Y55332144D02*
X61535716Y55403572D01*
D10*
X61750000Y55260716D02*
X61607144Y55332144D01*
D10*
X61892856Y55260716D02*
X61750000Y55260716D01*
D10*
X62035716Y55332144D02*
X61892856Y55260716D01*
D10*
X62178572Y55475000D02*
X62035716Y55332144D01*
D10*
X62321428Y55760716D02*
X62178572Y55475000D01*
D10*
X62321428Y55760716D02*
X62464284Y56260716D01*
D10*
X62250000Y55475000D02*
X62321428Y55760716D01*
D10*
X62250000Y55332144D02*
X62250000Y55475000D01*
D10*
X62321428Y55260716D02*
X62250000Y55332144D01*
D10*
X62535716Y55260716D02*
X62321428Y55260716D01*
D10*
X62678572Y55403572D02*
X62535716Y55260716D01*
D10*
X62750000Y55546428D02*
X62678572Y55403572D01*
D10*
X62392856Y55760716D02*
X62535716Y56260716D01*
D10*
X62321428Y55475000D02*
X62392856Y55760716D01*
D10*
X62321428Y55332144D02*
X62321428Y55475000D01*
D10*
X62392856Y55260716D02*
X62321428Y55332144D01*
D10*
X62964284Y55260716D02*
X63392856Y56760716D01*
D10*
X63035716Y55260716D02*
X63464284Y56760716D01*
D10*
X63892856Y56117856D02*
X63964284Y56189284D01*
D10*
X63964284Y56046428D02*
X63892856Y56117856D01*
D10*
X64035712Y56117856D02*
X63964284Y56046428D01*
D10*
X64035712Y56189284D02*
X64035712Y56117856D01*
D10*
X63964284Y56260716D02*
X64035712Y56189284D01*
D10*
X63892856Y56260716D02*
X63964284Y56260716D01*
D10*
X63750000Y56189284D02*
X63892856Y56260716D01*
D10*
X63464284Y55903572D02*
X63750000Y56189284D01*
D10*
X63321428Y55832144D02*
X63464284Y55903572D01*
D10*
X63178572Y55832144D02*
X63321428Y55832144D01*
D10*
X63464284Y55760716D02*
X63321428Y55832144D01*
D10*
X63607144Y55332144D02*
X63464284Y55760716D01*
D10*
X63678572Y55260716D02*
X63607144Y55332144D01*
D10*
X63392856Y55760716D02*
X63321428Y55832144D01*
D10*
X63535716Y55332144D02*
X63392856Y55760716D01*
D10*
X63607144Y55260716D02*
X63535716Y55332144D01*
D10*
X63750000Y55260716D02*
X63607144Y55260716D01*
D10*
X63892856Y55332144D02*
X63750000Y55260716D01*
D10*
X64035712Y55546428D02*
X63892856Y55332144D01*
D10*
X63464284Y56760716D02*
X63178572Y56760716D01*
D10*
X65250000Y55760716D02*
X65392856Y56260716D01*
D10*
X65178572Y55475000D02*
X65250000Y55760716D01*
D10*
X65178572Y55332144D02*
X65178572Y55475000D01*
D10*
X65250000Y55260716D02*
X65178572Y55332144D01*
D10*
X65464284Y55260716D02*
X65250000Y55260716D01*
D10*
X65607144Y55403572D02*
X65464284Y55260716D01*
D10*
X65678572Y55546428D02*
X65607144Y55403572D01*
D10*
X65321428Y55760716D02*
X65464284Y56260716D01*
D10*
X65250000Y55475000D02*
X65321428Y55760716D01*
D10*
X65250000Y55332144D02*
X65250000Y55475000D01*
D10*
X65321428Y55260716D02*
X65250000Y55332144D01*
D10*
X65250000Y55975000D02*
X65250000Y55760716D01*
D10*
X65178572Y56189284D02*
X65250000Y55975000D01*
D10*
X65035712Y56260716D02*
X65178572Y56189284D01*
D10*
X64892856Y56260716D02*
X65035712Y56260716D01*
D10*
X64678572Y56189284D02*
X64892856Y56260716D01*
D10*
X64535712Y55975000D02*
X64678572Y56189284D01*
D10*
X64464284Y55760716D02*
X64535712Y55975000D01*
D10*
X64464284Y55546428D02*
X64464284Y55760716D01*
D10*
X64535712Y55403572D02*
X64464284Y55546428D01*
D10*
X64607144Y55332144D02*
X64535712Y55403572D01*
D10*
X64750000Y55260716D02*
X64607144Y55332144D01*
D10*
X64892856Y55260716D02*
X64750000Y55260716D01*
D10*
X65035712Y55332144D02*
X64892856Y55260716D01*
D10*
X65178572Y55546428D02*
X65035712Y55332144D01*
D10*
X65250000Y55760716D02*
X65178572Y55546428D01*
D10*
X64750000Y56189284D02*
X64892856Y56260716D01*
D10*
X64607144Y55975000D02*
X64750000Y56189284D01*
D10*
X64535712Y55760716D02*
X64607144Y55975000D01*
D10*
X64535712Y55475000D02*
X64535712Y55760716D01*
D10*
X64607144Y55332144D02*
X64535712Y55475000D01*
D10*
X66750000Y56046428D02*
X66750000Y56117856D01*
D10*
X66821428Y56046428D02*
X66750000Y56046428D01*
D10*
X66821428Y56117856D02*
X66821428Y56046428D01*
D10*
X66750000Y56189284D02*
X66821428Y56117856D01*
D10*
X66535712Y56260716D02*
X66750000Y56189284D01*
D10*
X66321428Y56260716D02*
X66535712Y56260716D01*
D10*
X66107144Y56189284D02*
X66321428Y56260716D01*
D10*
X66035712Y56117856D02*
X66107144Y56189284D01*
D10*
X66035712Y55975000D02*
X66035712Y56117856D01*
D10*
X66107144Y55903572D02*
X66035712Y55975000D01*
D10*
X66607144Y55617856D02*
X66107144Y55903572D01*
D10*
X66678572Y55546428D02*
X66607144Y55617856D01*
D10*
X66107144Y55975000D02*
X66035712Y56046428D01*
D10*
X66607144Y55689284D02*
X66107144Y55975000D01*
D10*
X66678572Y55617856D02*
X66607144Y55689284D01*
D10*
X66678572Y55403572D02*
X66678572Y55617856D01*
D10*
X66607144Y55332144D02*
X66678572Y55403572D01*
D10*
X66392856Y55260716D02*
X66607144Y55332144D01*
D10*
X66178572Y55260716D02*
X66392856Y55260716D01*
D10*
X65964284Y55332144D02*
X66178572Y55260716D01*
D10*
X65892856Y55403572D02*
X65964284Y55332144D01*
D10*
X65892856Y55475000D02*
X65892856Y55403572D01*
D10*
X65964284Y55475000D02*
X65892856Y55475000D01*
D10*
X65964284Y55403572D02*
X65964284Y55475000D01*
D10*
X67750000Y55260716D02*
X68178568Y56760716D01*
D10*
X67821432Y55260716D02*
X68250000Y56760716D01*
D10*
X67964288Y55832144D02*
X69178568Y56760716D01*
D10*
X68750000Y55260716D02*
X68464288Y56117856D01*
D10*
X68678568Y55260716D02*
X68392856Y56117856D01*
D10*
X68464288Y56760716D02*
X67964288Y56760716D01*
D10*
X69321424Y56760716D02*
X68892856Y56760716D01*
D10*
X68035712Y55260716D02*
X67535712Y55260716D01*
D10*
X68892856Y55260716D02*
X68464288Y55260716D01*
D10*
X69464288Y55332144D02*
X69535712Y55403572D01*
D10*
X69535712Y55260716D02*
X69464288Y55332144D01*
D10*
X69607144Y55332144D02*
X69535712Y55260716D01*
D10*
X69535712Y55403572D02*
X69607144Y55332144D01*
D10*
X60321428Y54228572D02*
X60250000Y54300000D01*
D10*
X60250000Y54157144D02*
X60321428Y54228572D01*
D10*
X60178572Y54228572D02*
X60250000Y54157144D01*
D10*
X60178572Y54300000D02*
X60178572Y54228572D01*
D10*
X60250000Y54442856D02*
X60178572Y54300000D01*
D10*
X60321428Y54514284D02*
X60250000Y54442856D01*
D10*
X60535716Y54585716D02*
X60321428Y54514284D01*
D10*
X60750000Y54585716D02*
X60535716Y54585716D01*
D10*
X60964284Y54514284D02*
X60750000Y54585716D01*
D10*
X61035716Y54371428D02*
X60964284Y54514284D01*
D10*
X61035716Y54228572D02*
X61035716Y54371428D01*
D10*
X60964284Y54085716D02*
X61035716Y54228572D01*
D10*
X60821428Y53942856D02*
X60964284Y54085716D01*
D10*
X60607144Y53800000D02*
X60821428Y53942856D01*
D10*
X60321428Y53657144D02*
X60607144Y53800000D01*
D10*
X60107144Y53514284D02*
X60321428Y53657144D01*
D10*
X59964284Y53371428D02*
X60107144Y53514284D01*
D10*
X59821428Y53085716D02*
X59964284Y53371428D01*
D10*
X60892856Y54514284D02*
X60750000Y54585716D01*
D10*
X60964284Y54371428D02*
X60892856Y54514284D01*
D10*
X60964284Y54228572D02*
X60964284Y54371428D01*
D10*
X60892856Y54085716D02*
X60964284Y54228572D01*
D10*
X60750000Y53942856D02*
X60892856Y54085716D01*
D10*
X60321428Y53657144D02*
X60750000Y53942856D01*
D10*
X59964284Y53300000D02*
X59892856Y53228572D01*
D10*
X60107144Y53300000D02*
X59964284Y53300000D01*
D10*
X60464284Y53157144D02*
X60107144Y53300000D01*
D10*
X60678572Y53157144D02*
X60464284Y53157144D01*
D10*
X60821428Y53228572D02*
X60678572Y53157144D01*
D10*
X60892856Y53371428D02*
X60821428Y53228572D01*
D10*
X60464284Y53085716D02*
X60107144Y53300000D01*
D10*
X60678572Y53085716D02*
X60464284Y53085716D01*
D10*
X60821428Y53157144D02*
X60678572Y53085716D01*
D10*
X60892856Y53371428D02*
X60821428Y53157144D01*
D10*
X61892856Y54514284D02*
X62107144Y54585716D01*
D10*
X61750000Y54371428D02*
X61892856Y54514284D01*
D10*
X61607144Y54157144D02*
X61750000Y54371428D01*
D10*
X61535716Y53942856D02*
X61607144Y54157144D01*
D10*
X61464284Y53657144D02*
X61535716Y53942856D01*
D10*
X61464284Y53442856D02*
X61464284Y53657144D01*
D10*
X61535716Y53228572D02*
X61464284Y53442856D01*
D10*
X61607144Y53157144D02*
X61535716Y53228572D01*
D10*
X61750000Y53085716D02*
X61607144Y53157144D01*
D10*
X61892856Y53085716D02*
X61750000Y53085716D01*
D10*
X62107144Y53157144D02*
X61892856Y53085716D01*
D10*
X62250000Y53300000D02*
X62107144Y53157144D01*
D10*
X62392856Y53514284D02*
X62250000Y53300000D01*
D10*
X62464284Y53728572D02*
X62392856Y53514284D01*
D10*
X62535716Y54014284D02*
X62464284Y53728572D01*
D10*
X62535716Y54228572D02*
X62535716Y54014284D01*
D10*
X62464284Y54442856D02*
X62535716Y54228572D01*
D10*
X62392856Y54514284D02*
X62464284Y54442856D01*
D10*
X62250000Y54585716D02*
X62392856Y54514284D01*
D10*
X62107144Y54585716D02*
X62250000Y54585716D01*
D10*
X61964284Y54514284D02*
X62107144Y54585716D01*
D10*
X61821428Y54371428D02*
X61964284Y54514284D01*
D10*
X61678572Y54157144D02*
X61821428Y54371428D01*
D10*
X61607144Y53942856D02*
X61678572Y54157144D01*
D10*
X61535716Y53657144D02*
X61607144Y53942856D01*
D10*
X61535716Y53442856D02*
X61535716Y53657144D01*
D10*
X61607144Y53228572D02*
X61535716Y53442856D01*
D10*
X61750000Y53085716D02*
X61607144Y53228572D01*
D10*
X62035716Y53157144D02*
X61892856Y53085716D01*
D10*
X62178572Y53300000D02*
X62035716Y53157144D01*
D10*
X62321428Y53514284D02*
X62178572Y53300000D01*
D10*
X62392856Y53728572D02*
X62321428Y53514284D01*
D10*
X62464284Y54014284D02*
X62392856Y53728572D01*
D10*
X62464284Y54228572D02*
X62464284Y54014284D01*
D10*
X62392856Y54442856D02*
X62464284Y54228572D01*
D10*
X62250000Y54585716D02*
X62392856Y54442856D01*
D10*
X63321428Y54228572D02*
X63250000Y54300000D01*
D10*
X63250000Y54157144D02*
X63321428Y54228572D01*
D10*
X63178572Y54228572D02*
X63250000Y54157144D01*
D10*
X63178572Y54300000D02*
X63178572Y54228572D01*
D10*
X63250000Y54442856D02*
X63178572Y54300000D01*
D10*
X63321428Y54514284D02*
X63250000Y54442856D01*
D10*
X63535716Y54585716D02*
X63321428Y54514284D01*
D10*
X63750000Y54585716D02*
X63535716Y54585716D01*
D10*
X63964284Y54514284D02*
X63750000Y54585716D01*
D10*
X64035712Y54371428D02*
X63964284Y54514284D01*
D10*
X64035712Y54228572D02*
X64035712Y54371428D01*
D10*
X63964284Y54085716D02*
X64035712Y54228572D01*
D10*
X63821428Y53942856D02*
X63964284Y54085716D01*
D10*
X63607144Y53800000D02*
X63821428Y53942856D01*
D10*
X63321428Y53657144D02*
X63607144Y53800000D01*
D10*
X63107144Y53514284D02*
X63321428Y53657144D01*
D10*
X62964284Y53371428D02*
X63107144Y53514284D01*
D10*
X62821428Y53085716D02*
X62964284Y53371428D01*
D10*
X63892856Y54514284D02*
X63750000Y54585716D01*
D10*
X63964284Y54371428D02*
X63892856Y54514284D01*
D10*
X63964284Y54228572D02*
X63964284Y54371428D01*
D10*
X63892856Y54085716D02*
X63964284Y54228572D01*
D10*
X63750000Y53942856D02*
X63892856Y54085716D01*
D10*
X63321428Y53657144D02*
X63750000Y53942856D01*
D10*
X62964284Y53300000D02*
X62892856Y53228572D01*
D10*
X63107144Y53300000D02*
X62964284Y53300000D01*
D10*
X63464284Y53157144D02*
X63107144Y53300000D01*
D10*
X63678572Y53157144D02*
X63464284Y53157144D01*
D10*
X63821428Y53228572D02*
X63678572Y53157144D01*
D10*
X63892856Y53371428D02*
X63821428Y53228572D01*
D10*
X63464284Y53085716D02*
X63107144Y53300000D01*
D10*
X63678572Y53085716D02*
X63464284Y53085716D01*
D10*
X63821428Y53157144D02*
X63678572Y53085716D01*
D10*
X63892856Y53371428D02*
X63821428Y53157144D01*
D10*
X64821428Y54228572D02*
X64750000Y54300000D01*
D10*
X64750000Y54157144D02*
X64821428Y54228572D01*
D10*
X64678572Y54228572D02*
X64750000Y54157144D01*
D10*
X64678572Y54300000D02*
X64678572Y54228572D01*
D10*
X64750000Y54442856D02*
X64678572Y54300000D01*
D10*
X64821428Y54514284D02*
X64750000Y54442856D01*
D10*
X65035712Y54585716D02*
X64821428Y54514284D01*
D10*
X65250000Y54585716D02*
X65035712Y54585716D01*
D10*
X65464284Y54514284D02*
X65250000Y54585716D01*
D10*
X65535712Y54371428D02*
X65464284Y54514284D01*
D10*
X65535712Y54228572D02*
X65535712Y54371428D01*
D10*
X65464284Y54085716D02*
X65535712Y54228572D01*
D10*
X65321428Y53942856D02*
X65464284Y54085716D01*
D10*
X65107144Y53800000D02*
X65321428Y53942856D01*
D10*
X64821428Y53657144D02*
X65107144Y53800000D01*
D10*
X64607144Y53514284D02*
X64821428Y53657144D01*
D10*
X64464284Y53371428D02*
X64607144Y53514284D01*
D10*
X64321428Y53085716D02*
X64464284Y53371428D01*
D10*
X65392856Y54514284D02*
X65250000Y54585716D01*
D10*
X65464284Y54371428D02*
X65392856Y54514284D01*
D10*
X65464284Y54228572D02*
X65464284Y54371428D01*
D10*
X65392856Y54085716D02*
X65464284Y54228572D01*
D10*
X65250000Y53942856D02*
X65392856Y54085716D01*
D10*
X64821428Y53657144D02*
X65250000Y53942856D01*
D10*
X64464284Y53300000D02*
X64392856Y53228572D01*
D10*
X64607144Y53300000D02*
X64464284Y53300000D01*
D10*
X64964284Y53157144D02*
X64607144Y53300000D01*
D10*
X65178572Y53157144D02*
X64964284Y53157144D01*
D10*
X65321428Y53228572D02*
X65178572Y53157144D01*
D10*
X65392856Y53371428D02*
X65321428Y53228572D01*
D10*
X64964284Y53085716D02*
X64607144Y53300000D01*
D10*
X65178572Y53085716D02*
X64964284Y53085716D01*
D10*
X65321428Y53157144D02*
X65178572Y53085716D01*
D10*
X65392856Y53371428D02*
X65321428Y53157144D01*
D11*
X11348334Y62985000D02*
X25318334Y62985000D01*
D11*
X11348334Y49015000D02*
X11348334Y62985000D01*
D11*
X25318334Y49015000D02*
X11348334Y49015000D01*
D11*
X25318334Y62985000D02*
X25318334Y49015000D01*
D11*
X43015000Y62985000D02*
X56985000Y62985000D01*
D11*
X43015000Y49015000D02*
X43015000Y62985000D01*
D11*
X56985000Y49015000D02*
X43015000Y49015000D01*
D11*
X56985000Y62985000D02*
X56985000Y49015000D01*
D11*
X74681666Y62985000D02*
X88651666Y62985000D01*
D11*
X74681666Y49015000D02*
X74681666Y62985000D01*
D11*
X88651666Y49015000D02*
X74681666Y49015000D01*
D11*
X88651666Y62985000D02*
X88651666Y49015000D01*
G75*
M02*
