M48
FMAT,2
METRIC,TZ
T8C0.350
T6C0.500
T7C0.700
T5C0.991
T3C1.500
T2C1.700
T4C2.375
T1C4.000
%
G90
G05
M71
T8
X53.250Y35.500
X45.750Y28.500
X59.250Y39.250
X22.250Y31.000
X40.500Y39.000
X50.000Y27.250
X46.750Y27.950
X62.250Y24.500
X60.250Y28.750
X52.750Y26.750
X49.250Y24.000
X40.750Y31.750
X62.750Y36.500
X18.500Y26.000
X15.750Y26.000
X60.250Y37.250
X42.000Y35.000
X24.000Y27.500
X14.750Y26.000
X35.750Y25.750
X11.000Y26.000
X60.500Y36.500
X56.250Y40.250
X57.000Y38.000
X13.250Y28.000
X14.750Y28.000
X43.750Y27.750
X65.250Y37.500
X24.500Y40.500
X46.750Y25.750
X58.750Y32.250
X42.000Y24.500
X57.486Y29.514
X27.750Y35.000
X60.250Y29.750
X50.000Y26.500
X42.000Y34.000
X46.000Y26.000
X60.000Y27.000
X45.250Y27.800
X60.250Y40.500
X26.000Y27.500
X52.750Y24.750
X55.250Y29.250
X59.250Y24.000
X14.750Y31.000
X54.750Y37.750
X52.750Y29.250
X13.250Y31.000
X55.250Y26.750
X66.000Y35.000
X47.500Y32.250
X53.250Y34.750
X43.000Y32.750
X45.250Y26.500
X19.750Y26.000
X41.500Y32.750
X62.750Y39.000
X35.750Y30.250
X50.500Y27.950
X40.500Y37.000
X57.250Y41.250
X56.000Y34.250
X47.750Y30.250
X57.750Y26.500
X26.000Y39.000
X17.000Y26.000
X54.476Y24.917
X48.750Y30.000
X57.000Y34.750
X53.250Y81.500
X45.750Y74.500
X59.250Y85.250
X22.250Y77.000
X40.500Y85.000
X50.000Y73.250
X46.750Y73.950
X62.250Y70.500
X60.250Y74.750
X52.750Y72.750
X49.250Y70.000
X40.750Y77.750
X62.750Y82.500
X18.500Y72.000
X15.750Y72.000
X60.250Y83.250
X42.000Y81.000
X24.000Y73.500
X14.750Y72.000
X35.750Y71.750
X11.000Y72.000
X60.500Y82.500
X56.250Y86.250
X57.000Y84.000
X13.250Y74.000
X14.750Y74.000
X43.750Y73.750
X65.250Y83.500
X24.500Y86.500
X46.750Y71.750
X58.750Y78.250
X42.000Y70.500
X57.486Y75.514
X27.750Y81.000
X60.250Y75.750
X50.000Y72.500
X42.000Y80.000
X46.000Y72.000
X60.000Y73.000
X45.250Y73.800
X60.250Y86.500
X26.000Y73.500
X52.750Y70.750
X55.250Y75.250
X59.250Y70.000
X14.750Y77.000
X54.750Y83.750
X52.750Y75.250
X13.250Y77.000
X55.250Y72.750
X66.000Y81.000
X47.500Y78.250
X53.250Y80.750
X43.000Y78.750
X45.250Y72.500
X19.750Y72.000
X41.500Y78.750
X62.750Y85.000
X35.750Y76.250
X50.500Y73.950
X40.500Y83.000
X57.250Y87.250
X56.000Y80.250
X47.750Y76.250
X57.750Y72.500
X26.000Y85.000
X17.000Y72.000
X54.476Y70.917
X48.750Y76.000
X57.000Y80.750
X53.250Y12.500
X45.750Y5.500
X59.250Y16.250
X22.250Y8.000
X40.500Y16.000
X50.000Y4.250
X46.750Y4.950
X62.250Y1.500
X60.250Y5.750
X52.750Y3.750
X49.250Y1.000
X40.750Y8.750
X62.750Y13.500
X18.500Y3.000
X15.750Y3.000
X60.250Y14.250
X42.000Y12.000
X24.000Y4.500
X14.750Y3.000
X35.750Y2.750
X11.000Y3.000
X60.500Y13.500
X56.250Y17.250
X57.000Y15.000
X13.250Y5.000
X14.750Y5.000
X43.750Y4.750
X65.250Y14.500
X24.500Y17.500
X46.750Y2.750
X58.750Y9.250
X42.000Y1.500
X57.486Y6.514
X27.750Y12.000
X60.250Y6.750
X50.000Y3.500
X42.000Y11.000
X46.000Y3.000
X60.000Y4.000
X45.250Y4.800
X60.250Y17.500
X26.000Y4.500
X52.750Y1.750
X55.250Y6.250
X59.250Y1.000
X14.750Y8.000
X54.750Y14.750
X52.750Y6.250
X13.250Y8.000
X55.250Y3.750
X66.000Y12.000
X47.500Y9.250
X53.250Y11.750
X43.000Y9.750
X45.250Y3.500
X19.750Y3.000
X41.500Y9.750
X62.750Y16.000
X35.750Y7.250
X50.500Y4.950
X40.500Y14.000
X57.250Y18.250
X56.000Y11.250
X47.750Y7.250
X57.750Y3.500
X26.000Y16.000
X17.000Y3.000
X54.476Y1.917
X48.750Y7.000
X57.000Y11.750
X53.250Y58.500
X45.750Y51.500
X59.250Y62.250
X22.250Y54.000
X40.500Y62.000
X50.000Y50.250
X46.750Y50.950
X62.250Y47.500
X60.250Y51.750
X52.750Y49.750
X49.250Y47.000
X40.750Y54.750
X62.750Y59.500
X18.500Y49.000
X15.750Y49.000
X60.250Y60.250
X42.000Y58.000
X24.000Y50.500
X14.750Y49.000
X35.750Y48.750
X11.000Y49.000
X60.500Y59.500
X56.250Y63.250
X57.000Y61.000
X13.250Y51.000
X14.750Y51.000
X43.750Y50.750
X65.250Y60.500
X24.500Y63.500
X46.750Y48.750
X58.750Y55.250
X42.000Y47.500
X57.486Y52.514
X27.750Y58.000
X60.250Y52.750
X50.000Y49.500
X42.000Y57.000
X46.000Y49.000
X60.000Y50.000
X45.250Y50.800
X60.250Y63.500
X26.000Y50.500
X52.750Y47.750
X55.250Y52.250
X59.250Y47.000
X14.750Y54.000
X54.750Y60.750
X52.750Y52.250
X13.250Y54.000
X55.250Y49.750
X66.000Y58.000
X47.500Y55.250
X53.250Y57.750
X43.000Y55.750
X45.250Y49.500
X19.750Y49.000
X41.500Y55.750
X62.750Y62.000
X35.750Y53.250
X50.500Y50.950
X40.500Y60.000
X57.250Y64.250
X56.000Y57.250
X47.750Y53.250
X57.750Y49.500
X26.000Y62.000
X17.000Y49.000
X54.476Y47.917
X48.750Y53.000
X57.000Y57.750
T6
X69.233Y39.500
X71.633Y38.500
X72.433Y39.500
X70.833Y39.500
X70.033Y38.500
X69.233Y85.500
X71.633Y84.500
X72.433Y85.500
X70.833Y85.500
X70.033Y84.500
X69.233Y16.500
X71.633Y15.500
X72.433Y16.500
X70.833Y16.500
X70.033Y15.500
X69.233Y62.500
X71.633Y61.500
X72.433Y62.500
X70.833Y62.500
X70.033Y61.500
T7
X70.233Y37.250G85X71.433Y37.250
X72.133Y40.750G85X73.333Y40.750
X67.833Y40.750G85X69.033Y40.750
X70.233Y83.250G85X71.433Y83.250
X72.133Y86.750G85X73.333Y86.750
X67.833Y86.750G85X69.033Y86.750
X70.233Y14.250G85X71.433Y14.250
X72.133Y17.750G85X73.333Y17.750
X67.833Y17.750G85X69.033Y17.750
X70.233Y60.250G85X71.433Y60.250
X72.133Y63.750G85X73.333Y63.750
X67.833Y63.750G85X69.033Y63.750
T5
X27.608Y38.349
X27.608Y36.317
X32.688Y37.333
X27.608Y84.349
X27.608Y82.317
X32.688Y83.333
X27.608Y15.349
X27.608Y13.317
X32.688Y14.333
X27.608Y61.349
X27.608Y59.317
X32.688Y60.333
T3
X14.523Y35.540
X20.873Y38.080
X46.190Y35.540
X52.540Y38.080
X77.857Y35.540
X84.207Y38.080
X14.523Y81.540
X20.873Y84.080
X46.190Y81.540
X52.540Y84.080
X77.857Y81.540
X84.207Y84.080
X14.523Y12.540
X20.873Y15.080
X46.190Y12.540
X52.540Y15.080
X77.857Y12.540
X84.207Y15.080
X14.523Y58.540
X20.873Y61.080
X46.190Y58.540
X52.540Y61.080
X77.857Y58.540
X84.207Y61.080
T2
X13.253Y33.000
X23.413Y33.000
X44.920Y33.000
X55.080Y33.000
X76.587Y33.000
X86.747Y33.000
X13.253Y79.000
X23.413Y79.000
X44.920Y79.000
X55.080Y79.000
X76.587Y79.000
X86.747Y79.000
X13.253Y10.000
X23.413Y10.000
X44.920Y10.000
X55.080Y10.000
X76.587Y10.000
X86.747Y10.000
X13.253Y56.000
X23.413Y56.000
X44.920Y56.000
X55.080Y56.000
X76.587Y56.000
X86.747Y56.000
T4
X32.688Y39.873
X29.513Y39.873
X32.688Y34.793
X29.513Y34.793
X32.688Y85.873
X29.513Y85.873
X32.688Y80.793
X29.513Y80.793
X32.688Y16.873
X29.513Y16.873
X32.688Y11.793
X29.513Y11.793
X32.688Y62.873
X29.513Y62.873
X32.688Y57.793
X29.513Y57.793
T1
X18.333Y33.000
X50.000Y33.000
X81.667Y33.000
X18.333Y79.000
X50.000Y79.000
X81.667Y79.000
X18.333Y10.000
X50.000Y10.000
X81.667Y10.000
X18.333Y56.000
X50.000Y56.000
X81.667Y56.000
M30
