%FSLAX46Y46*%
%MOMM*%
%AMPS12*
1,1,2.400000,0.000000,0.000000*
%
%ADD12PS12*%
%AMPS16*
1,1,1.000000,0.000000,0.000000*
%
%ADD16PS16*%
%AMPS18*
1,1,0.550000,0.000000,0.000000*
%
%ADD18PS18*%
%AMPS17*
21,1,1.300000,1.300000,0.000000,0.000000,360.000000*
1,1,1.300000,-0.650000,0.000000*
1,1,1.300000,0.650000,0.000000*
%
%ADD17PS17*%
%AMPS10*
1,1,4.200000,0.000000,0.000000*
%
%ADD10PS10*%
%AMPS15*
1,1,1.190600,0.000000,0.000000*
%
%ADD15PS15*%
%AMPS11*
1,1,1.900000,0.000000,0.000000*
%
%ADD11PS11*%
%AMPS13*
1,1,2.575000,0.000000,0.000000*
%
%ADD13PS13*%
%AMPS14*
1,1,2.575000,0.000000,0.000000*
%
%ADD14PS14*%
G01*
G01*
%LPD*%
G75*
D10*
X18333334Y33000000D03*
D11*
X13253334Y33000000D03*
D12*
X14523334Y35540000D03*
D11*
X23413334Y33000000D03*
D12*
X20873334Y38080000D03*
D13*
X32687513Y39873333D03*
D13*
X29512513Y39873333D03*
D14*
X32687513Y34793333D03*
D15*
X27607513Y38349333D03*
D15*
X27607513Y36317333D03*
D15*
X32687513Y37333333D03*
D14*
X29512513Y34793333D03*
D10*
X50000000Y33000000D03*
D11*
X44920000Y33000000D03*
D12*
X46190000Y35540000D03*
D11*
X55080000Y33000000D03*
D12*
X52540000Y38080000D03*
D10*
X81666666Y33000000D03*
D11*
X76586666Y33000000D03*
D12*
X77856666Y35540000D03*
D11*
X86746666Y33000000D03*
D12*
X84206666Y38080000D03*
D16*
X69233335Y39500000D03*
D16*
X71633335Y38500000D03*
D17*
X70833335Y37250000D03*
D16*
X72433335Y39500000D03*
D16*
X70833335Y39500000D03*
D17*
X72733335Y40750000D03*
D17*
X68433335Y40750000D03*
D16*
X70033335Y38500000D03*
D18*
X53250000Y35500000D03*
D18*
X45750000Y28500000D03*
D18*
X59250000Y39250000D03*
D18*
X22250000Y31000000D03*
D18*
X40500000Y39000000D03*
D18*
X50000000Y27250000D03*
D18*
X46750000Y27950000D03*
D18*
X62250000Y24500000D03*
D18*
X60250000Y28750000D03*
D18*
X52750000Y26750000D03*
D18*
X49250000Y24000000D03*
D18*
X40750000Y31750000D03*
D18*
X62750000Y36500000D03*
D18*
X18500000Y26000000D03*
D18*
X15750000Y26000000D03*
D18*
X60250000Y37250000D03*
D18*
X42000000Y35000000D03*
D18*
X24000000Y27500000D03*
D18*
X14750000Y26000000D03*
D18*
X35750000Y25750000D03*
D18*
X11000000Y26000000D03*
D18*
X60500000Y36500000D03*
D18*
X56250000Y40250000D03*
D18*
X57000000Y38000000D03*
D18*
X13250000Y28000000D03*
D18*
X14750000Y28000000D03*
D18*
X43750000Y27750000D03*
D18*
X65250000Y37500000D03*
D18*
X24500000Y40500000D03*
D18*
X46750000Y25750000D03*
D18*
X58750000Y32250000D03*
D18*
X42000000Y24500000D03*
D18*
X57486091Y29513909D03*
D18*
X27750000Y35000000D03*
D18*
X60250000Y29750000D03*
D18*
X50000000Y26500000D03*
D18*
X42000000Y34000000D03*
D18*
X46000000Y26000000D03*
D18*
X60000000Y27000000D03*
D18*
X45250000Y27800000D03*
D18*
X60250000Y40500000D03*
D18*
X26000000Y27500000D03*
D18*
X52750000Y24750000D03*
D18*
X55250000Y29250000D03*
D18*
X59250000Y24000000D03*
D18*
X14750000Y31000000D03*
D18*
X54750000Y37750000D03*
D18*
X52750000Y29250000D03*
D18*
X13250000Y31000000D03*
D18*
X55250000Y26750000D03*
D18*
X66000000Y35000000D03*
D18*
X47500000Y32250000D03*
D18*
X53250000Y34750000D03*
D18*
X43000000Y32750000D03*
D18*
X45250000Y26500000D03*
D18*
X19750000Y26000000D03*
D18*
X41500000Y32750000D03*
D18*
X62750000Y39000000D03*
D18*
X35750000Y30250000D03*
D18*
X50500000Y27949998D03*
D18*
X40500000Y37000000D03*
D18*
X57250000Y41250000D03*
D18*
X56000000Y34250000D03*
D18*
X47750000Y30250000D03*
D18*
X57750000Y26500000D03*
D18*
X26000000Y39000000D03*
D18*
X17000000Y26000000D03*
D18*
X54476375Y24917313D03*
D18*
X48750000Y30000000D03*
D18*
X57000000Y34750000D03*
D10*
X18333334Y79000000D03*
D11*
X13253334Y79000000D03*
D12*
X14523334Y81540000D03*
D11*
X23413334Y79000000D03*
D12*
X20873334Y84080000D03*
D13*
X32687513Y85873333D03*
D13*
X29512513Y85873333D03*
D14*
X32687513Y80793333D03*
D15*
X27607513Y84349333D03*
D15*
X27607513Y82317333D03*
D15*
X32687513Y83333333D03*
D14*
X29512513Y80793333D03*
D10*
X50000000Y79000000D03*
D11*
X44920000Y79000000D03*
D12*
X46190000Y81540000D03*
D11*
X55080000Y79000000D03*
D12*
X52540000Y84080000D03*
D10*
X81666666Y79000000D03*
D11*
X76586666Y79000000D03*
D12*
X77856666Y81540000D03*
D11*
X86746666Y79000000D03*
D12*
X84206666Y84080000D03*
D16*
X69233335Y85500000D03*
D16*
X71633335Y84500000D03*
D17*
X70833335Y83250000D03*
D16*
X72433335Y85500000D03*
D16*
X70833335Y85500000D03*
D17*
X72733335Y86750000D03*
D17*
X68433335Y86750000D03*
D16*
X70033335Y84500000D03*
D18*
X53250000Y81500000D03*
D18*
X45750000Y74500000D03*
D18*
X59250000Y85250000D03*
D18*
X22250000Y77000000D03*
D18*
X40500000Y85000000D03*
D18*
X50000000Y73250000D03*
D18*
X46750000Y73950000D03*
D18*
X62250000Y70500000D03*
D18*
X60250000Y74750000D03*
D18*
X52750000Y72750000D03*
D18*
X49250000Y70000000D03*
D18*
X40750000Y77750000D03*
D18*
X62750000Y82500000D03*
D18*
X18500000Y72000000D03*
D18*
X15750000Y72000000D03*
D18*
X60250000Y83250000D03*
D18*
X42000000Y81000000D03*
D18*
X24000000Y73500000D03*
D18*
X14750000Y72000000D03*
D18*
X35750000Y71750000D03*
D18*
X11000000Y72000000D03*
D18*
X60500000Y82500000D03*
D18*
X56250000Y86250000D03*
D18*
X57000000Y84000000D03*
D18*
X13250000Y74000000D03*
D18*
X14750000Y74000000D03*
D18*
X43750000Y73750000D03*
D18*
X65250000Y83500000D03*
D18*
X24500000Y86500000D03*
D18*
X46750000Y71750000D03*
D18*
X58750000Y78250000D03*
D18*
X42000000Y70500000D03*
D18*
X57486091Y75513909D03*
D18*
X27750000Y81000000D03*
D18*
X60250000Y75750000D03*
D18*
X50000000Y72500000D03*
D18*
X42000000Y80000000D03*
D18*
X46000000Y72000000D03*
D18*
X60000000Y73000000D03*
D18*
X45250000Y73800000D03*
D18*
X60250000Y86500000D03*
D18*
X26000000Y73500000D03*
D18*
X52750000Y70750000D03*
D18*
X55250000Y75250000D03*
D18*
X59250000Y70000000D03*
D18*
X14750000Y77000000D03*
D18*
X54750000Y83750000D03*
D18*
X52750000Y75250000D03*
D18*
X13250000Y77000000D03*
D18*
X55250000Y72750000D03*
D18*
X66000000Y81000000D03*
D18*
X47500000Y78250000D03*
D18*
X53250000Y80750000D03*
D18*
X43000000Y78750000D03*
D18*
X45250000Y72500000D03*
D18*
X19750000Y72000000D03*
D18*
X41500000Y78750000D03*
D18*
X62750000Y85000000D03*
D18*
X35750000Y76250000D03*
D18*
X50500000Y73949998D03*
D18*
X40500000Y83000000D03*
D18*
X57250000Y87250000D03*
D18*
X56000000Y80250000D03*
D18*
X47750000Y76250000D03*
D18*
X57750000Y72500000D03*
D18*
X26000000Y85000000D03*
D18*
X17000000Y72000000D03*
D18*
X54476375Y70917313D03*
D18*
X48750000Y76000000D03*
D18*
X57000000Y80750000D03*
D10*
X18333334Y10000000D03*
D11*
X13253334Y10000000D03*
D12*
X14523334Y12540000D03*
D11*
X23413334Y10000000D03*
D12*
X20873334Y15080000D03*
D13*
X32687513Y16873333D03*
D13*
X29512513Y16873333D03*
D14*
X32687513Y11793333D03*
D15*
X27607513Y15349333D03*
D15*
X27607513Y13317333D03*
D15*
X32687513Y14333333D03*
D14*
X29512513Y11793333D03*
D10*
X50000000Y10000000D03*
D11*
X44920000Y10000000D03*
D12*
X46190000Y12540000D03*
D11*
X55080000Y10000000D03*
D12*
X52540000Y15080000D03*
D10*
X81666666Y10000000D03*
D11*
X76586666Y10000000D03*
D12*
X77856666Y12540000D03*
D11*
X86746666Y10000000D03*
D12*
X84206666Y15080000D03*
D16*
X69233335Y16500000D03*
D16*
X71633335Y15500000D03*
D17*
X70833335Y14250000D03*
D16*
X72433335Y16500000D03*
D16*
X70833335Y16500000D03*
D17*
X72733335Y17750000D03*
D17*
X68433335Y17750000D03*
D16*
X70033335Y15500000D03*
D18*
X53250000Y12500000D03*
D18*
X45750000Y5500000D03*
D18*
X59250000Y16250000D03*
D18*
X22250000Y8000000D03*
D18*
X40500000Y16000000D03*
D18*
X50000000Y4250000D03*
D18*
X46750000Y4950000D03*
D18*
X62250000Y1500000D03*
D18*
X60250000Y5750000D03*
D18*
X52750000Y3750000D03*
D18*
X49250000Y1000000D03*
D18*
X40750000Y8750000D03*
D18*
X62750000Y13500000D03*
D18*
X18500000Y3000000D03*
D18*
X15750000Y3000000D03*
D18*
X60250000Y14250000D03*
D18*
X42000000Y12000000D03*
D18*
X24000000Y4500000D03*
D18*
X14750000Y3000000D03*
D18*
X35750000Y2750000D03*
D18*
X11000000Y3000000D03*
D18*
X60500000Y13500000D03*
D18*
X56250000Y17250000D03*
D18*
X57000000Y15000000D03*
D18*
X13250000Y5000000D03*
D18*
X14750000Y5000000D03*
D18*
X43750000Y4750000D03*
D18*
X65250000Y14500000D03*
D18*
X24500000Y17500000D03*
D18*
X46750000Y2750000D03*
D18*
X58750000Y9250000D03*
D18*
X42000000Y1500000D03*
D18*
X57486091Y6513909D03*
D18*
X27750000Y12000000D03*
D18*
X60250000Y6750000D03*
D18*
X50000000Y3500000D03*
D18*
X42000000Y11000000D03*
D18*
X46000000Y3000000D03*
D18*
X60000000Y4000000D03*
D18*
X45250000Y4800000D03*
D18*
X60250000Y17500000D03*
D18*
X26000000Y4500000D03*
D18*
X52750000Y1750000D03*
D18*
X55250000Y6250000D03*
D18*
X59250000Y1000000D03*
D18*
X14750000Y8000000D03*
D18*
X54750000Y14750000D03*
D18*
X52750000Y6250000D03*
D18*
X13250000Y8000000D03*
D18*
X55250000Y3750000D03*
D18*
X66000000Y12000000D03*
D18*
X47500000Y9250000D03*
D18*
X53250000Y11750000D03*
D18*
X43000000Y9750000D03*
D18*
X45250000Y3500000D03*
D18*
X19750000Y3000000D03*
D18*
X41500000Y9750000D03*
D18*
X62750000Y16000000D03*
D18*
X35750000Y7250000D03*
D18*
X50500000Y4949998D03*
D18*
X40500000Y14000000D03*
D18*
X57250000Y18250000D03*
D18*
X56000000Y11250000D03*
D18*
X47750000Y7250000D03*
D18*
X57750000Y3500000D03*
D18*
X26000000Y16000000D03*
D18*
X17000000Y3000000D03*
D18*
X54476375Y1917313D03*
D18*
X48750000Y7000000D03*
D18*
X57000000Y11750000D03*
D10*
X18333334Y56000000D03*
D11*
X13253334Y56000000D03*
D12*
X14523334Y58540000D03*
D11*
X23413334Y56000000D03*
D12*
X20873334Y61080000D03*
D13*
X32687513Y62873333D03*
D13*
X29512513Y62873333D03*
D14*
X32687513Y57793333D03*
D15*
X27607513Y61349333D03*
D15*
X27607513Y59317333D03*
D15*
X32687513Y60333333D03*
D14*
X29512513Y57793333D03*
D10*
X50000000Y56000000D03*
D11*
X44920000Y56000000D03*
D12*
X46190000Y58540000D03*
D11*
X55080000Y56000000D03*
D12*
X52540000Y61080000D03*
D10*
X81666666Y56000000D03*
D11*
X76586666Y56000000D03*
D12*
X77856666Y58540000D03*
D11*
X86746666Y56000000D03*
D12*
X84206666Y61080000D03*
D16*
X69233335Y62500000D03*
D16*
X71633335Y61500000D03*
D17*
X70833335Y60250000D03*
D16*
X72433335Y62500000D03*
D16*
X70833335Y62500000D03*
D17*
X72733335Y63750000D03*
D17*
X68433335Y63750000D03*
D16*
X70033335Y61500000D03*
D18*
X53250000Y58500000D03*
D18*
X45750000Y51500000D03*
D18*
X59250000Y62250000D03*
D18*
X22250000Y54000000D03*
D18*
X40500000Y62000000D03*
D18*
X50000000Y50250000D03*
D18*
X46750000Y50950000D03*
D18*
X62250000Y47500000D03*
D18*
X60250000Y51750000D03*
D18*
X52750000Y49750000D03*
D18*
X49250000Y47000000D03*
D18*
X40750000Y54750000D03*
D18*
X62750000Y59500000D03*
D18*
X18500000Y49000000D03*
D18*
X15750000Y49000000D03*
D18*
X60250000Y60250000D03*
D18*
X42000000Y58000000D03*
D18*
X24000000Y50500000D03*
D18*
X14750000Y49000000D03*
D18*
X35750000Y48750000D03*
D18*
X11000000Y49000000D03*
D18*
X60500000Y59500000D03*
D18*
X56250000Y63250000D03*
D18*
X57000000Y61000000D03*
D18*
X13250000Y51000000D03*
D18*
X14750000Y51000000D03*
D18*
X43750000Y50750000D03*
D18*
X65250000Y60500000D03*
D18*
X24500000Y63500000D03*
D18*
X46750000Y48750000D03*
D18*
X58750000Y55250000D03*
D18*
X42000000Y47500000D03*
D18*
X57486091Y52513909D03*
D18*
X27750000Y58000000D03*
D18*
X60250000Y52750000D03*
D18*
X50000000Y49500000D03*
D18*
X42000000Y57000000D03*
D18*
X46000000Y49000000D03*
D18*
X60000000Y50000000D03*
D18*
X45250000Y50800000D03*
D18*
X60250000Y63500000D03*
D18*
X26000000Y50500000D03*
D18*
X52750000Y47750000D03*
D18*
X55250000Y52250000D03*
D18*
X59250000Y47000000D03*
D18*
X14750000Y54000000D03*
D18*
X54750000Y60750000D03*
D18*
X52750000Y52250000D03*
D18*
X13250000Y54000000D03*
D18*
X55250000Y49750000D03*
D18*
X66000000Y58000000D03*
D18*
X47500000Y55250000D03*
D18*
X53250000Y57750000D03*
D18*
X43000000Y55750000D03*
D18*
X45250000Y49500000D03*
D18*
X19750000Y49000000D03*
D18*
X41500000Y55750000D03*
D18*
X62750000Y62000000D03*
D18*
X35750000Y53250000D03*
D18*
X50500000Y50949998D03*
D18*
X40500000Y60000000D03*
D18*
X57250000Y64250000D03*
D18*
X56000000Y57250000D03*
D18*
X47750000Y53250000D03*
D18*
X57750000Y49500000D03*
D18*
X26000000Y62000000D03*
D18*
X17000000Y49000000D03*
D18*
X54476375Y47917313D03*
D18*
X48750000Y53000000D03*
D18*
X57000000Y57750000D03*
M02*
