%FSLAX46Y46*%
%MOMM*%
%ADD10C,0.200000*%
%AMPS13*
1,1,2.200000,0.000000,0.000000*
%
%ADD13PS13*%
%AMPS25*
1,1,0.800000,0.000000,0.000000*
%
%ADD25PS25*%
%AMPS16*
21,1,0.300000,0.450000,0.000000,0.000000,360.000000*
%
%ADD16PS16*%
%AMPS15*
21,1,0.300000,0.450000,0.000000,0.000000,180.000000*
%
%ADD15PS15*%
%AMPS31*
21,1,0.600000,1.900000,0.000000,0.000000,270.000000*
%
%ADD31PS31*%
%AMPS28*
21,1,0.600000,1.900000,0.000000,0.000000,90.000000*
%
%ADD28PS28*%
%AMPS29*
21,1,2.100000,2.800000,0.000000,0.000000,270.000000*
%
%ADD29PS29*%
%AMPS27*
21,1,2.100000,2.800000,0.000000,0.000000,90.000000*
%
%ADD27PS27*%
%AMPS20*
21,1,0.600000,1.950000,0.000000,0.000000,360.000000*
%
%ADD20PS20*%
%AMPS19*
21,1,0.600000,1.950000,0.000000,0.000000,180.000000*
%
%ADD19PS19*%
%AMPS34*
21,1,0.300000,0.600000,0.000000,0.000000,360.000000*
%
%ADD34PS34*%
%AMPS33*
21,1,0.300000,0.600000,0.000000,0.000000,270.000000*
%
%ADD33PS33*%
%AMPS35*
21,1,0.300000,0.600000,0.000000,0.000000,180.000000*
%
%ADD35PS35*%
%AMPS32*
21,1,0.300000,0.600000,0.000000,0.000000,90.000000*
%
%ADD32PS32*%
%AMPS37*
1,1,0.600000,0.000000,0.000000*
%
%ADD37PS37*%
%AMPS26*
21,1,1.300000,1.100000,0.000000,0.000000,360.000000*
1,1,1.100000,-0.650000,0.000000*
1,1,1.100000,0.650000,0.000000*
%
%ADD26PS26*%
%AMPS12*
1,1,0.360000,-0.220000,-0.195000*
1,1,0.360000,0.220000,0.195000*
1,1,0.360000,-0.220000,0.195000*
21,1,0.800000,0.390000,0.000000,0.000000,360.000000*
21,1,0.440000,0.750000,0.000000,0.000000,360.000000*
1,1,0.360000,0.220000,-0.195000*
%
%ADD12PS12*%
%AMPS18*
1,1,0.360000,-0.195000,0.220000*
1,1,0.360000,0.195000,-0.220000*
1,1,0.360000,0.195000,0.220000*
21,1,0.800000,0.390000,0.000000,0.000000,270.000000*
21,1,0.440000,0.750000,0.000000,0.000000,270.000000*
1,1,0.360000,-0.195000,-0.220000*
%
%ADD18PS18*%
%AMPS21*
1,1,0.360000,0.220000,0.195000*
1,1,0.360000,-0.220000,-0.195000*
1,1,0.360000,0.220000,-0.195000*
21,1,0.800000,0.390000,0.000000,0.000000,180.000000*
21,1,0.440000,0.750000,0.000000,0.000000,180.000000*
1,1,0.360000,-0.220000,0.195000*
%
%ADD21PS21*%
%AMPS30*
1,1,0.360000,0.195000,-0.220000*
1,1,0.360000,-0.195000,0.220000*
1,1,0.360000,-0.195000,-0.220000*
21,1,0.800000,0.390000,0.000000,0.000000,90.000000*
21,1,0.440000,0.750000,0.000000,0.000000,90.000000*
1,1,0.360000,0.195000,0.220000*
%
%ADD30PS30*%
%AMPS17*
1,1,0.240000,-0.330000,0.130000*
1,1,0.240000,0.330000,-0.130000*
1,1,0.240000,0.330000,0.130000*
21,1,0.500000,0.660000,0.000000,0.000000,270.000000*
21,1,0.260000,0.900000,0.000000,0.000000,270.000000*
1,1,0.240000,-0.330000,-0.130000*
%
%ADD17PS17*%
%AMPS24*
1,1,0.240000,0.130000,0.330000*
1,1,0.240000,-0.130000,-0.330000*
1,1,0.240000,0.130000,-0.330000*
21,1,0.500000,0.660000,0.000000,0.000000,180.000000*
21,1,0.260000,0.900000,0.000000,0.000000,180.000000*
1,1,0.240000,-0.130000,0.330000*
%
%ADD24PS24*%
%AMPS11*
1,1,0.240000,0.330000,-0.130000*
1,1,0.240000,-0.330000,0.130000*
1,1,0.240000,-0.330000,-0.130000*
21,1,0.500000,0.660000,0.000000,0.000000,90.000000*
21,1,0.260000,0.900000,0.000000,0.000000,90.000000*
1,1,0.240000,0.330000,0.130000*
%
%ADD11PS11*%
%AMPS22*
1,1,0.100000,-0.250000,-0.500000*
1,1,0.100000,0.250000,0.500000*
1,1,0.100000,-0.250000,0.500000*
21,1,0.600000,1.000000,0.000000,0.000000,360.000000*
21,1,0.500000,1.100000,0.000000,0.000000,360.000000*
1,1,0.100000,0.250000,-0.500000*
%
%ADD22PS22*%
%AMPS23*
1,1,0.100000,0.250000,0.500000*
1,1,0.100000,-0.250000,-0.500000*
1,1,0.100000,0.250000,-0.500000*
21,1,0.600000,1.000000,0.000000,0.000000,180.000000*
21,1,0.500000,1.100000,0.000000,0.000000,180.000000*
1,1,0.100000,-0.250000,0.500000*
%
%ADD23PS23*%
%AMPS36*
21,1,3.300000,3.300000,0.000000,0.000000,270.000000*
%
%ADD36PS36*%
%AMPS14*
1,1,0.787400,0.000000,0.000000*
%
%ADD14PS14*%
G01*
%LPD*%
G36*
X55400000Y26500000D02*
X55439004Y26507920D01*
X55471829Y26530425D01*
X55493277Y26563952D01*
X55500000Y26600000D01*
X55500000Y29400000D01*
X55492080Y29439004D01*
X55469575Y29471829D01*
X55436048Y29493277D01*
X55400000Y29500000D01*
X52600000Y29500000D01*
X52560996Y29492080D01*
X52528171Y29469575D01*
X52506723Y29436048D01*
X52500000Y29400000D01*
X52500000Y26600000D01*
X52507920Y26560996D01*
X52530425Y26528171D01*
X52563952Y26506723D01*
X52600000Y26500000D01*
X55400000Y26500000D01*
D02*
G37*
%LPD*%
G36*
X55400000Y72500000D02*
X55439004Y72507920D01*
X55471829Y72530425D01*
X55493277Y72563952D01*
X55500000Y72600000D01*
X55500000Y75400000D01*
X55492080Y75439004D01*
X55469575Y75471829D01*
X55436048Y75493277D01*
X55400000Y75500000D01*
X52600000Y75500000D01*
X52560996Y75492080D01*
X52528171Y75469575D01*
X52506723Y75436048D01*
X52500000Y75400000D01*
X52500000Y72600000D01*
X52507920Y72560996D01*
X52530425Y72528171D01*
X52563952Y72506723D01*
X52600000Y72500000D01*
X55400000Y72500000D01*
D02*
G37*
%LPD*%
G36*
X55400000Y3500000D02*
X55439004Y3507920D01*
X55471829Y3530425D01*
X55493277Y3563952D01*
X55500000Y3600000D01*
X55500000Y6400000D01*
X55492080Y6439004D01*
X55469575Y6471829D01*
X55436048Y6493277D01*
X55400000Y6500000D01*
X52600000Y6500000D01*
X52560996Y6492080D01*
X52528171Y6469575D01*
X52506723Y6436048D01*
X52500000Y6400000D01*
X52500000Y3600000D01*
X52507920Y3560996D01*
X52530425Y3528171D01*
X52563952Y3506723D01*
X52600000Y3500000D01*
X55400000Y3500000D01*
D02*
G37*
%LPD*%
G36*
X55400000Y49500000D02*
X55439004Y49507920D01*
X55471829Y49530425D01*
X55493277Y49563952D01*
X55500000Y49600000D01*
X55500000Y52400000D01*
X55492080Y52439004D01*
X55469575Y52471829D01*
X55436048Y52493277D01*
X55400000Y52500000D01*
X52600000Y52500000D01*
X52560996Y52492080D01*
X52528171Y52469575D01*
X52506723Y52436048D01*
X52500000Y52400000D01*
X52500000Y49600000D01*
X52507920Y49560996D01*
X52530425Y49528171D01*
X52563952Y49506723D01*
X52600000Y49500000D01*
X55400000Y49500000D01*
D02*
G37*
G01*
%LPD*%
D10*
X15250000Y27500000D02*
X24000000Y27500000D01*
D10*
X60000000Y32250000D02*
X58750000Y32250000D01*
D10*
X22245000Y24550000D02*
X25050000Y24550000D01*
D10*
X60500000Y36500000D02*
X60000000Y36500000D01*
D10*
X61300000Y37700000D02*
X61800000Y37700000D01*
D10*
X33664187Y38335813D02*
X34250000Y37750000D01*
D10*
X15895000Y25855000D02*
X15750000Y26000000D01*
D10*
X53250000Y33565714D02*
X55000000Y35315714D01*
D10*
X56000000Y36675000D02*
X56000000Y37100000D01*
D10*
X17165000Y25835000D02*
X17000000Y26000000D01*
D10*
X61650000Y28750000D02*
X60250000Y28750000D01*
D10*
X65250000Y38250000D02*
X65250000Y37500000D01*
D10*
X56750000Y25000000D02*
X61250000Y25000000D01*
D10*
X53750000Y24000000D02*
X53750000Y25650000D01*
D10*
X43000000Y37000000D02*
X43500000Y37000000D01*
D10*
X70833335Y40750000D02*
X70833335Y41666665D01*
D10*
X61650000Y37550000D02*
X61800000Y37700000D01*
D10*
X51250000Y28250000D02*
X50925020Y28574980D01*
D10*
X14625000Y25875000D02*
X14750000Y26000000D01*
D10*
X43000000Y34750000D02*
X43000000Y37000000D01*
D10*
X47250000Y31750000D02*
X42350000Y31750000D01*
D10*
X40500000Y39000000D02*
X41750000Y40250000D01*
D10*
X9750000Y39000000D02*
X10500000Y39750000D01*
D10*
X42350000Y32900000D02*
X42350000Y31750000D01*
D10*
X55450011Y38450011D02*
X55450011Y36700011D01*
D10*
X54750000Y31250000D02*
X53750000Y32250000D01*
D10*
X42000000Y26500000D02*
X43250000Y25250000D01*
D10*
X66000000Y39750000D02*
X68000000Y37750000D01*
D10*
X46250000Y25250000D02*
X46750000Y25750000D01*
D10*
X36000000Y26000000D02*
X35750000Y25750000D01*
D10*
X15895000Y29450000D02*
X15895000Y31105000D01*
D10*
X51650000Y27250000D02*
X50000000Y27250000D01*
D10*
X50500000Y27949998D02*
X46750002Y27949998D01*
D10*
X25750000Y26000000D02*
X26750000Y27000000D01*
D10*
X61650000Y27150000D02*
X61500000Y27000000D01*
D10*
X26500000Y28250000D02*
X25750000Y28250000D01*
D10*
X70000000Y41750000D02*
X59500000Y41750000D01*
D10*
X61800000Y41050000D02*
X62000000Y41250000D01*
D10*
X61650000Y29750000D02*
X60250000Y29750000D01*
D10*
X21000000Y31750000D02*
X24500000Y31750000D01*
D10*
X65250000Y39750000D02*
X66000000Y39750000D01*
D10*
X56350000Y26750000D02*
X57500000Y26750000D01*
D10*
X13355000Y30895000D02*
X13250000Y31000000D01*
D10*
X74790000Y35540000D02*
X73500000Y34250000D01*
D10*
X13250000Y27519236D02*
X13250000Y28000000D01*
D10*
X18435000Y24550000D02*
X18435000Y25935000D01*
D10*
X27750000Y35205202D02*
X27750000Y35000000D01*
D10*
X23250000Y28000000D02*
X24000000Y28750000D01*
D10*
X56000000Y35750000D02*
X57175000Y35750000D01*
D10*
X45000000Y29250000D02*
X45750000Y28500000D01*
D10*
X33839147Y41410853D02*
X37000000Y38250000D01*
D10*
X70333335Y41416665D02*
X70000000Y41750000D01*
D10*
X59750000Y41250000D02*
X61600000Y41250000D01*
D10*
X31885853Y41410853D02*
X33839147Y41410853D01*
D10*
X40684286Y32750000D02*
X41500000Y32750000D01*
D10*
X16040000Y28000000D02*
X23250000Y28000000D01*
D10*
X45000000Y29500000D02*
X45000000Y29250000D01*
D10*
X57250000Y37175000D02*
X57250000Y37750000D01*
D10*
X37495846Y30495846D02*
X36500000Y29500000D01*
D10*
X61650000Y30750000D02*
X60000000Y30750000D01*
D10*
X37495846Y33350000D02*
X37495846Y30495846D01*
D10*
X54250000Y25650000D02*
X54250000Y25143688D01*
D10*
X60000000Y30750000D02*
X59750000Y31000000D01*
D10*
X54750000Y30350000D02*
X54750000Y31250000D01*
D10*
X50250000Y24000000D02*
X49250000Y24000000D01*
D10*
X14119247Y26649989D02*
X13250000Y27519236D01*
D10*
X59750000Y31000000D02*
X58750000Y31000000D01*
D10*
X31784993Y36330853D02*
X37419147Y36330853D01*
D10*
X57722182Y29750000D02*
X57486091Y29513909D01*
D10*
X63500000Y41250000D02*
X62000000Y41250000D01*
D10*
X52750000Y24750000D02*
X47000000Y24750000D01*
D10*
X61000000Y39000000D02*
X62750000Y39000000D01*
D10*
X56250000Y24500000D02*
X56750000Y25000000D01*
D10*
X61500000Y27000000D02*
X60000000Y27000000D01*
D10*
X38241692Y37000000D02*
X40500000Y37000000D01*
D10*
X57250000Y35675000D02*
X58175000Y35675000D01*
D10*
X72433335Y39500000D02*
X72433335Y36183335D01*
D10*
X51650000Y26750000D02*
X51000000Y26750000D01*
D10*
X31050033Y35795813D02*
X31050033Y32449967D01*
D10*
X52250000Y30350000D02*
X52250000Y30750000D01*
D10*
X55000000Y36250000D02*
X55000000Y35750000D01*
D10*
X47000000Y26750000D02*
X47250000Y26500000D01*
D10*
X64750000Y39750000D02*
X65250000Y39750000D01*
D10*
X58750000Y31000000D02*
X58500000Y31250000D01*
D10*
X14750000Y28000000D02*
X15250000Y27500000D01*
D10*
X77856666Y35540000D02*
X74790000Y35540000D01*
D10*
X43500000Y29750000D02*
X44750000Y28500000D01*
D10*
X58500000Y40000000D02*
X59750000Y41250000D01*
D10*
X37495846Y36004154D02*
X37495846Y33350000D01*
D10*
X27500000Y29500000D02*
X26000000Y31000000D01*
D10*
X35250000Y41250000D02*
X57250000Y41250000D01*
D10*
X44750000Y27250000D02*
X50000000Y27250000D01*
D10*
X31050033Y40575033D02*
X31885853Y41410853D01*
D10*
X19705000Y29450000D02*
X19705000Y30455000D01*
D10*
X54250000Y31000000D02*
X53250000Y32000000D01*
D10*
X24000000Y28750000D02*
X26750000Y28750000D01*
D10*
X44500000Y27500000D02*
X44750000Y27250000D01*
D10*
X45399980Y34100020D02*
X45649980Y34100020D01*
D10*
X70250000Y42250000D02*
X59250000Y42250000D01*
D10*
X45250000Y34250000D02*
X45399980Y34100020D01*
D10*
X14523334Y39750000D02*
X10500000Y39750000D01*
D10*
X64200000Y40300000D02*
X64750000Y39750000D01*
D10*
X53250000Y32000000D02*
X53250000Y33565714D01*
D10*
X50699998Y27750000D02*
X50500000Y27949998D01*
D10*
X45200000Y27800000D02*
X45250000Y27800000D01*
D10*
X61650000Y33350000D02*
X61650000Y37550000D01*
D10*
X41750000Y26000000D02*
X36000000Y26000000D01*
D10*
X48331170Y28574980D02*
X47750000Y29156150D01*
D10*
X14523334Y32476666D02*
X14523334Y35540000D01*
D10*
X63700000Y40300000D02*
X64200000Y40300000D01*
D10*
X42350000Y29750000D02*
X43500000Y29750000D01*
D10*
X31417513Y37968333D02*
X31647513Y37968333D01*
D10*
X45250000Y26500000D02*
X45500000Y26750000D01*
D10*
X37419147Y36330853D02*
X37495846Y36254154D01*
D10*
X71633335Y38500000D02*
X71633335Y39950000D01*
D10*
X56350000Y29750000D02*
X56750000Y29750000D01*
D10*
X55750000Y24500000D02*
X56250000Y24500000D01*
D10*
X17250000Y35750000D02*
X21502040Y35750000D01*
D10*
X43922414Y30750000D02*
X44086207Y30913793D01*
D10*
X58175000Y35675000D02*
X58500000Y36000000D01*
D10*
X15895000Y28145000D02*
X16040000Y28000000D01*
D10*
X60250000Y39750000D02*
X61000000Y39000000D01*
D10*
X34500000Y42000000D02*
X35250000Y41250000D01*
D10*
X59500000Y41750000D02*
X56000000Y38250000D01*
D10*
X63500000Y31500000D02*
X63250000Y31750000D01*
D10*
X61800000Y40300000D02*
X61800000Y41050000D01*
D10*
X15500000Y32250000D02*
X15500000Y34000000D01*
D10*
X56000000Y38250000D02*
X56000000Y37100000D01*
D10*
X70333335Y40500000D02*
X70333335Y41416665D01*
D10*
X42350000Y30750000D02*
X43922414Y30750000D01*
D10*
X58500000Y36000000D02*
X58500000Y40000000D01*
D10*
X42250000Y27000000D02*
X43500000Y25750000D01*
D10*
X47000000Y24750000D02*
X43000000Y24750000D01*
D10*
X70833335Y40000000D02*
X70333335Y40500000D01*
D10*
X22245000Y29450000D02*
X22245000Y30995000D01*
D10*
X27000000Y28500000D02*
X37500000Y28500000D01*
D10*
X56750000Y29750000D02*
X57750000Y30750000D01*
D10*
X56350000Y28750000D02*
X57500000Y28750000D01*
D10*
X57175000Y35750000D02*
X57250000Y35675000D01*
D10*
X63500000Y27250000D02*
X63500000Y31500000D01*
D10*
X51250000Y31000000D02*
X50250000Y30000000D01*
D10*
X44086207Y30913793D02*
X44913793Y30913793D01*
D10*
X55250000Y31250000D02*
X56500000Y32500000D01*
D10*
X41750000Y40250000D02*
X56250000Y40250000D01*
D10*
X18435000Y25935000D02*
X18500000Y26000000D01*
D10*
X25750000Y28250000D02*
X24149989Y26649989D01*
D10*
X47750000Y29156150D02*
X47750000Y30250000D01*
D10*
X44750000Y28250000D02*
X45200000Y27800000D01*
D10*
X68250000Y34250000D02*
X66000000Y36500000D01*
D10*
X43250000Y25250000D02*
X46250000Y25250000D01*
D10*
X30147513Y36698333D02*
X31050033Y35795813D01*
D10*
X71633335Y39950000D02*
X70833335Y40750000D01*
D10*
X53750000Y32250000D02*
X53750000Y33500000D01*
D10*
X20975000Y24550000D02*
X20975000Y25725000D01*
D10*
X42000000Y34000000D02*
X42250000Y34000000D01*
D10*
X47000000Y24000000D02*
X47000000Y24750000D01*
D10*
X52250000Y30750000D02*
X52000000Y31000000D01*
D10*
X43000000Y33500000D02*
X43750000Y34250000D01*
D10*
X60750000Y38250000D02*
X61300000Y37700000D01*
D10*
X61650000Y27750000D02*
X61650000Y27150000D01*
D10*
X17165000Y24550000D02*
X17165000Y25835000D01*
D10*
X37495846Y36254154D02*
X38241692Y37000000D01*
D10*
X49750000Y38250000D02*
X52500000Y35500000D01*
D10*
X31417513Y36698333D02*
X31784993Y36330853D01*
D10*
X53750000Y33500000D02*
X55500000Y35250000D01*
D10*
X73500000Y34250000D02*
X68250000Y34250000D01*
D10*
X55250000Y24000000D02*
X55750000Y24500000D01*
D10*
X14625000Y30875000D02*
X14750000Y31000000D01*
D10*
X9750000Y25250000D02*
X9750000Y39000000D01*
D10*
X26000000Y31000000D02*
X26000000Y39000000D01*
D10*
X43500000Y37000000D02*
X44960000Y35540000D01*
D10*
X46750002Y27949998D02*
X46750000Y27950000D01*
D10*
X39500000Y27500000D02*
X26000000Y27500000D01*
D10*
X58500000Y24000000D02*
X59250000Y24000000D01*
D10*
X41500000Y37000000D02*
X40500000Y37000000D01*
D10*
X57750000Y30750000D02*
X57750000Y33000000D01*
D10*
X60250000Y38250000D02*
X60750000Y38250000D01*
D10*
X65250000Y38250000D02*
X64500000Y39000000D01*
D10*
X26750000Y28000000D02*
X26500000Y28250000D01*
D10*
X68500000Y35250000D02*
X70000000Y35250000D01*
D10*
X57000000Y34250000D02*
X57000000Y34750000D01*
D10*
X15500000Y34000000D02*
X17250000Y35750000D01*
D10*
X14625000Y24550000D02*
X14625000Y25875000D01*
D10*
X55500000Y35250000D02*
X55500000Y35750000D01*
D10*
X21502040Y35750000D02*
X27752040Y42000000D01*
D10*
X56500000Y33750000D02*
X56000000Y34250000D01*
D10*
X46500000Y31000000D02*
X45000000Y31000000D01*
D10*
X50500000Y27750000D02*
X50699998Y27750000D01*
D10*
X57500000Y26750000D02*
X57750000Y26500000D01*
D10*
X63500000Y39000000D02*
X62750000Y39000000D01*
D10*
X48250000Y30750000D02*
X47250000Y31750000D01*
D10*
X55750000Y30350000D02*
X55750000Y31000000D01*
D10*
X44960000Y35540000D02*
X46190000Y35540000D01*
D10*
X45649980Y34100020D02*
X47500000Y32250000D01*
D10*
X17165000Y29450000D02*
X17165000Y30585000D01*
D10*
X21250000Y26000000D02*
X25750000Y26000000D01*
D10*
X41000000Y29750000D02*
X39250000Y28000000D01*
D10*
X72433335Y36183335D02*
X71500000Y35250000D01*
D10*
X13305000Y24500000D02*
X13355000Y24550000D01*
D10*
X50925020Y28574980D02*
X48331170Y28574980D01*
D10*
X49500000Y30750000D02*
X48250000Y30750000D01*
D10*
X37000000Y38250000D02*
X49750000Y38250000D01*
D10*
X55250000Y24000000D02*
X57000000Y24000000D01*
D10*
X42350000Y27750000D02*
X43750000Y27750000D01*
D10*
X34250000Y37750000D02*
X49500000Y37750000D01*
D10*
X36500000Y29500000D02*
X27500000Y29500000D01*
D10*
X59250000Y42250000D02*
X55450011Y38450011D01*
D10*
X57750000Y33000000D02*
X59750000Y35000000D01*
D10*
X51650000Y28250000D02*
X51250000Y28250000D01*
D10*
X41900000Y24600000D02*
X42000000Y24500000D01*
D10*
X37495846Y36254154D02*
X37495846Y36004154D01*
D10*
X11750000Y24500000D02*
X10500000Y24500000D01*
D10*
X43750000Y34250000D02*
X45250000Y34250000D01*
D10*
X26750000Y28750000D02*
X27000000Y28500000D01*
D10*
X42350000Y28750000D02*
X43527834Y28750000D01*
D10*
X55750000Y24500000D02*
X55750000Y25650000D01*
D10*
X20975000Y25725000D02*
X21250000Y26000000D01*
D10*
X55000000Y37500000D02*
X54750000Y37750000D01*
D10*
X50000000Y26500000D02*
X50750000Y26500000D01*
D10*
X19705000Y30455000D02*
X21000000Y31750000D01*
D10*
X68000000Y37750000D02*
X68000000Y35750000D01*
D10*
X48750000Y29250000D02*
X48750000Y30000000D01*
D10*
X24149989Y26649989D02*
X14119247Y26649989D01*
D10*
X60000000Y36500000D02*
X59250000Y37250000D01*
D10*
X42350000Y29750000D02*
X41000000Y29750000D01*
D10*
X70833335Y41666665D02*
X70250000Y42250000D01*
D10*
X37500000Y28500000D02*
X40750000Y31750000D01*
D10*
X15895000Y31105000D02*
X14523334Y32476666D01*
D10*
X64000000Y24600000D02*
X62350000Y24600000D01*
D10*
X48500000Y24000000D02*
X49250000Y24000000D01*
D10*
X27000000Y26500000D02*
X42000000Y26500000D01*
D10*
X51000000Y26750000D02*
X50750000Y26500000D01*
D10*
X42350000Y28750000D02*
X40750000Y28750000D01*
D10*
X27250000Y29000000D02*
X36934286Y29000000D01*
D10*
X17165000Y30585000D02*
X15500000Y32250000D01*
D10*
X33250000Y30250000D02*
X35750000Y30250000D01*
D10*
X39250000Y28000000D02*
X26750000Y28000000D01*
D10*
X51144286Y35540000D02*
X52750000Y33934286D01*
D10*
X28877513Y36698333D02*
X28877513Y36332715D01*
D10*
X40000000Y24600000D02*
X41900000Y24600000D01*
D10*
X63700000Y40300000D02*
X63700000Y41050000D01*
D10*
X57500000Y28750000D02*
X58500000Y29750000D01*
D10*
X40000000Y34900000D02*
X41900000Y34900000D01*
D10*
X24500000Y31750000D02*
X27250000Y29000000D01*
D10*
X37495846Y33350000D02*
X41900000Y33350000D01*
D10*
X63700000Y41050000D02*
X63500000Y41250000D01*
D10*
X52000000Y31000000D02*
X51250000Y31000000D01*
D10*
X44750000Y28500000D02*
X44750000Y28250000D01*
D10*
X55000000Y37100000D02*
X55000000Y37500000D01*
D10*
X64500000Y39000000D02*
X63500000Y39000000D01*
D10*
X59750000Y35000000D02*
X60500000Y35000000D01*
D10*
X70833335Y39500000D02*
X70833335Y40000000D01*
D10*
X31784993Y38335813D02*
X33664187Y38335813D01*
D10*
X45750000Y25750000D02*
X46000000Y26000000D01*
D10*
X31050033Y38870853D02*
X31050033Y40575033D01*
D10*
X62350000Y24600000D02*
X62250000Y24500000D01*
D10*
X52750000Y33934286D02*
X52750000Y30350000D01*
D10*
X57000000Y32250000D02*
X57000000Y34250000D01*
D10*
X55450011Y36700011D02*
X55000000Y36250000D01*
D10*
X59250000Y37250000D02*
X59250000Y39250000D01*
D10*
X55250000Y30350000D02*
X55250000Y31250000D01*
D10*
X22245000Y30995000D02*
X22250000Y31000000D01*
D10*
X68000000Y35750000D02*
X68500000Y35250000D01*
D10*
X61500000Y33500000D02*
X60500000Y33500000D01*
D10*
X65900000Y34900000D02*
X66000000Y35000000D01*
D10*
X61250000Y25000000D02*
X63500000Y27250000D01*
D10*
X53750000Y24000000D02*
X51750000Y24000000D01*
D10*
X60250000Y38250000D02*
X60250000Y37250000D01*
D10*
X14523334Y38250000D02*
X14523334Y35540000D01*
D10*
X23750000Y39750000D02*
X14523334Y39750000D01*
D10*
X58500000Y29750000D02*
X57722182Y29750000D01*
D10*
X50500000Y27750000D02*
X51650000Y27750000D01*
D10*
X44913793Y30913793D02*
X45000000Y31000000D01*
D10*
X15895000Y24550000D02*
X15895000Y25855000D01*
D10*
X27752040Y42000000D02*
X34500000Y42000000D01*
D10*
X55500000Y36175000D02*
X56000000Y36675000D01*
D10*
X43527834Y28750000D02*
X44500000Y27777834D01*
D10*
X41900000Y33350000D02*
X42350000Y32900000D01*
D10*
X31050033Y32449967D02*
X33250000Y30250000D01*
D10*
X11750000Y26000000D02*
X11000000Y26000000D01*
D10*
X31417513Y37968333D02*
X31784993Y38335813D01*
D10*
X54250000Y30350000D02*
X54250000Y31000000D01*
D10*
X63250000Y31750000D02*
X61650000Y31750000D01*
D10*
X66000000Y36500000D02*
X62750000Y36500000D01*
D10*
X61650000Y31750000D02*
X61650000Y33350000D01*
D10*
X40750000Y28750000D02*
X39500000Y27500000D01*
D10*
X28877513Y36332715D02*
X27750000Y35205202D01*
D10*
X43000000Y32750000D02*
X43000000Y33500000D01*
D10*
X52500000Y34750000D02*
X53250000Y34750000D01*
D10*
X50250000Y30000000D02*
X49500000Y30750000D01*
D10*
X52500000Y35500000D02*
X53250000Y35500000D01*
D10*
X19705000Y24550000D02*
X19705000Y25955000D01*
D10*
X60500000Y35000000D02*
X60500000Y36500000D01*
D10*
X55000000Y35315714D02*
X55000000Y35750000D01*
D10*
X44500000Y27777834D02*
X44500000Y27500000D01*
D10*
X19705000Y25955000D02*
X19750000Y26000000D01*
D10*
X46190000Y35540000D02*
X51144286Y35540000D01*
D10*
X49500000Y37750000D02*
X52500000Y34750000D01*
D10*
X43000000Y24750000D02*
X41750000Y26000000D01*
D10*
X46500000Y29500000D02*
X46500000Y28200000D01*
D10*
X46500000Y28200000D02*
X46750000Y27950000D01*
D10*
X55500000Y35750000D02*
X55500000Y36175000D01*
D10*
X57250000Y37750000D02*
X57000000Y38000000D01*
D10*
X47250000Y26500000D02*
X50000000Y26500000D01*
D10*
X24500000Y40500000D02*
X23750000Y39750000D01*
D10*
X56500000Y32500000D02*
X56500000Y33750000D01*
D10*
X54250000Y25143688D02*
X54476375Y24917313D01*
D10*
X36934286Y29000000D02*
X40684286Y32750000D01*
D10*
X42250000Y34000000D02*
X43000000Y34750000D01*
D10*
X30147513Y37968333D02*
X31050033Y38870853D01*
D10*
X55750000Y31000000D02*
X57000000Y32250000D01*
D10*
X13355000Y29450000D02*
X13355000Y30895000D01*
D10*
X62750000Y39000000D02*
X62750000Y40300000D01*
D10*
X43500000Y25750000D02*
X45750000Y25750000D01*
D10*
X41900000Y34900000D02*
X42000000Y35000000D01*
D10*
X61600000Y41250000D02*
X61800000Y41050000D01*
D10*
X14625000Y29450000D02*
X14625000Y30875000D01*
D10*
X45500000Y26750000D02*
X47000000Y26750000D01*
D10*
X17165000Y29450000D02*
X18435000Y29450000D01*
D10*
X15895000Y29450000D02*
X15895000Y28145000D01*
D10*
X64000000Y34900000D02*
X65900000Y34900000D01*
D10*
X26750000Y27000000D02*
X42250000Y27000000D01*
D10*
X11750000Y24500000D02*
X13305000Y24500000D01*
D10*
X10500000Y24500000D02*
X9750000Y25250000D01*
D10*
X60250000Y39750000D02*
X60250000Y40500000D01*
D10*
X25050000Y24550000D02*
X27000000Y26500000D01*
D10*
X50250000Y30000000D02*
X50250000Y29250000D01*
D10*
X61650000Y33350000D02*
X61500000Y33500000D01*
D10*
X15250000Y73500000D02*
X24000000Y73500000D01*
D10*
X60000000Y78250000D02*
X58750000Y78250000D01*
D10*
X22245000Y70550000D02*
X25050000Y70550000D01*
D10*
X60500000Y82500000D02*
X60000000Y82500000D01*
D10*
X61300000Y83700000D02*
X61800000Y83700000D01*
D10*
X33664187Y84335813D02*
X34250000Y83750000D01*
D10*
X15895000Y71855000D02*
X15750000Y72000000D01*
D10*
X53250000Y79565714D02*
X55000000Y81315714D01*
D10*
X56000000Y82675000D02*
X56000000Y83100000D01*
D10*
X17165000Y71835000D02*
X17000000Y72000000D01*
D10*
X61650000Y74750000D02*
X60250000Y74750000D01*
D10*
X65250000Y84250000D02*
X65250000Y83500000D01*
D10*
X56750000Y71000000D02*
X61250000Y71000000D01*
D10*
X53750000Y70000000D02*
X53750000Y71650000D01*
D10*
X43000000Y83000000D02*
X43500000Y83000000D01*
D10*
X70833335Y86750000D02*
X70833335Y87666665D01*
D10*
X61650000Y83550000D02*
X61800000Y83700000D01*
D10*
X51250000Y74250000D02*
X50925020Y74574980D01*
D10*
X14625000Y71875000D02*
X14750000Y72000000D01*
D10*
X43000000Y80750000D02*
X43000000Y83000000D01*
D10*
X47250000Y77750000D02*
X42350000Y77750000D01*
D10*
X40500000Y85000000D02*
X41750000Y86250000D01*
D10*
X9750000Y85000000D02*
X10500000Y85750000D01*
D10*
X42350000Y78900000D02*
X42350000Y77750000D01*
D10*
X55450011Y84450011D02*
X55450011Y82700011D01*
D10*
X54750000Y77250000D02*
X53750000Y78250000D01*
D10*
X42000000Y72500000D02*
X43250000Y71250000D01*
D10*
X66000000Y85750000D02*
X68000000Y83750000D01*
D10*
X46250000Y71250000D02*
X46750000Y71750000D01*
D10*
X36000000Y72000000D02*
X35750000Y71750000D01*
D10*
X15895000Y75450000D02*
X15895000Y77105000D01*
D10*
X51650000Y73250000D02*
X50000000Y73250000D01*
D10*
X50500000Y73949998D02*
X46750002Y73949998D01*
D10*
X25750000Y72000000D02*
X26750000Y73000000D01*
D10*
X61650000Y73150000D02*
X61500000Y73000000D01*
D10*
X26500000Y74250000D02*
X25750000Y74250000D01*
D10*
X70000000Y87750000D02*
X59500000Y87750000D01*
D10*
X61800000Y87050000D02*
X62000000Y87250000D01*
D10*
X61650000Y75750000D02*
X60250000Y75750000D01*
D10*
X21000000Y77750000D02*
X24500000Y77750000D01*
D10*
X65250000Y85750000D02*
X66000000Y85750000D01*
D10*
X56350000Y72750000D02*
X57500000Y72750000D01*
D10*
X13355000Y76895000D02*
X13250000Y77000000D01*
D10*
X74790000Y81540000D02*
X73500000Y80250000D01*
D10*
X13250000Y73519236D02*
X13250000Y74000000D01*
D10*
X18435000Y70550000D02*
X18435000Y71935000D01*
D10*
X27750000Y81205202D02*
X27750000Y81000000D01*
D10*
X23250000Y74000000D02*
X24000000Y74750000D01*
D10*
X56000000Y81750000D02*
X57175000Y81750000D01*
D10*
X45000000Y75250000D02*
X45750000Y74500000D01*
D10*
X33839147Y87410853D02*
X37000000Y84250000D01*
D10*
X70333335Y87416665D02*
X70000000Y87750000D01*
D10*
X59750000Y87250000D02*
X61600000Y87250000D01*
D10*
X31885853Y87410853D02*
X33839147Y87410853D01*
D10*
X40684286Y78750000D02*
X41500000Y78750000D01*
D10*
X16040000Y74000000D02*
X23250000Y74000000D01*
D10*
X45000000Y75500000D02*
X45000000Y75250000D01*
D10*
X57250000Y83175000D02*
X57250000Y83750000D01*
D10*
X37495846Y76495846D02*
X36500000Y75500000D01*
D10*
X61650000Y76750000D02*
X60000000Y76750000D01*
D10*
X37495846Y79350000D02*
X37495846Y76495846D01*
D10*
X54250000Y71650000D02*
X54250000Y71143688D01*
D10*
X60000000Y76750000D02*
X59750000Y77000000D01*
D10*
X54750000Y76350000D02*
X54750000Y77250000D01*
D10*
X50250000Y70000000D02*
X49250000Y70000000D01*
D10*
X14119247Y72649989D02*
X13250000Y73519236D01*
D10*
X59750000Y77000000D02*
X58750000Y77000000D01*
D10*
X31784993Y82330853D02*
X37419147Y82330853D01*
D10*
X57722182Y75750000D02*
X57486091Y75513909D01*
D10*
X63500000Y87250000D02*
X62000000Y87250000D01*
D10*
X52750000Y70750000D02*
X47000000Y70750000D01*
D10*
X61000000Y85000000D02*
X62750000Y85000000D01*
D10*
X56250000Y70500000D02*
X56750000Y71000000D01*
D10*
X61500000Y73000000D02*
X60000000Y73000000D01*
D10*
X38241692Y83000000D02*
X40500000Y83000000D01*
D10*
X57250000Y81675000D02*
X58175000Y81675000D01*
D10*
X72433335Y85500000D02*
X72433335Y82183335D01*
D10*
X51650000Y72750000D02*
X51000000Y72750000D01*
D10*
X31050033Y81795813D02*
X31050033Y78449967D01*
D10*
X52250000Y76350000D02*
X52250000Y76750000D01*
D10*
X55000000Y82250000D02*
X55000000Y81750000D01*
D10*
X47000000Y72750000D02*
X47250000Y72500000D01*
D10*
X64750000Y85750000D02*
X65250000Y85750000D01*
D10*
X58750000Y77000000D02*
X58500000Y77250000D01*
D10*
X14750000Y74000000D02*
X15250000Y73500000D01*
D10*
X77856666Y81540000D02*
X74790000Y81540000D01*
D10*
X43500000Y75750000D02*
X44750000Y74500000D01*
D10*
X58500000Y86000000D02*
X59750000Y87250000D01*
D10*
X37495846Y82004154D02*
X37495846Y79350000D01*
D10*
X27500000Y75500000D02*
X26000000Y77000000D01*
D10*
X35250000Y87250000D02*
X57250000Y87250000D01*
D10*
X44750000Y73250000D02*
X50000000Y73250000D01*
D10*
X31050033Y86575033D02*
X31885853Y87410853D01*
D10*
X19705000Y75450000D02*
X19705000Y76455000D01*
D10*
X54250000Y77000000D02*
X53250000Y78000000D01*
D10*
X24000000Y74750000D02*
X26750000Y74750000D01*
D10*
X44500000Y73500000D02*
X44750000Y73250000D01*
D10*
X45399980Y80100020D02*
X45649980Y80100020D01*
D10*
X70250000Y88250000D02*
X59250000Y88250000D01*
D10*
X45250000Y80250000D02*
X45399980Y80100020D01*
D10*
X14523334Y85750000D02*
X10500000Y85750000D01*
D10*
X64200000Y86300000D02*
X64750000Y85750000D01*
D10*
X53250000Y78000000D02*
X53250000Y79565714D01*
D10*
X50699998Y73750000D02*
X50500000Y73949998D01*
D10*
X45200000Y73800000D02*
X45250000Y73800000D01*
D10*
X61650000Y79350000D02*
X61650000Y83550000D01*
D10*
X41750000Y72000000D02*
X36000000Y72000000D01*
D10*
X48331170Y74574980D02*
X47750000Y75156150D01*
D10*
X14523334Y78476666D02*
X14523334Y81540000D01*
D10*
X63700000Y86300000D02*
X64200000Y86300000D01*
D10*
X42350000Y75750000D02*
X43500000Y75750000D01*
D10*
X31417513Y83968333D02*
X31647513Y83968333D01*
D10*
X45250000Y72500000D02*
X45500000Y72750000D01*
D10*
X37419147Y82330853D02*
X37495846Y82254154D01*
D10*
X71633335Y84500000D02*
X71633335Y85950000D01*
D10*
X56350000Y75750000D02*
X56750000Y75750000D01*
D10*
X55750000Y70500000D02*
X56250000Y70500000D01*
D10*
X17250000Y81750000D02*
X21502040Y81750000D01*
D10*
X43922414Y76750000D02*
X44086207Y76913793D01*
D10*
X58175000Y81675000D02*
X58500000Y82000000D01*
D10*
X15895000Y74145000D02*
X16040000Y74000000D01*
D10*
X60250000Y85750000D02*
X61000000Y85000000D01*
D10*
X34500000Y88000000D02*
X35250000Y87250000D01*
D10*
X59500000Y87750000D02*
X56000000Y84250000D01*
D10*
X63500000Y77500000D02*
X63250000Y77750000D01*
D10*
X61800000Y86300000D02*
X61800000Y87050000D01*
D10*
X15500000Y78250000D02*
X15500000Y80000000D01*
D10*
X56000000Y84250000D02*
X56000000Y83100000D01*
D10*
X70333335Y86500000D02*
X70333335Y87416665D01*
D10*
X42350000Y76750000D02*
X43922414Y76750000D01*
D10*
X58500000Y82000000D02*
X58500000Y86000000D01*
D10*
X42250000Y73000000D02*
X43500000Y71750000D01*
D10*
X47000000Y70750000D02*
X43000000Y70750000D01*
D10*
X70833335Y86000000D02*
X70333335Y86500000D01*
D10*
X22245000Y75450000D02*
X22245000Y76995000D01*
D10*
X27000000Y74500000D02*
X37500000Y74500000D01*
D10*
X56750000Y75750000D02*
X57750000Y76750000D01*
D10*
X56350000Y74750000D02*
X57500000Y74750000D01*
D10*
X57175000Y81750000D02*
X57250000Y81675000D01*
D10*
X63500000Y73250000D02*
X63500000Y77500000D01*
D10*
X51250000Y77000000D02*
X50250000Y76000000D01*
D10*
X44086207Y76913793D02*
X44913793Y76913793D01*
D10*
X55250000Y77250000D02*
X56500000Y78500000D01*
D10*
X41750000Y86250000D02*
X56250000Y86250000D01*
D10*
X18435000Y71935000D02*
X18500000Y72000000D01*
D10*
X25750000Y74250000D02*
X24149989Y72649989D01*
D10*
X47750000Y75156150D02*
X47750000Y76250000D01*
D10*
X44750000Y74250000D02*
X45200000Y73800000D01*
D10*
X68250000Y80250000D02*
X66000000Y82500000D01*
D10*
X43250000Y71250000D02*
X46250000Y71250000D01*
D10*
X30147513Y82698333D02*
X31050033Y81795813D01*
D10*
X71633335Y85950000D02*
X70833335Y86750000D01*
D10*
X53750000Y78250000D02*
X53750000Y79500000D01*
D10*
X20975000Y70550000D02*
X20975000Y71725000D01*
D10*
X42000000Y80000000D02*
X42250000Y80000000D01*
D10*
X47000000Y70000000D02*
X47000000Y70750000D01*
D10*
X52250000Y76750000D02*
X52000000Y77000000D01*
D10*
X43000000Y79500000D02*
X43750000Y80250000D01*
D10*
X60750000Y84250000D02*
X61300000Y83700000D01*
D10*
X61650000Y73750000D02*
X61650000Y73150000D01*
D10*
X17165000Y70550000D02*
X17165000Y71835000D01*
D10*
X37495846Y82254154D02*
X38241692Y83000000D01*
D10*
X49750000Y84250000D02*
X52500000Y81500000D01*
D10*
X31417513Y82698333D02*
X31784993Y82330853D01*
D10*
X53750000Y79500000D02*
X55500000Y81250000D01*
D10*
X73500000Y80250000D02*
X68250000Y80250000D01*
D10*
X55250000Y70000000D02*
X55750000Y70500000D01*
D10*
X14625000Y76875000D02*
X14750000Y77000000D01*
D10*
X9750000Y71250000D02*
X9750000Y85000000D01*
D10*
X26000000Y77000000D02*
X26000000Y85000000D01*
D10*
X43500000Y83000000D02*
X44960000Y81540000D01*
D10*
X46750002Y73949998D02*
X46750000Y73950000D01*
D10*
X39500000Y73500000D02*
X26000000Y73500000D01*
D10*
X58500000Y70000000D02*
X59250000Y70000000D01*
D10*
X41500000Y83000000D02*
X40500000Y83000000D01*
D10*
X57750000Y76750000D02*
X57750000Y79000000D01*
D10*
X60250000Y84250000D02*
X60750000Y84250000D01*
D10*
X65250000Y84250000D02*
X64500000Y85000000D01*
D10*
X26750000Y74000000D02*
X26500000Y74250000D01*
D10*
X68500000Y81250000D02*
X70000000Y81250000D01*
D10*
X57000000Y80250000D02*
X57000000Y80750000D01*
D10*
X15500000Y80000000D02*
X17250000Y81750000D01*
D10*
X14625000Y70550000D02*
X14625000Y71875000D01*
D10*
X55500000Y81250000D02*
X55500000Y81750000D01*
D10*
X21502040Y81750000D02*
X27752040Y88000000D01*
D10*
X56500000Y79750000D02*
X56000000Y80250000D01*
D10*
X46500000Y77000000D02*
X45000000Y77000000D01*
D10*
X50500000Y73750000D02*
X50699998Y73750000D01*
D10*
X57500000Y72750000D02*
X57750000Y72500000D01*
D10*
X63500000Y85000000D02*
X62750000Y85000000D01*
D10*
X48250000Y76750000D02*
X47250000Y77750000D01*
D10*
X55750000Y76350000D02*
X55750000Y77000000D01*
D10*
X44960000Y81540000D02*
X46190000Y81540000D01*
D10*
X45649980Y80100020D02*
X47500000Y78250000D01*
D10*
X17165000Y75450000D02*
X17165000Y76585000D01*
D10*
X21250000Y72000000D02*
X25750000Y72000000D01*
D10*
X41000000Y75750000D02*
X39250000Y74000000D01*
D10*
X72433335Y82183335D02*
X71500000Y81250000D01*
D10*
X13305000Y70500000D02*
X13355000Y70550000D01*
D10*
X50925020Y74574980D02*
X48331170Y74574980D01*
D10*
X49500000Y76750000D02*
X48250000Y76750000D01*
D10*
X37000000Y84250000D02*
X49750000Y84250000D01*
D10*
X55250000Y70000000D02*
X57000000Y70000000D01*
D10*
X42350000Y73750000D02*
X43750000Y73750000D01*
D10*
X34250000Y83750000D02*
X49500000Y83750000D01*
D10*
X36500000Y75500000D02*
X27500000Y75500000D01*
D10*
X59250000Y88250000D02*
X55450011Y84450011D01*
D10*
X57750000Y79000000D02*
X59750000Y81000000D01*
D10*
X51650000Y74250000D02*
X51250000Y74250000D01*
D10*
X41900000Y70600000D02*
X42000000Y70500000D01*
D10*
X37495846Y82254154D02*
X37495846Y82004154D01*
D10*
X11750000Y70500000D02*
X10500000Y70500000D01*
D10*
X43750000Y80250000D02*
X45250000Y80250000D01*
D10*
X26750000Y74750000D02*
X27000000Y74500000D01*
D10*
X42350000Y74750000D02*
X43527834Y74750000D01*
D10*
X55750000Y70500000D02*
X55750000Y71650000D01*
D10*
X20975000Y71725000D02*
X21250000Y72000000D01*
D10*
X55000000Y83500000D02*
X54750000Y83750000D01*
D10*
X50000000Y72500000D02*
X50750000Y72500000D01*
D10*
X19705000Y76455000D02*
X21000000Y77750000D01*
D10*
X68000000Y83750000D02*
X68000000Y81750000D01*
D10*
X48750000Y75250000D02*
X48750000Y76000000D01*
D10*
X24149989Y72649989D02*
X14119247Y72649989D01*
D10*
X60000000Y82500000D02*
X59250000Y83250000D01*
D10*
X42350000Y75750000D02*
X41000000Y75750000D01*
D10*
X70833335Y87666665D02*
X70250000Y88250000D01*
D10*
X37500000Y74500000D02*
X40750000Y77750000D01*
D10*
X15895000Y77105000D02*
X14523334Y78476666D01*
D10*
X64000000Y70600000D02*
X62350000Y70600000D01*
D10*
X48500000Y70000000D02*
X49250000Y70000000D01*
D10*
X27000000Y72500000D02*
X42000000Y72500000D01*
D10*
X51000000Y72750000D02*
X50750000Y72500000D01*
D10*
X42350000Y74750000D02*
X40750000Y74750000D01*
D10*
X27250000Y75000000D02*
X36934286Y75000000D01*
D10*
X17165000Y76585000D02*
X15500000Y78250000D01*
D10*
X33250000Y76250000D02*
X35750000Y76250000D01*
D10*
X39250000Y74000000D02*
X26750000Y74000000D01*
D10*
X51144286Y81540000D02*
X52750000Y79934286D01*
D10*
X28877513Y82698333D02*
X28877513Y82332715D01*
D10*
X40000000Y70600000D02*
X41900000Y70600000D01*
D10*
X63700000Y86300000D02*
X63700000Y87050000D01*
D10*
X57500000Y74750000D02*
X58500000Y75750000D01*
D10*
X40000000Y80900000D02*
X41900000Y80900000D01*
D10*
X24500000Y77750000D02*
X27250000Y75000000D01*
D10*
X37495846Y79350000D02*
X41900000Y79350000D01*
D10*
X63700000Y87050000D02*
X63500000Y87250000D01*
D10*
X52000000Y77000000D02*
X51250000Y77000000D01*
D10*
X44750000Y74500000D02*
X44750000Y74250000D01*
D10*
X55000000Y83100000D02*
X55000000Y83500000D01*
D10*
X64500000Y85000000D02*
X63500000Y85000000D01*
D10*
X59750000Y81000000D02*
X60500000Y81000000D01*
D10*
X70833335Y85500000D02*
X70833335Y86000000D01*
D10*
X31784993Y84335813D02*
X33664187Y84335813D01*
D10*
X45750000Y71750000D02*
X46000000Y72000000D01*
D10*
X31050033Y84870853D02*
X31050033Y86575033D01*
D10*
X62350000Y70600000D02*
X62250000Y70500000D01*
D10*
X52750000Y79934286D02*
X52750000Y76350000D01*
D10*
X57000000Y78250000D02*
X57000000Y80250000D01*
D10*
X55450011Y82700011D02*
X55000000Y82250000D01*
D10*
X59250000Y83250000D02*
X59250000Y85250000D01*
D10*
X55250000Y76350000D02*
X55250000Y77250000D01*
D10*
X22245000Y76995000D02*
X22250000Y77000000D01*
D10*
X68000000Y81750000D02*
X68500000Y81250000D01*
D10*
X61500000Y79500000D02*
X60500000Y79500000D01*
D10*
X65900000Y80900000D02*
X66000000Y81000000D01*
D10*
X61250000Y71000000D02*
X63500000Y73250000D01*
D10*
X53750000Y70000000D02*
X51750000Y70000000D01*
D10*
X60250000Y84250000D02*
X60250000Y83250000D01*
D10*
X14523334Y84250000D02*
X14523334Y81540000D01*
D10*
X23750000Y85750000D02*
X14523334Y85750000D01*
D10*
X58500000Y75750000D02*
X57722182Y75750000D01*
D10*
X50500000Y73750000D02*
X51650000Y73750000D01*
D10*
X44913793Y76913793D02*
X45000000Y77000000D01*
D10*
X15895000Y70550000D02*
X15895000Y71855000D01*
D10*
X27752040Y88000000D02*
X34500000Y88000000D01*
D10*
X55500000Y82175000D02*
X56000000Y82675000D01*
D10*
X43527834Y74750000D02*
X44500000Y73777834D01*
D10*
X41900000Y79350000D02*
X42350000Y78900000D01*
D10*
X31050033Y78449967D02*
X33250000Y76250000D01*
D10*
X11750000Y72000000D02*
X11000000Y72000000D01*
D10*
X31417513Y83968333D02*
X31784993Y84335813D01*
D10*
X54250000Y76350000D02*
X54250000Y77000000D01*
D10*
X63250000Y77750000D02*
X61650000Y77750000D01*
D10*
X66000000Y82500000D02*
X62750000Y82500000D01*
D10*
X61650000Y77750000D02*
X61650000Y79350000D01*
D10*
X40750000Y74750000D02*
X39500000Y73500000D01*
D10*
X28877513Y82332715D02*
X27750000Y81205202D01*
D10*
X43000000Y78750000D02*
X43000000Y79500000D01*
D10*
X52500000Y80750000D02*
X53250000Y80750000D01*
D10*
X50250000Y76000000D02*
X49500000Y76750000D01*
D10*
X52500000Y81500000D02*
X53250000Y81500000D01*
D10*
X19705000Y70550000D02*
X19705000Y71955000D01*
D10*
X60500000Y81000000D02*
X60500000Y82500000D01*
D10*
X55000000Y81315714D02*
X55000000Y81750000D01*
D10*
X44500000Y73777834D02*
X44500000Y73500000D01*
D10*
X19705000Y71955000D02*
X19750000Y72000000D01*
D10*
X46190000Y81540000D02*
X51144286Y81540000D01*
D10*
X49500000Y83750000D02*
X52500000Y80750000D01*
D10*
X43000000Y70750000D02*
X41750000Y72000000D01*
D10*
X46500000Y75500000D02*
X46500000Y74200000D01*
D10*
X46500000Y74200000D02*
X46750000Y73950000D01*
D10*
X55500000Y81750000D02*
X55500000Y82175000D01*
D10*
X57250000Y83750000D02*
X57000000Y84000000D01*
D10*
X47250000Y72500000D02*
X50000000Y72500000D01*
D10*
X24500000Y86500000D02*
X23750000Y85750000D01*
D10*
X56500000Y78500000D02*
X56500000Y79750000D01*
D10*
X54250000Y71143688D02*
X54476375Y70917313D01*
D10*
X36934286Y75000000D02*
X40684286Y78750000D01*
D10*
X42250000Y80000000D02*
X43000000Y80750000D01*
D10*
X30147513Y83968333D02*
X31050033Y84870853D01*
D10*
X55750000Y77000000D02*
X57000000Y78250000D01*
D10*
X13355000Y75450000D02*
X13355000Y76895000D01*
D10*
X62750000Y85000000D02*
X62750000Y86300000D01*
D10*
X43500000Y71750000D02*
X45750000Y71750000D01*
D10*
X41900000Y80900000D02*
X42000000Y81000000D01*
D10*
X61600000Y87250000D02*
X61800000Y87050000D01*
D10*
X14625000Y75450000D02*
X14625000Y76875000D01*
D10*
X45500000Y72750000D02*
X47000000Y72750000D01*
D10*
X17165000Y75450000D02*
X18435000Y75450000D01*
D10*
X15895000Y75450000D02*
X15895000Y74145000D01*
D10*
X64000000Y80900000D02*
X65900000Y80900000D01*
D10*
X26750000Y73000000D02*
X42250000Y73000000D01*
D10*
X11750000Y70500000D02*
X13305000Y70500000D01*
D10*
X10500000Y70500000D02*
X9750000Y71250000D01*
D10*
X60250000Y85750000D02*
X60250000Y86500000D01*
D10*
X25050000Y70550000D02*
X27000000Y72500000D01*
D10*
X50250000Y76000000D02*
X50250000Y75250000D01*
D10*
X61650000Y79350000D02*
X61500000Y79500000D01*
D10*
X15250000Y4500000D02*
X24000000Y4500000D01*
D10*
X60000000Y9250000D02*
X58750000Y9250000D01*
D10*
X22245000Y1550000D02*
X25050000Y1550000D01*
D10*
X60500000Y13500000D02*
X60000000Y13500000D01*
D10*
X61300000Y14700000D02*
X61800000Y14700000D01*
D10*
X33664187Y15335813D02*
X34250000Y14750000D01*
D10*
X15895000Y2855000D02*
X15750000Y3000000D01*
D10*
X53250000Y10565714D02*
X55000000Y12315714D01*
D10*
X56000000Y13675000D02*
X56000000Y14100000D01*
D10*
X17165000Y2835000D02*
X17000000Y3000000D01*
D10*
X61650000Y5750000D02*
X60250000Y5750000D01*
D10*
X65250000Y15250000D02*
X65250000Y14500000D01*
D10*
X56750000Y2000000D02*
X61250000Y2000000D01*
D10*
X53750000Y1000000D02*
X53750000Y2650000D01*
D10*
X43000000Y14000000D02*
X43500000Y14000000D01*
D10*
X70833335Y17750000D02*
X70833335Y18666665D01*
D10*
X61650000Y14550000D02*
X61800000Y14700000D01*
D10*
X51250000Y5250000D02*
X50925020Y5574980D01*
D10*
X14625000Y2875000D02*
X14750000Y3000000D01*
D10*
X43000000Y11750000D02*
X43000000Y14000000D01*
D10*
X47250000Y8750000D02*
X42350000Y8750000D01*
D10*
X40500000Y16000000D02*
X41750000Y17250000D01*
D10*
X9750000Y16000000D02*
X10500000Y16750000D01*
D10*
X42350000Y9900000D02*
X42350000Y8750000D01*
D10*
X55450011Y15450011D02*
X55450011Y13700011D01*
D10*
X54750000Y8250000D02*
X53750000Y9250000D01*
D10*
X42000000Y3500000D02*
X43250000Y2250000D01*
D10*
X66000000Y16750000D02*
X68000000Y14750000D01*
D10*
X46250000Y2250000D02*
X46750000Y2750000D01*
D10*
X36000000Y3000000D02*
X35750000Y2750000D01*
D10*
X15895000Y6450000D02*
X15895000Y8105000D01*
D10*
X51650000Y4250000D02*
X50000000Y4250000D01*
D10*
X50500000Y4949998D02*
X46750002Y4949998D01*
D10*
X25750000Y3000000D02*
X26750000Y4000000D01*
D10*
X61650000Y4150000D02*
X61500000Y4000000D01*
D10*
X26500000Y5250000D02*
X25750000Y5250000D01*
D10*
X70000000Y18750000D02*
X59500000Y18750000D01*
D10*
X61800000Y18050000D02*
X62000000Y18250000D01*
D10*
X61650000Y6750000D02*
X60250000Y6750000D01*
D10*
X21000000Y8750000D02*
X24500000Y8750000D01*
D10*
X65250000Y16750000D02*
X66000000Y16750000D01*
D10*
X56350000Y3750000D02*
X57500000Y3750000D01*
D10*
X13355000Y7895000D02*
X13250000Y8000000D01*
D10*
X74790000Y12540000D02*
X73500000Y11250000D01*
D10*
X13250000Y4519236D02*
X13250000Y5000000D01*
D10*
X18435000Y1550000D02*
X18435000Y2935000D01*
D10*
X27750000Y12205202D02*
X27750000Y12000000D01*
D10*
X23250000Y5000000D02*
X24000000Y5750000D01*
D10*
X56000000Y12750000D02*
X57175000Y12750000D01*
D10*
X45000000Y6250000D02*
X45750000Y5500000D01*
D10*
X33839147Y18410853D02*
X37000000Y15250000D01*
D10*
X70333335Y18416665D02*
X70000000Y18750000D01*
D10*
X59750000Y18250000D02*
X61600000Y18250000D01*
D10*
X31885853Y18410853D02*
X33839147Y18410853D01*
D10*
X40684286Y9750000D02*
X41500000Y9750000D01*
D10*
X16040000Y5000000D02*
X23250000Y5000000D01*
D10*
X45000000Y6500000D02*
X45000000Y6250000D01*
D10*
X57250000Y14175000D02*
X57250000Y14750000D01*
D10*
X37495846Y7495846D02*
X36500000Y6500000D01*
D10*
X61650000Y7750000D02*
X60000000Y7750000D01*
D10*
X37495846Y10350000D02*
X37495846Y7495846D01*
D10*
X54250000Y2650000D02*
X54250000Y2143688D01*
D10*
X60000000Y7750000D02*
X59750000Y8000000D01*
D10*
X54750000Y7350000D02*
X54750000Y8250000D01*
D10*
X50250000Y1000000D02*
X49250000Y1000000D01*
D10*
X14119247Y3649989D02*
X13250000Y4519236D01*
D10*
X59750000Y8000000D02*
X58750000Y8000000D01*
D10*
X31784993Y13330853D02*
X37419147Y13330853D01*
D10*
X57722182Y6750000D02*
X57486091Y6513909D01*
D10*
X63500000Y18250000D02*
X62000000Y18250000D01*
D10*
X52750000Y1750000D02*
X47000000Y1750000D01*
D10*
X61000000Y16000000D02*
X62750000Y16000000D01*
D10*
X56250000Y1500000D02*
X56750000Y2000000D01*
D10*
X61500000Y4000000D02*
X60000000Y4000000D01*
D10*
X38241692Y14000000D02*
X40500000Y14000000D01*
D10*
X57250000Y12675000D02*
X58175000Y12675000D01*
D10*
X72433335Y16500000D02*
X72433335Y13183335D01*
D10*
X51650000Y3750000D02*
X51000000Y3750000D01*
D10*
X31050033Y12795813D02*
X31050033Y9449967D01*
D10*
X52250000Y7350000D02*
X52250000Y7750000D01*
D10*
X55000000Y13250000D02*
X55000000Y12750000D01*
D10*
X47000000Y3750000D02*
X47250000Y3500000D01*
D10*
X64750000Y16750000D02*
X65250000Y16750000D01*
D10*
X58750000Y8000000D02*
X58500000Y8250000D01*
D10*
X14750000Y5000000D02*
X15250000Y4500000D01*
D10*
X77856666Y12540000D02*
X74790000Y12540000D01*
D10*
X43500000Y6750000D02*
X44750000Y5500000D01*
D10*
X58500000Y17000000D02*
X59750000Y18250000D01*
D10*
X37495846Y13004154D02*
X37495846Y10350000D01*
D10*
X27500000Y6500000D02*
X26000000Y8000000D01*
D10*
X35250000Y18250000D02*
X57250000Y18250000D01*
D10*
X44750000Y4250000D02*
X50000000Y4250000D01*
D10*
X31050033Y17575033D02*
X31885853Y18410853D01*
D10*
X19705000Y6450000D02*
X19705000Y7455000D01*
D10*
X54250000Y8000000D02*
X53250000Y9000000D01*
D10*
X24000000Y5750000D02*
X26750000Y5750000D01*
D10*
X44500000Y4500000D02*
X44750000Y4250000D01*
D10*
X45399980Y11100020D02*
X45649980Y11100020D01*
D10*
X70250000Y19250000D02*
X59250000Y19250000D01*
D10*
X45250000Y11250000D02*
X45399980Y11100020D01*
D10*
X14523334Y16750000D02*
X10500000Y16750000D01*
D10*
X64200000Y17300000D02*
X64750000Y16750000D01*
D10*
X53250000Y9000000D02*
X53250000Y10565714D01*
D10*
X50699998Y4750000D02*
X50500000Y4949998D01*
D10*
X45200000Y4800000D02*
X45250000Y4800000D01*
D10*
X61650000Y10350000D02*
X61650000Y14550000D01*
D10*
X41750000Y3000000D02*
X36000000Y3000000D01*
D10*
X48331170Y5574980D02*
X47750000Y6156150D01*
D10*
X14523334Y9476666D02*
X14523334Y12540000D01*
D10*
X63700000Y17300000D02*
X64200000Y17300000D01*
D10*
X42350000Y6750000D02*
X43500000Y6750000D01*
D10*
X31417513Y14968333D02*
X31647513Y14968333D01*
D10*
X45250000Y3500000D02*
X45500000Y3750000D01*
D10*
X37419147Y13330853D02*
X37495846Y13254154D01*
D10*
X71633335Y15500000D02*
X71633335Y16950000D01*
D10*
X56350000Y6750000D02*
X56750000Y6750000D01*
D10*
X55750000Y1500000D02*
X56250000Y1500000D01*
D10*
X17250000Y12750000D02*
X21502040Y12750000D01*
D10*
X43922414Y7750000D02*
X44086207Y7913793D01*
D10*
X58175000Y12675000D02*
X58500000Y13000000D01*
D10*
X15895000Y5145000D02*
X16040000Y5000000D01*
D10*
X60250000Y16750000D02*
X61000000Y16000000D01*
D10*
X34500000Y19000000D02*
X35250000Y18250000D01*
D10*
X59500000Y18750000D02*
X56000000Y15250000D01*
D10*
X63500000Y8500000D02*
X63250000Y8750000D01*
D10*
X61800000Y17300000D02*
X61800000Y18050000D01*
D10*
X15500000Y9250000D02*
X15500000Y11000000D01*
D10*
X56000000Y15250000D02*
X56000000Y14100000D01*
D10*
X70333335Y17500000D02*
X70333335Y18416665D01*
D10*
X42350000Y7750000D02*
X43922414Y7750000D01*
D10*
X58500000Y13000000D02*
X58500000Y17000000D01*
D10*
X42250000Y4000000D02*
X43500000Y2750000D01*
D10*
X47000000Y1750000D02*
X43000000Y1750000D01*
D10*
X70833335Y17000000D02*
X70333335Y17500000D01*
D10*
X22245000Y6450000D02*
X22245000Y7995000D01*
D10*
X27000000Y5500000D02*
X37500000Y5500000D01*
D10*
X56750000Y6750000D02*
X57750000Y7750000D01*
D10*
X56350000Y5750000D02*
X57500000Y5750000D01*
D10*
X57175000Y12750000D02*
X57250000Y12675000D01*
D10*
X63500000Y4250000D02*
X63500000Y8500000D01*
D10*
X51250000Y8000000D02*
X50250000Y7000000D01*
D10*
X44086207Y7913793D02*
X44913793Y7913793D01*
D10*
X55250000Y8250000D02*
X56500000Y9500000D01*
D10*
X41750000Y17250000D02*
X56250000Y17250000D01*
D10*
X18435000Y2935000D02*
X18500000Y3000000D01*
D10*
X25750000Y5250000D02*
X24149989Y3649989D01*
D10*
X47750000Y6156150D02*
X47750000Y7250000D01*
D10*
X44750000Y5250000D02*
X45200000Y4800000D01*
D10*
X68250000Y11250000D02*
X66000000Y13500000D01*
D10*
X43250000Y2250000D02*
X46250000Y2250000D01*
D10*
X30147513Y13698333D02*
X31050033Y12795813D01*
D10*
X71633335Y16950000D02*
X70833335Y17750000D01*
D10*
X53750000Y9250000D02*
X53750000Y10500000D01*
D10*
X20975000Y1550000D02*
X20975000Y2725000D01*
D10*
X42000000Y11000000D02*
X42250000Y11000000D01*
D10*
X47000000Y1000000D02*
X47000000Y1750000D01*
D10*
X52250000Y7750000D02*
X52000000Y8000000D01*
D10*
X43000000Y10500000D02*
X43750000Y11250000D01*
D10*
X60750000Y15250000D02*
X61300000Y14700000D01*
D10*
X61650000Y4750000D02*
X61650000Y4150000D01*
D10*
X17165000Y1550000D02*
X17165000Y2835000D01*
D10*
X37495846Y13254154D02*
X38241692Y14000000D01*
D10*
X49750000Y15250000D02*
X52500000Y12500000D01*
D10*
X31417513Y13698333D02*
X31784993Y13330853D01*
D10*
X53750000Y10500000D02*
X55500000Y12250000D01*
D10*
X73500000Y11250000D02*
X68250000Y11250000D01*
D10*
X55250000Y1000000D02*
X55750000Y1500000D01*
D10*
X14625000Y7875000D02*
X14750000Y8000000D01*
D10*
X9750000Y2250000D02*
X9750000Y16000000D01*
D10*
X26000000Y8000000D02*
X26000000Y16000000D01*
D10*
X43500000Y14000000D02*
X44960000Y12540000D01*
D10*
X46750002Y4949998D02*
X46750000Y4950000D01*
D10*
X39500000Y4500000D02*
X26000000Y4500000D01*
D10*
X58500000Y1000000D02*
X59250000Y1000000D01*
D10*
X41500000Y14000000D02*
X40500000Y14000000D01*
D10*
X57750000Y7750000D02*
X57750000Y10000000D01*
D10*
X60250000Y15250000D02*
X60750000Y15250000D01*
D10*
X65250000Y15250000D02*
X64500000Y16000000D01*
D10*
X26750000Y5000000D02*
X26500000Y5250000D01*
D10*
X68500000Y12250000D02*
X70000000Y12250000D01*
D10*
X57000000Y11250000D02*
X57000000Y11750000D01*
D10*
X15500000Y11000000D02*
X17250000Y12750000D01*
D10*
X14625000Y1550000D02*
X14625000Y2875000D01*
D10*
X55500000Y12250000D02*
X55500000Y12750000D01*
D10*
X21502040Y12750000D02*
X27752040Y19000000D01*
D10*
X56500000Y10750000D02*
X56000000Y11250000D01*
D10*
X46500000Y8000000D02*
X45000000Y8000000D01*
D10*
X50500000Y4750000D02*
X50699998Y4750000D01*
D10*
X57500000Y3750000D02*
X57750000Y3500000D01*
D10*
X63500000Y16000000D02*
X62750000Y16000000D01*
D10*
X48250000Y7750000D02*
X47250000Y8750000D01*
D10*
X55750000Y7350000D02*
X55750000Y8000000D01*
D10*
X44960000Y12540000D02*
X46190000Y12540000D01*
D10*
X45649980Y11100020D02*
X47500000Y9250000D01*
D10*
X17165000Y6450000D02*
X17165000Y7585000D01*
D10*
X21250000Y3000000D02*
X25750000Y3000000D01*
D10*
X41000000Y6750000D02*
X39250000Y5000000D01*
D10*
X72433335Y13183335D02*
X71500000Y12250000D01*
D10*
X13305000Y1500000D02*
X13355000Y1550000D01*
D10*
X50925020Y5574980D02*
X48331170Y5574980D01*
D10*
X49500000Y7750000D02*
X48250000Y7750000D01*
D10*
X37000000Y15250000D02*
X49750000Y15250000D01*
D10*
X55250000Y1000000D02*
X57000000Y1000000D01*
D10*
X42350000Y4750000D02*
X43750000Y4750000D01*
D10*
X34250000Y14750000D02*
X49500000Y14750000D01*
D10*
X36500000Y6500000D02*
X27500000Y6500000D01*
D10*
X59250000Y19250000D02*
X55450011Y15450011D01*
D10*
X57750000Y10000000D02*
X59750000Y12000000D01*
D10*
X51650000Y5250000D02*
X51250000Y5250000D01*
D10*
X41900000Y1600000D02*
X42000000Y1500000D01*
D10*
X37495846Y13254154D02*
X37495846Y13004154D01*
D10*
X11750000Y1500000D02*
X10500000Y1500000D01*
D10*
X43750000Y11250000D02*
X45250000Y11250000D01*
D10*
X26750000Y5750000D02*
X27000000Y5500000D01*
D10*
X42350000Y5750000D02*
X43527834Y5750000D01*
D10*
X55750000Y1500000D02*
X55750000Y2650000D01*
D10*
X20975000Y2725000D02*
X21250000Y3000000D01*
D10*
X55000000Y14500000D02*
X54750000Y14750000D01*
D10*
X50000000Y3500000D02*
X50750000Y3500000D01*
D10*
X19705000Y7455000D02*
X21000000Y8750000D01*
D10*
X68000000Y14750000D02*
X68000000Y12750000D01*
D10*
X48750000Y6250000D02*
X48750000Y7000000D01*
D10*
X24149989Y3649989D02*
X14119247Y3649989D01*
D10*
X60000000Y13500000D02*
X59250000Y14250000D01*
D10*
X42350000Y6750000D02*
X41000000Y6750000D01*
D10*
X70833335Y18666665D02*
X70250000Y19250000D01*
D10*
X37500000Y5500000D02*
X40750000Y8750000D01*
D10*
X15895000Y8105000D02*
X14523334Y9476666D01*
D10*
X64000000Y1600000D02*
X62350000Y1600000D01*
D10*
X48500000Y1000000D02*
X49250000Y1000000D01*
D10*
X27000000Y3500000D02*
X42000000Y3500000D01*
D10*
X51000000Y3750000D02*
X50750000Y3500000D01*
D10*
X42350000Y5750000D02*
X40750000Y5750000D01*
D10*
X27250000Y6000000D02*
X36934286Y6000000D01*
D10*
X17165000Y7585000D02*
X15500000Y9250000D01*
D10*
X33250000Y7250000D02*
X35750000Y7250000D01*
D10*
X39250000Y5000000D02*
X26750000Y5000000D01*
D10*
X51144286Y12540000D02*
X52750000Y10934286D01*
D10*
X28877513Y13698333D02*
X28877513Y13332715D01*
D10*
X40000000Y1600000D02*
X41900000Y1600000D01*
D10*
X63700000Y17300000D02*
X63700000Y18050000D01*
D10*
X57500000Y5750000D02*
X58500000Y6750000D01*
D10*
X40000000Y11900000D02*
X41900000Y11900000D01*
D10*
X24500000Y8750000D02*
X27250000Y6000000D01*
D10*
X37495846Y10350000D02*
X41900000Y10350000D01*
D10*
X63700000Y18050000D02*
X63500000Y18250000D01*
D10*
X52000000Y8000000D02*
X51250000Y8000000D01*
D10*
X44750000Y5500000D02*
X44750000Y5250000D01*
D10*
X55000000Y14100000D02*
X55000000Y14500000D01*
D10*
X64500000Y16000000D02*
X63500000Y16000000D01*
D10*
X59750000Y12000000D02*
X60500000Y12000000D01*
D10*
X70833335Y16500000D02*
X70833335Y17000000D01*
D10*
X31784993Y15335813D02*
X33664187Y15335813D01*
D10*
X45750000Y2750000D02*
X46000000Y3000000D01*
D10*
X31050033Y15870853D02*
X31050033Y17575033D01*
D10*
X62350000Y1600000D02*
X62250000Y1500000D01*
D10*
X52750000Y10934286D02*
X52750000Y7350000D01*
D10*
X57000000Y9250000D02*
X57000000Y11250000D01*
D10*
X55450011Y13700011D02*
X55000000Y13250000D01*
D10*
X59250000Y14250000D02*
X59250000Y16250000D01*
D10*
X55250000Y7350000D02*
X55250000Y8250000D01*
D10*
X22245000Y7995000D02*
X22250000Y8000000D01*
D10*
X68000000Y12750000D02*
X68500000Y12250000D01*
D10*
X61500000Y10500000D02*
X60500000Y10500000D01*
D10*
X65900000Y11900000D02*
X66000000Y12000000D01*
D10*
X61250000Y2000000D02*
X63500000Y4250000D01*
D10*
X53750000Y1000000D02*
X51750000Y1000000D01*
D10*
X60250000Y15250000D02*
X60250000Y14250000D01*
D10*
X14523334Y15250000D02*
X14523334Y12540000D01*
D10*
X23750000Y16750000D02*
X14523334Y16750000D01*
D10*
X58500000Y6750000D02*
X57722182Y6750000D01*
D10*
X50500000Y4750000D02*
X51650000Y4750000D01*
D10*
X44913793Y7913793D02*
X45000000Y8000000D01*
D10*
X15895000Y1550000D02*
X15895000Y2855000D01*
D10*
X27752040Y19000000D02*
X34500000Y19000000D01*
D10*
X55500000Y13175000D02*
X56000000Y13675000D01*
D10*
X43527834Y5750000D02*
X44500000Y4777834D01*
D10*
X41900000Y10350000D02*
X42350000Y9900000D01*
D10*
X31050033Y9449967D02*
X33250000Y7250000D01*
D10*
X11750000Y3000000D02*
X11000000Y3000000D01*
D10*
X31417513Y14968333D02*
X31784993Y15335813D01*
D10*
X54250000Y7350000D02*
X54250000Y8000000D01*
D10*
X63250000Y8750000D02*
X61650000Y8750000D01*
D10*
X66000000Y13500000D02*
X62750000Y13500000D01*
D10*
X61650000Y8750000D02*
X61650000Y10350000D01*
D10*
X40750000Y5750000D02*
X39500000Y4500000D01*
D10*
X28877513Y13332715D02*
X27750000Y12205202D01*
D10*
X43000000Y9750000D02*
X43000000Y10500000D01*
D10*
X52500000Y11750000D02*
X53250000Y11750000D01*
D10*
X50250000Y7000000D02*
X49500000Y7750000D01*
D10*
X52500000Y12500000D02*
X53250000Y12500000D01*
D10*
X19705000Y1550000D02*
X19705000Y2955000D01*
D10*
X60500000Y12000000D02*
X60500000Y13500000D01*
D10*
X55000000Y12315714D02*
X55000000Y12750000D01*
D10*
X44500000Y4777834D02*
X44500000Y4500000D01*
D10*
X19705000Y2955000D02*
X19750000Y3000000D01*
D10*
X46190000Y12540000D02*
X51144286Y12540000D01*
D10*
X49500000Y14750000D02*
X52500000Y11750000D01*
D10*
X43000000Y1750000D02*
X41750000Y3000000D01*
D10*
X46500000Y6500000D02*
X46500000Y5200000D01*
D10*
X46500000Y5200000D02*
X46750000Y4950000D01*
D10*
X55500000Y12750000D02*
X55500000Y13175000D01*
D10*
X57250000Y14750000D02*
X57000000Y15000000D01*
D10*
X47250000Y3500000D02*
X50000000Y3500000D01*
D10*
X24500000Y17500000D02*
X23750000Y16750000D01*
D10*
X56500000Y9500000D02*
X56500000Y10750000D01*
D10*
X54250000Y2143688D02*
X54476375Y1917313D01*
D10*
X36934286Y6000000D02*
X40684286Y9750000D01*
D10*
X42250000Y11000000D02*
X43000000Y11750000D01*
D10*
X30147513Y14968333D02*
X31050033Y15870853D01*
D10*
X55750000Y8000000D02*
X57000000Y9250000D01*
D10*
X13355000Y6450000D02*
X13355000Y7895000D01*
D10*
X62750000Y16000000D02*
X62750000Y17300000D01*
D10*
X43500000Y2750000D02*
X45750000Y2750000D01*
D10*
X41900000Y11900000D02*
X42000000Y12000000D01*
D10*
X61600000Y18250000D02*
X61800000Y18050000D01*
D10*
X14625000Y6450000D02*
X14625000Y7875000D01*
D10*
X45500000Y3750000D02*
X47000000Y3750000D01*
D10*
X17165000Y6450000D02*
X18435000Y6450000D01*
D10*
X15895000Y6450000D02*
X15895000Y5145000D01*
D10*
X64000000Y11900000D02*
X65900000Y11900000D01*
D10*
X26750000Y4000000D02*
X42250000Y4000000D01*
D10*
X11750000Y1500000D02*
X13305000Y1500000D01*
D10*
X10500000Y1500000D02*
X9750000Y2250000D01*
D10*
X60250000Y16750000D02*
X60250000Y17500000D01*
D10*
X25050000Y1550000D02*
X27000000Y3500000D01*
D10*
X50250000Y7000000D02*
X50250000Y6250000D01*
D10*
X61650000Y10350000D02*
X61500000Y10500000D01*
D10*
X15250000Y50500000D02*
X24000000Y50500000D01*
D10*
X60000000Y55250000D02*
X58750000Y55250000D01*
D10*
X22245000Y47550000D02*
X25050000Y47550000D01*
D10*
X60500000Y59500000D02*
X60000000Y59500000D01*
D10*
X61300000Y60700000D02*
X61800000Y60700000D01*
D10*
X33664187Y61335813D02*
X34250000Y60750000D01*
D10*
X15895000Y48855000D02*
X15750000Y49000000D01*
D10*
X53250000Y56565714D02*
X55000000Y58315714D01*
D10*
X56000000Y59675000D02*
X56000000Y60100000D01*
D10*
X17165000Y48835000D02*
X17000000Y49000000D01*
D10*
X61650000Y51750000D02*
X60250000Y51750000D01*
D10*
X65250000Y61250000D02*
X65250000Y60500000D01*
D10*
X56750000Y48000000D02*
X61250000Y48000000D01*
D10*
X53750000Y47000000D02*
X53750000Y48650000D01*
D10*
X43000000Y60000000D02*
X43500000Y60000000D01*
D10*
X70833335Y63750000D02*
X70833335Y64666665D01*
D10*
X61650000Y60550000D02*
X61800000Y60700000D01*
D10*
X51250000Y51250000D02*
X50925020Y51574980D01*
D10*
X14625000Y48875000D02*
X14750000Y49000000D01*
D10*
X43000000Y57750000D02*
X43000000Y60000000D01*
D10*
X47250000Y54750000D02*
X42350000Y54750000D01*
D10*
X40500000Y62000000D02*
X41750000Y63250000D01*
D10*
X9750000Y62000000D02*
X10500000Y62750000D01*
D10*
X42350000Y55900000D02*
X42350000Y54750000D01*
D10*
X55450011Y61450011D02*
X55450011Y59700011D01*
D10*
X54750000Y54250000D02*
X53750000Y55250000D01*
D10*
X42000000Y49500000D02*
X43250000Y48250000D01*
D10*
X66000000Y62750000D02*
X68000000Y60750000D01*
D10*
X46250000Y48250000D02*
X46750000Y48750000D01*
D10*
X36000000Y49000000D02*
X35750000Y48750000D01*
D10*
X15895000Y52450000D02*
X15895000Y54105000D01*
D10*
X51650000Y50250000D02*
X50000000Y50250000D01*
D10*
X50500000Y50949998D02*
X46750002Y50949998D01*
D10*
X25750000Y49000000D02*
X26750000Y50000000D01*
D10*
X61650000Y50150000D02*
X61500000Y50000000D01*
D10*
X26500000Y51250000D02*
X25750000Y51250000D01*
D10*
X70000000Y64750000D02*
X59500000Y64750000D01*
D10*
X61800000Y64050000D02*
X62000000Y64250000D01*
D10*
X61650000Y52750000D02*
X60250000Y52750000D01*
D10*
X21000000Y54750000D02*
X24500000Y54750000D01*
D10*
X65250000Y62750000D02*
X66000000Y62750000D01*
D10*
X56350000Y49750000D02*
X57500000Y49750000D01*
D10*
X13355000Y53895000D02*
X13250000Y54000000D01*
D10*
X74790000Y58540000D02*
X73500000Y57250000D01*
D10*
X13250000Y50519236D02*
X13250000Y51000000D01*
D10*
X18435000Y47550000D02*
X18435000Y48935000D01*
D10*
X27750000Y58205202D02*
X27750000Y58000000D01*
D10*
X23250000Y51000000D02*
X24000000Y51750000D01*
D10*
X56000000Y58750000D02*
X57175000Y58750000D01*
D10*
X45000000Y52250000D02*
X45750000Y51500000D01*
D10*
X33839147Y64410853D02*
X37000000Y61250000D01*
D10*
X70333335Y64416665D02*
X70000000Y64750000D01*
D10*
X59750000Y64250000D02*
X61600000Y64250000D01*
D10*
X31885853Y64410853D02*
X33839147Y64410853D01*
D10*
X40684286Y55750000D02*
X41500000Y55750000D01*
D10*
X16040000Y51000000D02*
X23250000Y51000000D01*
D10*
X45000000Y52500000D02*
X45000000Y52250000D01*
D10*
X57250000Y60175000D02*
X57250000Y60750000D01*
D10*
X37495846Y53495846D02*
X36500000Y52500000D01*
D10*
X61650000Y53750000D02*
X60000000Y53750000D01*
D10*
X37495846Y56350000D02*
X37495846Y53495846D01*
D10*
X54250000Y48650000D02*
X54250000Y48143688D01*
D10*
X60000000Y53750000D02*
X59750000Y54000000D01*
D10*
X54750000Y53350000D02*
X54750000Y54250000D01*
D10*
X50250000Y47000000D02*
X49250000Y47000000D01*
D10*
X14119247Y49649989D02*
X13250000Y50519236D01*
D10*
X59750000Y54000000D02*
X58750000Y54000000D01*
D10*
X31784993Y59330853D02*
X37419147Y59330853D01*
D10*
X57722182Y52750000D02*
X57486091Y52513909D01*
D10*
X63500000Y64250000D02*
X62000000Y64250000D01*
D10*
X52750000Y47750000D02*
X47000000Y47750000D01*
D10*
X61000000Y62000000D02*
X62750000Y62000000D01*
D10*
X56250000Y47500000D02*
X56750000Y48000000D01*
D10*
X61500000Y50000000D02*
X60000000Y50000000D01*
D10*
X38241692Y60000000D02*
X40500000Y60000000D01*
D10*
X57250000Y58675000D02*
X58175000Y58675000D01*
D10*
X72433335Y62500000D02*
X72433335Y59183335D01*
D10*
X51650000Y49750000D02*
X51000000Y49750000D01*
D10*
X31050033Y58795813D02*
X31050033Y55449967D01*
D10*
X52250000Y53350000D02*
X52250000Y53750000D01*
D10*
X55000000Y59250000D02*
X55000000Y58750000D01*
D10*
X47000000Y49750000D02*
X47250000Y49500000D01*
D10*
X64750000Y62750000D02*
X65250000Y62750000D01*
D10*
X58750000Y54000000D02*
X58500000Y54250000D01*
D10*
X14750000Y51000000D02*
X15250000Y50500000D01*
D10*
X77856666Y58540000D02*
X74790000Y58540000D01*
D10*
X43500000Y52750000D02*
X44750000Y51500000D01*
D10*
X58500000Y63000000D02*
X59750000Y64250000D01*
D10*
X37495846Y59004154D02*
X37495846Y56350000D01*
D10*
X27500000Y52500000D02*
X26000000Y54000000D01*
D10*
X35250000Y64250000D02*
X57250000Y64250000D01*
D10*
X44750000Y50250000D02*
X50000000Y50250000D01*
D10*
X31050033Y63575033D02*
X31885853Y64410853D01*
D10*
X19705000Y52450000D02*
X19705000Y53455000D01*
D10*
X54250000Y54000000D02*
X53250000Y55000000D01*
D10*
X24000000Y51750000D02*
X26750000Y51750000D01*
D10*
X44500000Y50500000D02*
X44750000Y50250000D01*
D10*
X45399980Y57100020D02*
X45649980Y57100020D01*
D10*
X70250000Y65250000D02*
X59250000Y65250000D01*
D10*
X45250000Y57250000D02*
X45399980Y57100020D01*
D10*
X14523334Y62750000D02*
X10500000Y62750000D01*
D10*
X64200000Y63300000D02*
X64750000Y62750000D01*
D10*
X53250000Y55000000D02*
X53250000Y56565714D01*
D10*
X50699998Y50750000D02*
X50500000Y50949998D01*
D10*
X45200000Y50800000D02*
X45250000Y50800000D01*
D10*
X61650000Y56350000D02*
X61650000Y60550000D01*
D10*
X41750000Y49000000D02*
X36000000Y49000000D01*
D10*
X48331170Y51574980D02*
X47750000Y52156150D01*
D10*
X14523334Y55476666D02*
X14523334Y58540000D01*
D10*
X63700000Y63300000D02*
X64200000Y63300000D01*
D10*
X42350000Y52750000D02*
X43500000Y52750000D01*
D10*
X31417513Y60968333D02*
X31647513Y60968333D01*
D10*
X45250000Y49500000D02*
X45500000Y49750000D01*
D10*
X37419147Y59330853D02*
X37495846Y59254154D01*
D10*
X71633335Y61500000D02*
X71633335Y62950000D01*
D10*
X56350000Y52750000D02*
X56750000Y52750000D01*
D10*
X55750000Y47500000D02*
X56250000Y47500000D01*
D10*
X17250000Y58750000D02*
X21502040Y58750000D01*
D10*
X43922414Y53750000D02*
X44086207Y53913793D01*
D10*
X58175000Y58675000D02*
X58500000Y59000000D01*
D10*
X15895000Y51145000D02*
X16040000Y51000000D01*
D10*
X60250000Y62750000D02*
X61000000Y62000000D01*
D10*
X34500000Y65000000D02*
X35250000Y64250000D01*
D10*
X59500000Y64750000D02*
X56000000Y61250000D01*
D10*
X63500000Y54500000D02*
X63250000Y54750000D01*
D10*
X61800000Y63300000D02*
X61800000Y64050000D01*
D10*
X15500000Y55250000D02*
X15500000Y57000000D01*
D10*
X56000000Y61250000D02*
X56000000Y60100000D01*
D10*
X70333335Y63500000D02*
X70333335Y64416665D01*
D10*
X42350000Y53750000D02*
X43922414Y53750000D01*
D10*
X58500000Y59000000D02*
X58500000Y63000000D01*
D10*
X42250000Y50000000D02*
X43500000Y48750000D01*
D10*
X47000000Y47750000D02*
X43000000Y47750000D01*
D10*
X70833335Y63000000D02*
X70333335Y63500000D01*
D10*
X22245000Y52450000D02*
X22245000Y53995000D01*
D10*
X27000000Y51500000D02*
X37500000Y51500000D01*
D10*
X56750000Y52750000D02*
X57750000Y53750000D01*
D10*
X56350000Y51750000D02*
X57500000Y51750000D01*
D10*
X57175000Y58750000D02*
X57250000Y58675000D01*
D10*
X63500000Y50250000D02*
X63500000Y54500000D01*
D10*
X51250000Y54000000D02*
X50250000Y53000000D01*
D10*
X44086207Y53913793D02*
X44913793Y53913793D01*
D10*
X55250000Y54250000D02*
X56500000Y55500000D01*
D10*
X41750000Y63250000D02*
X56250000Y63250000D01*
D10*
X18435000Y48935000D02*
X18500000Y49000000D01*
D10*
X25750000Y51250000D02*
X24149989Y49649989D01*
D10*
X47750000Y52156150D02*
X47750000Y53250000D01*
D10*
X44750000Y51250000D02*
X45200000Y50800000D01*
D10*
X68250000Y57250000D02*
X66000000Y59500000D01*
D10*
X43250000Y48250000D02*
X46250000Y48250000D01*
D10*
X30147513Y59698333D02*
X31050033Y58795813D01*
D10*
X71633335Y62950000D02*
X70833335Y63750000D01*
D10*
X53750000Y55250000D02*
X53750000Y56500000D01*
D10*
X20975000Y47550000D02*
X20975000Y48725000D01*
D10*
X42000000Y57000000D02*
X42250000Y57000000D01*
D10*
X47000000Y47000000D02*
X47000000Y47750000D01*
D10*
X52250000Y53750000D02*
X52000000Y54000000D01*
D10*
X43000000Y56500000D02*
X43750000Y57250000D01*
D10*
X60750000Y61250000D02*
X61300000Y60700000D01*
D10*
X61650000Y50750000D02*
X61650000Y50150000D01*
D10*
X17165000Y47550000D02*
X17165000Y48835000D01*
D10*
X37495846Y59254154D02*
X38241692Y60000000D01*
D10*
X49750000Y61250000D02*
X52500000Y58500000D01*
D10*
X31417513Y59698333D02*
X31784993Y59330853D01*
D10*
X53750000Y56500000D02*
X55500000Y58250000D01*
D10*
X73500000Y57250000D02*
X68250000Y57250000D01*
D10*
X55250000Y47000000D02*
X55750000Y47500000D01*
D10*
X14625000Y53875000D02*
X14750000Y54000000D01*
D10*
X9750000Y48250000D02*
X9750000Y62000000D01*
D10*
X26000000Y54000000D02*
X26000000Y62000000D01*
D10*
X43500000Y60000000D02*
X44960000Y58540000D01*
D10*
X46750002Y50949998D02*
X46750000Y50950000D01*
D10*
X39500000Y50500000D02*
X26000000Y50500000D01*
D10*
X58500000Y47000000D02*
X59250000Y47000000D01*
D10*
X41500000Y60000000D02*
X40500000Y60000000D01*
D10*
X57750000Y53750000D02*
X57750000Y56000000D01*
D10*
X60250000Y61250000D02*
X60750000Y61250000D01*
D10*
X65250000Y61250000D02*
X64500000Y62000000D01*
D10*
X26750000Y51000000D02*
X26500000Y51250000D01*
D10*
X68500000Y58250000D02*
X70000000Y58250000D01*
D10*
X57000000Y57250000D02*
X57000000Y57750000D01*
D10*
X15500000Y57000000D02*
X17250000Y58750000D01*
D10*
X14625000Y47550000D02*
X14625000Y48875000D01*
D10*
X55500000Y58250000D02*
X55500000Y58750000D01*
D10*
X21502040Y58750000D02*
X27752040Y65000000D01*
D10*
X56500000Y56750000D02*
X56000000Y57250000D01*
D10*
X46500000Y54000000D02*
X45000000Y54000000D01*
D10*
X50500000Y50750000D02*
X50699998Y50750000D01*
D10*
X57500000Y49750000D02*
X57750000Y49500000D01*
D10*
X63500000Y62000000D02*
X62750000Y62000000D01*
D10*
X48250000Y53750000D02*
X47250000Y54750000D01*
D10*
X55750000Y53350000D02*
X55750000Y54000000D01*
D10*
X44960000Y58540000D02*
X46190000Y58540000D01*
D10*
X45649980Y57100020D02*
X47500000Y55250000D01*
D10*
X17165000Y52450000D02*
X17165000Y53585000D01*
D10*
X21250000Y49000000D02*
X25750000Y49000000D01*
D10*
X41000000Y52750000D02*
X39250000Y51000000D01*
D10*
X72433335Y59183335D02*
X71500000Y58250000D01*
D10*
X13305000Y47500000D02*
X13355000Y47550000D01*
D10*
X50925020Y51574980D02*
X48331170Y51574980D01*
D10*
X49500000Y53750000D02*
X48250000Y53750000D01*
D10*
X37000000Y61250000D02*
X49750000Y61250000D01*
D10*
X55250000Y47000000D02*
X57000000Y47000000D01*
D10*
X42350000Y50750000D02*
X43750000Y50750000D01*
D10*
X34250000Y60750000D02*
X49500000Y60750000D01*
D10*
X36500000Y52500000D02*
X27500000Y52500000D01*
D10*
X59250000Y65250000D02*
X55450011Y61450011D01*
D10*
X57750000Y56000000D02*
X59750000Y58000000D01*
D10*
X51650000Y51250000D02*
X51250000Y51250000D01*
D10*
X41900000Y47600000D02*
X42000000Y47500000D01*
D10*
X37495846Y59254154D02*
X37495846Y59004154D01*
D10*
X11750000Y47500000D02*
X10500000Y47500000D01*
D10*
X43750000Y57250000D02*
X45250000Y57250000D01*
D10*
X26750000Y51750000D02*
X27000000Y51500000D01*
D10*
X42350000Y51750000D02*
X43527834Y51750000D01*
D10*
X55750000Y47500000D02*
X55750000Y48650000D01*
D10*
X20975000Y48725000D02*
X21250000Y49000000D01*
D10*
X55000000Y60500000D02*
X54750000Y60750000D01*
D10*
X50000000Y49500000D02*
X50750000Y49500000D01*
D10*
X19705000Y53455000D02*
X21000000Y54750000D01*
D10*
X68000000Y60750000D02*
X68000000Y58750000D01*
D10*
X48750000Y52250000D02*
X48750000Y53000000D01*
D10*
X24149989Y49649989D02*
X14119247Y49649989D01*
D10*
X60000000Y59500000D02*
X59250000Y60250000D01*
D10*
X42350000Y52750000D02*
X41000000Y52750000D01*
D10*
X70833335Y64666665D02*
X70250000Y65250000D01*
D10*
X37500000Y51500000D02*
X40750000Y54750000D01*
D10*
X15895000Y54105000D02*
X14523334Y55476666D01*
D10*
X64000000Y47600000D02*
X62350000Y47600000D01*
D10*
X48500000Y47000000D02*
X49250000Y47000000D01*
D10*
X27000000Y49500000D02*
X42000000Y49500000D01*
D10*
X51000000Y49750000D02*
X50750000Y49500000D01*
D10*
X42350000Y51750000D02*
X40750000Y51750000D01*
D10*
X27250000Y52000000D02*
X36934286Y52000000D01*
D10*
X17165000Y53585000D02*
X15500000Y55250000D01*
D10*
X33250000Y53250000D02*
X35750000Y53250000D01*
D10*
X39250000Y51000000D02*
X26750000Y51000000D01*
D10*
X51144286Y58540000D02*
X52750000Y56934286D01*
D10*
X28877513Y59698333D02*
X28877513Y59332715D01*
D10*
X40000000Y47600000D02*
X41900000Y47600000D01*
D10*
X63700000Y63300000D02*
X63700000Y64050000D01*
D10*
X57500000Y51750000D02*
X58500000Y52750000D01*
D10*
X40000000Y57900000D02*
X41900000Y57900000D01*
D10*
X24500000Y54750000D02*
X27250000Y52000000D01*
D10*
X37495846Y56350000D02*
X41900000Y56350000D01*
D10*
X63700000Y64050000D02*
X63500000Y64250000D01*
D10*
X52000000Y54000000D02*
X51250000Y54000000D01*
D10*
X44750000Y51500000D02*
X44750000Y51250000D01*
D10*
X55000000Y60100000D02*
X55000000Y60500000D01*
D10*
X64500000Y62000000D02*
X63500000Y62000000D01*
D10*
X59750000Y58000000D02*
X60500000Y58000000D01*
D10*
X70833335Y62500000D02*
X70833335Y63000000D01*
D10*
X31784993Y61335813D02*
X33664187Y61335813D01*
D10*
X45750000Y48750000D02*
X46000000Y49000000D01*
D10*
X31050033Y61870853D02*
X31050033Y63575033D01*
D10*
X62350000Y47600000D02*
X62250000Y47500000D01*
D10*
X52750000Y56934286D02*
X52750000Y53350000D01*
D10*
X57000000Y55250000D02*
X57000000Y57250000D01*
D10*
X55450011Y59700011D02*
X55000000Y59250000D01*
D10*
X59250000Y60250000D02*
X59250000Y62250000D01*
D10*
X55250000Y53350000D02*
X55250000Y54250000D01*
D10*
X22245000Y53995000D02*
X22250000Y54000000D01*
D10*
X68000000Y58750000D02*
X68500000Y58250000D01*
D10*
X61500000Y56500000D02*
X60500000Y56500000D01*
D10*
X65900000Y57900000D02*
X66000000Y58000000D01*
D10*
X61250000Y48000000D02*
X63500000Y50250000D01*
D10*
X53750000Y47000000D02*
X51750000Y47000000D01*
D10*
X60250000Y61250000D02*
X60250000Y60250000D01*
D10*
X14523334Y61250000D02*
X14523334Y58540000D01*
D10*
X23750000Y62750000D02*
X14523334Y62750000D01*
D10*
X58500000Y52750000D02*
X57722182Y52750000D01*
D10*
X50500000Y50750000D02*
X51650000Y50750000D01*
D10*
X44913793Y53913793D02*
X45000000Y54000000D01*
D10*
X15895000Y47550000D02*
X15895000Y48855000D01*
D10*
X27752040Y65000000D02*
X34500000Y65000000D01*
D10*
X55500000Y59175000D02*
X56000000Y59675000D01*
D10*
X43527834Y51750000D02*
X44500000Y50777834D01*
D10*
X41900000Y56350000D02*
X42350000Y55900000D01*
D10*
X31050033Y55449967D02*
X33250000Y53250000D01*
D10*
X11750000Y49000000D02*
X11000000Y49000000D01*
D10*
X31417513Y60968333D02*
X31784993Y61335813D01*
D10*
X54250000Y53350000D02*
X54250000Y54000000D01*
D10*
X63250000Y54750000D02*
X61650000Y54750000D01*
D10*
X66000000Y59500000D02*
X62750000Y59500000D01*
D10*
X61650000Y54750000D02*
X61650000Y56350000D01*
D10*
X40750000Y51750000D02*
X39500000Y50500000D01*
D10*
X28877513Y59332715D02*
X27750000Y58205202D01*
D10*
X43000000Y55750000D02*
X43000000Y56500000D01*
D10*
X52500000Y57750000D02*
X53250000Y57750000D01*
D10*
X50250000Y53000000D02*
X49500000Y53750000D01*
D10*
X52500000Y58500000D02*
X53250000Y58500000D01*
D10*
X19705000Y47550000D02*
X19705000Y48955000D01*
D10*
X60500000Y58000000D02*
X60500000Y59500000D01*
D10*
X55000000Y58315714D02*
X55000000Y58750000D01*
D10*
X44500000Y50777834D02*
X44500000Y50500000D01*
D10*
X19705000Y48955000D02*
X19750000Y49000000D01*
D10*
X46190000Y58540000D02*
X51144286Y58540000D01*
D10*
X49500000Y60750000D02*
X52500000Y57750000D01*
D10*
X43000000Y47750000D02*
X41750000Y49000000D01*
D10*
X46500000Y52500000D02*
X46500000Y51200000D01*
D10*
X46500000Y51200000D02*
X46750000Y50950000D01*
D10*
X55500000Y58750000D02*
X55500000Y59175000D01*
D10*
X57250000Y60750000D02*
X57000000Y61000000D01*
D10*
X47250000Y49500000D02*
X50000000Y49500000D01*
D10*
X24500000Y63500000D02*
X23750000Y62750000D01*
D10*
X56500000Y55500000D02*
X56500000Y56750000D01*
D10*
X54250000Y48143688D02*
X54476375Y47917313D01*
D10*
X36934286Y52000000D02*
X40684286Y55750000D01*
D10*
X42250000Y57000000D02*
X43000000Y57750000D01*
D10*
X30147513Y60968333D02*
X31050033Y61870853D01*
D10*
X55750000Y54000000D02*
X57000000Y55250000D01*
D10*
X13355000Y52450000D02*
X13355000Y53895000D01*
D10*
X62750000Y62000000D02*
X62750000Y63300000D01*
D10*
X43500000Y48750000D02*
X45750000Y48750000D01*
D10*
X41900000Y57900000D02*
X42000000Y58000000D01*
D10*
X61600000Y64250000D02*
X61800000Y64050000D01*
D10*
X14625000Y52450000D02*
X14625000Y53875000D01*
D10*
X45500000Y49750000D02*
X47000000Y49750000D01*
D10*
X17165000Y52450000D02*
X18435000Y52450000D01*
D10*
X15895000Y52450000D02*
X15895000Y51145000D01*
D10*
X64000000Y57900000D02*
X65900000Y57900000D01*
D10*
X26750000Y50000000D02*
X42250000Y50000000D01*
D10*
X11750000Y47500000D02*
X13305000Y47500000D01*
D10*
X10500000Y47500000D02*
X9750000Y48250000D01*
D10*
X60250000Y62750000D02*
X60250000Y63500000D01*
D10*
X25050000Y47550000D02*
X27000000Y49500000D01*
D10*
X50250000Y53000000D02*
X50250000Y52250000D01*
D10*
X61650000Y56350000D02*
X61500000Y56500000D01*
G75*
D11*
X46500000Y31000000D03*
D11*
X46500000Y29500000D03*
D12*
X50250000Y24000000D03*
D12*
X51750000Y24000000D03*
D13*
X14523334Y35540000D03*
D13*
X20873334Y38080000D03*
D12*
X70000000Y35250000D03*
D12*
X71500000Y35250000D03*
D14*
X28877513Y36698333D03*
D14*
X31417513Y36698333D03*
D14*
X31417513Y37968333D03*
D14*
X30147513Y37968333D03*
D14*
X30147513Y36698333D03*
D14*
X28877513Y37968333D03*
D15*
X56000000Y37100000D03*
D16*
X56000000Y35750000D03*
D16*
X55500000Y35750000D03*
D16*
X55000000Y35750000D03*
D15*
X55000000Y37100000D03*
D17*
X60000000Y30750000D03*
D17*
X60000000Y32250000D03*
D11*
X58500000Y31250000D03*
D11*
X58500000Y29750000D03*
D13*
X46190000Y35540000D03*
D13*
X52540000Y38080000D03*
D18*
X60250000Y39750000D03*
D18*
X60250000Y38250000D03*
D19*
X19705000Y29450000D03*
D20*
X20975000Y24550000D03*
D19*
X17165000Y29450000D03*
D20*
X22245000Y24550000D03*
D20*
X14625000Y24550000D03*
D20*
X15895000Y24550000D03*
D19*
X14625000Y29450000D03*
D20*
X18435000Y24550000D03*
D20*
X19705000Y24550000D03*
D19*
X15895000Y29450000D03*
D20*
X13355000Y24550000D03*
D19*
X18435000Y29450000D03*
D19*
X20975000Y29450000D03*
D19*
X22245000Y29450000D03*
D19*
X13355000Y29450000D03*
D20*
X17165000Y24550000D03*
D13*
X77856666Y35540000D03*
D13*
X84206666Y38080000D03*
D21*
X48500000Y24000000D03*
D21*
X47000000Y24000000D03*
D11*
X45000000Y31000000D03*
D11*
X45000000Y29500000D03*
D22*
X61800000Y37700000D03*
D22*
X63700000Y37700000D03*
D23*
X63700000Y40300000D03*
D23*
X61800000Y40300000D03*
D23*
X62750000Y40300000D03*
D24*
X41500000Y37000000D03*
D24*
X43000000Y37000000D03*
D25*
X69233335Y39500000D03*
D25*
X71633335Y38500000D03*
D26*
X70833335Y37250000D03*
D25*
X72433335Y39500000D03*
D25*
X70833335Y39500000D03*
D26*
X72733335Y40750000D03*
D26*
X68433335Y40750000D03*
D25*
X70033335Y38500000D03*
D27*
X64000000Y34900000D03*
D28*
X61650000Y29750000D03*
D29*
X64000000Y24600000D03*
D28*
X61650000Y28750000D03*
D28*
X61650000Y30750000D03*
D28*
X61650000Y27750000D03*
D28*
X61650000Y31750000D03*
D18*
X57250000Y37175000D03*
D18*
X57250000Y35675000D03*
D12*
X48750000Y29250000D03*
D12*
X50250000Y29250000D03*
D11*
X14523334Y39750000D03*
D11*
X14523334Y38250000D03*
D21*
X58500000Y24000000D03*
D21*
X57000000Y24000000D03*
D30*
X65250000Y38250000D03*
D30*
X65250000Y39750000D03*
D12*
X53750000Y24000000D03*
D12*
X55250000Y24000000D03*
D29*
X40000000Y24600000D03*
D31*
X42350000Y29750000D03*
D27*
X40000000Y34900000D03*
D31*
X42350000Y30750000D03*
D31*
X42350000Y28750000D03*
D31*
X42350000Y31750000D03*
D31*
X42350000Y27750000D03*
D32*
X56350000Y28750000D03*
D33*
X51650000Y28750000D03*
D34*
X54250000Y25650000D03*
D32*
X56350000Y26250000D03*
D35*
X53250000Y30350000D03*
D32*
X56350000Y29750000D03*
D33*
X51650000Y27250000D03*
D34*
X53750000Y25650000D03*
D35*
X55250000Y30350000D03*
D32*
X56350000Y28250000D03*
D34*
X53250000Y25650000D03*
D32*
X56350000Y26750000D03*
D33*
X51650000Y28250000D03*
D34*
X52250000Y25650000D03*
D33*
X51650000Y26750000D03*
D35*
X52750000Y30350000D03*
D33*
X51650000Y27750000D03*
D36*
X54000000Y28000000D03*
D35*
X55750000Y30350000D03*
D34*
X55250000Y25650000D03*
D35*
X52250000Y30350000D03*
D35*
X54750000Y30350000D03*
D35*
X54250000Y30350000D03*
D34*
X54750000Y25650000D03*
D35*
X53750000Y30350000D03*
D33*
X51650000Y26250000D03*
D33*
X51650000Y29750000D03*
D32*
X56350000Y27750000D03*
D33*
X51650000Y29250000D03*
D32*
X56350000Y27250000D03*
D32*
X56350000Y29250000D03*
D34*
X55750000Y25650000D03*
D34*
X52750000Y25650000D03*
D18*
X11750000Y26000000D03*
D18*
X11750000Y24500000D03*
D17*
X60500000Y33500000D03*
D17*
X60500000Y35000000D03*
D37*
X53250000Y35500000D03*
D37*
X45750000Y28500000D03*
D37*
X59250000Y39250000D03*
D37*
X22250000Y31000000D03*
D37*
X40500000Y39000000D03*
D37*
X50000000Y27250000D03*
D37*
X46750000Y27950000D03*
D37*
X62250000Y24500000D03*
D37*
X60250000Y28750000D03*
D37*
X52750000Y26750000D03*
D37*
X49250000Y24000000D03*
D37*
X40750000Y31750000D03*
D37*
X62750000Y36500000D03*
D37*
X18500000Y26000000D03*
D37*
X15750000Y26000000D03*
D37*
X60250000Y37250000D03*
D37*
X42000000Y35000000D03*
D37*
X24000000Y27500000D03*
D37*
X14750000Y26000000D03*
D37*
X35750000Y25750000D03*
D37*
X11000000Y26000000D03*
D37*
X60500000Y36500000D03*
D37*
X56250000Y40250000D03*
D37*
X57000000Y38000000D03*
D37*
X13250000Y28000000D03*
D37*
X14750000Y28000000D03*
D37*
X43750000Y27750000D03*
D37*
X65250000Y37500000D03*
D37*
X24500000Y40500000D03*
D37*
X46750000Y25750000D03*
D37*
X58750000Y32250000D03*
D37*
X42000000Y24500000D03*
D37*
X57486091Y29513909D03*
D37*
X27750000Y35000000D03*
D37*
X60250000Y29750000D03*
D37*
X50000000Y26500000D03*
D37*
X42000000Y34000000D03*
D37*
X46000000Y26000000D03*
D37*
X60000000Y27000000D03*
D37*
X45250000Y27800000D03*
D37*
X60250000Y40500000D03*
D37*
X26000000Y27500000D03*
D37*
X52750000Y24750000D03*
D37*
X55250000Y29250000D03*
D37*
X59250000Y24000000D03*
D37*
X14750000Y31000000D03*
D37*
X54750000Y37750000D03*
D37*
X52750000Y29250000D03*
D37*
X13250000Y31000000D03*
D37*
X55250000Y26750000D03*
D37*
X66000000Y35000000D03*
D37*
X47500000Y32250000D03*
D37*
X53250000Y34750000D03*
D37*
X43000000Y32750000D03*
D37*
X45250000Y26500000D03*
D37*
X19750000Y26000000D03*
D37*
X41500000Y32750000D03*
D37*
X62750000Y39000000D03*
D37*
X35750000Y30250000D03*
D37*
X50500000Y27949998D03*
D37*
X40500000Y37000000D03*
D37*
X57250000Y41250000D03*
D37*
X56000000Y34250000D03*
D37*
X47750000Y30250000D03*
D37*
X57750000Y26500000D03*
D37*
X26000000Y39000000D03*
D37*
X17000000Y26000000D03*
D37*
X54476375Y24917313D03*
D37*
X48750000Y30000000D03*
D37*
X57000000Y34750000D03*
D11*
X46500000Y77000000D03*
D11*
X46500000Y75500000D03*
D12*
X50250000Y70000000D03*
D12*
X51750000Y70000000D03*
D13*
X14523334Y81540000D03*
D13*
X20873334Y84080000D03*
D12*
X70000000Y81250000D03*
D12*
X71500000Y81250000D03*
D14*
X28877513Y82698333D03*
D14*
X31417513Y82698333D03*
D14*
X31417513Y83968333D03*
D14*
X30147513Y83968333D03*
D14*
X30147513Y82698333D03*
D14*
X28877513Y83968333D03*
D15*
X56000000Y83100000D03*
D16*
X56000000Y81750000D03*
D16*
X55500000Y81750000D03*
D16*
X55000000Y81750000D03*
D15*
X55000000Y83100000D03*
D17*
X60000000Y76750000D03*
D17*
X60000000Y78250000D03*
D11*
X58500000Y77250000D03*
D11*
X58500000Y75750000D03*
D13*
X46190000Y81540000D03*
D13*
X52540000Y84080000D03*
D18*
X60250000Y85750000D03*
D18*
X60250000Y84250000D03*
D19*
X19705000Y75450000D03*
D20*
X20975000Y70550000D03*
D19*
X17165000Y75450000D03*
D20*
X22245000Y70550000D03*
D20*
X14625000Y70550000D03*
D20*
X15895000Y70550000D03*
D19*
X14625000Y75450000D03*
D20*
X18435000Y70550000D03*
D20*
X19705000Y70550000D03*
D19*
X15895000Y75450000D03*
D20*
X13355000Y70550000D03*
D19*
X18435000Y75450000D03*
D19*
X20975000Y75450000D03*
D19*
X22245000Y75450000D03*
D19*
X13355000Y75450000D03*
D20*
X17165000Y70550000D03*
D13*
X77856666Y81540000D03*
D13*
X84206666Y84080000D03*
D21*
X48500000Y70000000D03*
D21*
X47000000Y70000000D03*
D11*
X45000000Y77000000D03*
D11*
X45000000Y75500000D03*
D22*
X61800000Y83700000D03*
D22*
X63700000Y83700000D03*
D23*
X63700000Y86300000D03*
D23*
X61800000Y86300000D03*
D23*
X62750000Y86300000D03*
D24*
X41500000Y83000000D03*
D24*
X43000000Y83000000D03*
D25*
X69233335Y85500000D03*
D25*
X71633335Y84500000D03*
D26*
X70833335Y83250000D03*
D25*
X72433335Y85500000D03*
D25*
X70833335Y85500000D03*
D26*
X72733335Y86750000D03*
D26*
X68433335Y86750000D03*
D25*
X70033335Y84500000D03*
D27*
X64000000Y80900000D03*
D28*
X61650000Y75750000D03*
D29*
X64000000Y70600000D03*
D28*
X61650000Y74750000D03*
D28*
X61650000Y76750000D03*
D28*
X61650000Y73750000D03*
D28*
X61650000Y77750000D03*
D18*
X57250000Y83175000D03*
D18*
X57250000Y81675000D03*
D12*
X48750000Y75250000D03*
D12*
X50250000Y75250000D03*
D11*
X14523334Y85750000D03*
D11*
X14523334Y84250000D03*
D21*
X58500000Y70000000D03*
D21*
X57000000Y70000000D03*
D30*
X65250000Y84250000D03*
D30*
X65250000Y85750000D03*
D12*
X53750000Y70000000D03*
D12*
X55250000Y70000000D03*
D29*
X40000000Y70600000D03*
D31*
X42350000Y75750000D03*
D27*
X40000000Y80900000D03*
D31*
X42350000Y76750000D03*
D31*
X42350000Y74750000D03*
D31*
X42350000Y77750000D03*
D31*
X42350000Y73750000D03*
D32*
X56350000Y74750000D03*
D33*
X51650000Y74750000D03*
D34*
X54250000Y71650000D03*
D32*
X56350000Y72250000D03*
D35*
X53250000Y76350000D03*
D32*
X56350000Y75750000D03*
D33*
X51650000Y73250000D03*
D34*
X53750000Y71650000D03*
D35*
X55250000Y76350000D03*
D32*
X56350000Y74250000D03*
D34*
X53250000Y71650000D03*
D32*
X56350000Y72750000D03*
D33*
X51650000Y74250000D03*
D34*
X52250000Y71650000D03*
D33*
X51650000Y72750000D03*
D35*
X52750000Y76350000D03*
D33*
X51650000Y73750000D03*
D36*
X54000000Y74000000D03*
D35*
X55750000Y76350000D03*
D34*
X55250000Y71650000D03*
D35*
X52250000Y76350000D03*
D35*
X54750000Y76350000D03*
D35*
X54250000Y76350000D03*
D34*
X54750000Y71650000D03*
D35*
X53750000Y76350000D03*
D33*
X51650000Y72250000D03*
D33*
X51650000Y75750000D03*
D32*
X56350000Y73750000D03*
D33*
X51650000Y75250000D03*
D32*
X56350000Y73250000D03*
D32*
X56350000Y75250000D03*
D34*
X55750000Y71650000D03*
D34*
X52750000Y71650000D03*
D18*
X11750000Y72000000D03*
D18*
X11750000Y70500000D03*
D17*
X60500000Y79500000D03*
D17*
X60500000Y81000000D03*
D37*
X53250000Y81500000D03*
D37*
X45750000Y74500000D03*
D37*
X59250000Y85250000D03*
D37*
X22250000Y77000000D03*
D37*
X40500000Y85000000D03*
D37*
X50000000Y73250000D03*
D37*
X46750000Y73950000D03*
D37*
X62250000Y70500000D03*
D37*
X60250000Y74750000D03*
D37*
X52750000Y72750000D03*
D37*
X49250000Y70000000D03*
D37*
X40750000Y77750000D03*
D37*
X62750000Y82500000D03*
D37*
X18500000Y72000000D03*
D37*
X15750000Y72000000D03*
D37*
X60250000Y83250000D03*
D37*
X42000000Y81000000D03*
D37*
X24000000Y73500000D03*
D37*
X14750000Y72000000D03*
D37*
X35750000Y71750000D03*
D37*
X11000000Y72000000D03*
D37*
X60500000Y82500000D03*
D37*
X56250000Y86250000D03*
D37*
X57000000Y84000000D03*
D37*
X13250000Y74000000D03*
D37*
X14750000Y74000000D03*
D37*
X43750000Y73750000D03*
D37*
X65250000Y83500000D03*
D37*
X24500000Y86500000D03*
D37*
X46750000Y71750000D03*
D37*
X58750000Y78250000D03*
D37*
X42000000Y70500000D03*
D37*
X57486091Y75513909D03*
D37*
X27750000Y81000000D03*
D37*
X60250000Y75750000D03*
D37*
X50000000Y72500000D03*
D37*
X42000000Y80000000D03*
D37*
X46000000Y72000000D03*
D37*
X60000000Y73000000D03*
D37*
X45250000Y73800000D03*
D37*
X60250000Y86500000D03*
D37*
X26000000Y73500000D03*
D37*
X52750000Y70750000D03*
D37*
X55250000Y75250000D03*
D37*
X59250000Y70000000D03*
D37*
X14750000Y77000000D03*
D37*
X54750000Y83750000D03*
D37*
X52750000Y75250000D03*
D37*
X13250000Y77000000D03*
D37*
X55250000Y72750000D03*
D37*
X66000000Y81000000D03*
D37*
X47500000Y78250000D03*
D37*
X53250000Y80750000D03*
D37*
X43000000Y78750000D03*
D37*
X45250000Y72500000D03*
D37*
X19750000Y72000000D03*
D37*
X41500000Y78750000D03*
D37*
X62750000Y85000000D03*
D37*
X35750000Y76250000D03*
D37*
X50500000Y73949998D03*
D37*
X40500000Y83000000D03*
D37*
X57250000Y87250000D03*
D37*
X56000000Y80250000D03*
D37*
X47750000Y76250000D03*
D37*
X57750000Y72500000D03*
D37*
X26000000Y85000000D03*
D37*
X17000000Y72000000D03*
D37*
X54476375Y70917313D03*
D37*
X48750000Y76000000D03*
D37*
X57000000Y80750000D03*
D11*
X46500000Y8000000D03*
D11*
X46500000Y6500000D03*
D12*
X50250000Y1000000D03*
D12*
X51750000Y1000000D03*
D13*
X14523334Y12540000D03*
D13*
X20873334Y15080000D03*
D12*
X70000000Y12250000D03*
D12*
X71500000Y12250000D03*
D14*
X28877513Y13698333D03*
D14*
X31417513Y13698333D03*
D14*
X31417513Y14968333D03*
D14*
X30147513Y14968333D03*
D14*
X30147513Y13698333D03*
D14*
X28877513Y14968333D03*
D15*
X56000000Y14100000D03*
D16*
X56000000Y12750000D03*
D16*
X55500000Y12750000D03*
D16*
X55000000Y12750000D03*
D15*
X55000000Y14100000D03*
D17*
X60000000Y7750000D03*
D17*
X60000000Y9250000D03*
D11*
X58500000Y8250000D03*
D11*
X58500000Y6750000D03*
D13*
X46190000Y12540000D03*
D13*
X52540000Y15080000D03*
D18*
X60250000Y16750000D03*
D18*
X60250000Y15250000D03*
D19*
X19705000Y6450000D03*
D20*
X20975000Y1550000D03*
D19*
X17165000Y6450000D03*
D20*
X22245000Y1550000D03*
D20*
X14625000Y1550000D03*
D20*
X15895000Y1550000D03*
D19*
X14625000Y6450000D03*
D20*
X18435000Y1550000D03*
D20*
X19705000Y1550000D03*
D19*
X15895000Y6450000D03*
D20*
X13355000Y1550000D03*
D19*
X18435000Y6450000D03*
D19*
X20975000Y6450000D03*
D19*
X22245000Y6450000D03*
D19*
X13355000Y6450000D03*
D20*
X17165000Y1550000D03*
D13*
X77856666Y12540000D03*
D13*
X84206666Y15080000D03*
D21*
X48500000Y1000000D03*
D21*
X47000000Y1000000D03*
D11*
X45000000Y8000000D03*
D11*
X45000000Y6500000D03*
D22*
X61800000Y14700000D03*
D22*
X63700000Y14700000D03*
D23*
X63700000Y17300000D03*
D23*
X61800000Y17300000D03*
D23*
X62750000Y17300000D03*
D24*
X41500000Y14000000D03*
D24*
X43000000Y14000000D03*
D25*
X69233335Y16500000D03*
D25*
X71633335Y15500000D03*
D26*
X70833335Y14250000D03*
D25*
X72433335Y16500000D03*
D25*
X70833335Y16500000D03*
D26*
X72733335Y17750000D03*
D26*
X68433335Y17750000D03*
D25*
X70033335Y15500000D03*
D27*
X64000000Y11900000D03*
D28*
X61650000Y6750000D03*
D29*
X64000000Y1600000D03*
D28*
X61650000Y5750000D03*
D28*
X61650000Y7750000D03*
D28*
X61650000Y4750000D03*
D28*
X61650000Y8750000D03*
D18*
X57250000Y14175000D03*
D18*
X57250000Y12675000D03*
D12*
X48750000Y6250000D03*
D12*
X50250000Y6250000D03*
D11*
X14523334Y16750000D03*
D11*
X14523334Y15250000D03*
D21*
X58500000Y1000000D03*
D21*
X57000000Y1000000D03*
D30*
X65250000Y15250000D03*
D30*
X65250000Y16750000D03*
D12*
X53750000Y1000000D03*
D12*
X55250000Y1000000D03*
D29*
X40000000Y1600000D03*
D31*
X42350000Y6750000D03*
D27*
X40000000Y11900000D03*
D31*
X42350000Y7750000D03*
D31*
X42350000Y5750000D03*
D31*
X42350000Y8750000D03*
D31*
X42350000Y4750000D03*
D32*
X56350000Y5750000D03*
D33*
X51650000Y5750000D03*
D34*
X54250000Y2650000D03*
D32*
X56350000Y3250000D03*
D35*
X53250000Y7350000D03*
D32*
X56350000Y6750000D03*
D33*
X51650000Y4250000D03*
D34*
X53750000Y2650000D03*
D35*
X55250000Y7350000D03*
D32*
X56350000Y5250000D03*
D34*
X53250000Y2650000D03*
D32*
X56350000Y3750000D03*
D33*
X51650000Y5250000D03*
D34*
X52250000Y2650000D03*
D33*
X51650000Y3750000D03*
D35*
X52750000Y7350000D03*
D33*
X51650000Y4750000D03*
D36*
X54000000Y5000000D03*
D35*
X55750000Y7350000D03*
D34*
X55250000Y2650000D03*
D35*
X52250000Y7350000D03*
D35*
X54750000Y7350000D03*
D35*
X54250000Y7350000D03*
D34*
X54750000Y2650000D03*
D35*
X53750000Y7350000D03*
D33*
X51650000Y3250000D03*
D33*
X51650000Y6750000D03*
D32*
X56350000Y4750000D03*
D33*
X51650000Y6250000D03*
D32*
X56350000Y4250000D03*
D32*
X56350000Y6250000D03*
D34*
X55750000Y2650000D03*
D34*
X52750000Y2650000D03*
D18*
X11750000Y3000000D03*
D18*
X11750000Y1500000D03*
D17*
X60500000Y10500000D03*
D17*
X60500000Y12000000D03*
D37*
X53250000Y12500000D03*
D37*
X45750000Y5500000D03*
D37*
X59250000Y16250000D03*
D37*
X22250000Y8000000D03*
D37*
X40500000Y16000000D03*
D37*
X50000000Y4250000D03*
D37*
X46750000Y4950000D03*
D37*
X62250000Y1500000D03*
D37*
X60250000Y5750000D03*
D37*
X52750000Y3750000D03*
D37*
X49250000Y1000000D03*
D37*
X40750000Y8750000D03*
D37*
X62750000Y13500000D03*
D37*
X18500000Y3000000D03*
D37*
X15750000Y3000000D03*
D37*
X60250000Y14250000D03*
D37*
X42000000Y12000000D03*
D37*
X24000000Y4500000D03*
D37*
X14750000Y3000000D03*
D37*
X35750000Y2750000D03*
D37*
X11000000Y3000000D03*
D37*
X60500000Y13500000D03*
D37*
X56250000Y17250000D03*
D37*
X57000000Y15000000D03*
D37*
X13250000Y5000000D03*
D37*
X14750000Y5000000D03*
D37*
X43750000Y4750000D03*
D37*
X65250000Y14500000D03*
D37*
X24500000Y17500000D03*
D37*
X46750000Y2750000D03*
D37*
X58750000Y9250000D03*
D37*
X42000000Y1500000D03*
D37*
X57486091Y6513909D03*
D37*
X27750000Y12000000D03*
D37*
X60250000Y6750000D03*
D37*
X50000000Y3500000D03*
D37*
X42000000Y11000000D03*
D37*
X46000000Y3000000D03*
D37*
X60000000Y4000000D03*
D37*
X45250000Y4800000D03*
D37*
X60250000Y17500000D03*
D37*
X26000000Y4500000D03*
D37*
X52750000Y1750000D03*
D37*
X55250000Y6250000D03*
D37*
X59250000Y1000000D03*
D37*
X14750000Y8000000D03*
D37*
X54750000Y14750000D03*
D37*
X52750000Y6250000D03*
D37*
X13250000Y8000000D03*
D37*
X55250000Y3750000D03*
D37*
X66000000Y12000000D03*
D37*
X47500000Y9250000D03*
D37*
X53250000Y11750000D03*
D37*
X43000000Y9750000D03*
D37*
X45250000Y3500000D03*
D37*
X19750000Y3000000D03*
D37*
X41500000Y9750000D03*
D37*
X62750000Y16000000D03*
D37*
X35750000Y7250000D03*
D37*
X50500000Y4949998D03*
D37*
X40500000Y14000000D03*
D37*
X57250000Y18250000D03*
D37*
X56000000Y11250000D03*
D37*
X47750000Y7250000D03*
D37*
X57750000Y3500000D03*
D37*
X26000000Y16000000D03*
D37*
X17000000Y3000000D03*
D37*
X54476375Y1917313D03*
D37*
X48750000Y7000000D03*
D37*
X57000000Y11750000D03*
D11*
X46500000Y54000000D03*
D11*
X46500000Y52500000D03*
D12*
X50250000Y47000000D03*
D12*
X51750000Y47000000D03*
D13*
X14523334Y58540000D03*
D13*
X20873334Y61080000D03*
D12*
X70000000Y58250000D03*
D12*
X71500000Y58250000D03*
D14*
X28877513Y59698333D03*
D14*
X31417513Y59698333D03*
D14*
X31417513Y60968333D03*
D14*
X30147513Y60968333D03*
D14*
X30147513Y59698333D03*
D14*
X28877513Y60968333D03*
D15*
X56000000Y60100000D03*
D16*
X56000000Y58750000D03*
D16*
X55500000Y58750000D03*
D16*
X55000000Y58750000D03*
D15*
X55000000Y60100000D03*
D17*
X60000000Y53750000D03*
D17*
X60000000Y55250000D03*
D11*
X58500000Y54250000D03*
D11*
X58500000Y52750000D03*
D13*
X46190000Y58540000D03*
D13*
X52540000Y61080000D03*
D18*
X60250000Y62750000D03*
D18*
X60250000Y61250000D03*
D19*
X19705000Y52450000D03*
D20*
X20975000Y47550000D03*
D19*
X17165000Y52450000D03*
D20*
X22245000Y47550000D03*
D20*
X14625000Y47550000D03*
D20*
X15895000Y47550000D03*
D19*
X14625000Y52450000D03*
D20*
X18435000Y47550000D03*
D20*
X19705000Y47550000D03*
D19*
X15895000Y52450000D03*
D20*
X13355000Y47550000D03*
D19*
X18435000Y52450000D03*
D19*
X20975000Y52450000D03*
D19*
X22245000Y52450000D03*
D19*
X13355000Y52450000D03*
D20*
X17165000Y47550000D03*
D13*
X77856666Y58540000D03*
D13*
X84206666Y61080000D03*
D21*
X48500000Y47000000D03*
D21*
X47000000Y47000000D03*
D11*
X45000000Y54000000D03*
D11*
X45000000Y52500000D03*
D22*
X61800000Y60700000D03*
D22*
X63700000Y60700000D03*
D23*
X63700000Y63300000D03*
D23*
X61800000Y63300000D03*
D23*
X62750000Y63300000D03*
D24*
X41500000Y60000000D03*
D24*
X43000000Y60000000D03*
D25*
X69233335Y62500000D03*
D25*
X71633335Y61500000D03*
D26*
X70833335Y60250000D03*
D25*
X72433335Y62500000D03*
D25*
X70833335Y62500000D03*
D26*
X72733335Y63750000D03*
D26*
X68433335Y63750000D03*
D25*
X70033335Y61500000D03*
D27*
X64000000Y57900000D03*
D28*
X61650000Y52750000D03*
D29*
X64000000Y47600000D03*
D28*
X61650000Y51750000D03*
D28*
X61650000Y53750000D03*
D28*
X61650000Y50750000D03*
D28*
X61650000Y54750000D03*
D18*
X57250000Y60175000D03*
D18*
X57250000Y58675000D03*
D12*
X48750000Y52250000D03*
D12*
X50250000Y52250000D03*
D11*
X14523334Y62750000D03*
D11*
X14523334Y61250000D03*
D21*
X58500000Y47000000D03*
D21*
X57000000Y47000000D03*
D30*
X65250000Y61250000D03*
D30*
X65250000Y62750000D03*
D12*
X53750000Y47000000D03*
D12*
X55250000Y47000000D03*
D29*
X40000000Y47600000D03*
D31*
X42350000Y52750000D03*
D27*
X40000000Y57900000D03*
D31*
X42350000Y53750000D03*
D31*
X42350000Y51750000D03*
D31*
X42350000Y54750000D03*
D31*
X42350000Y50750000D03*
D32*
X56350000Y51750000D03*
D33*
X51650000Y51750000D03*
D34*
X54250000Y48650000D03*
D32*
X56350000Y49250000D03*
D35*
X53250000Y53350000D03*
D32*
X56350000Y52750000D03*
D33*
X51650000Y50250000D03*
D34*
X53750000Y48650000D03*
D35*
X55250000Y53350000D03*
D32*
X56350000Y51250000D03*
D34*
X53250000Y48650000D03*
D32*
X56350000Y49750000D03*
D33*
X51650000Y51250000D03*
D34*
X52250000Y48650000D03*
D33*
X51650000Y49750000D03*
D35*
X52750000Y53350000D03*
D33*
X51650000Y50750000D03*
D36*
X54000000Y51000000D03*
D35*
X55750000Y53350000D03*
D34*
X55250000Y48650000D03*
D35*
X52250000Y53350000D03*
D35*
X54750000Y53350000D03*
D35*
X54250000Y53350000D03*
D34*
X54750000Y48650000D03*
D35*
X53750000Y53350000D03*
D33*
X51650000Y49250000D03*
D33*
X51650000Y52750000D03*
D32*
X56350000Y50750000D03*
D33*
X51650000Y52250000D03*
D32*
X56350000Y50250000D03*
D32*
X56350000Y52250000D03*
D34*
X55750000Y48650000D03*
D34*
X52750000Y48650000D03*
D18*
X11750000Y49000000D03*
D18*
X11750000Y47500000D03*
D17*
X60500000Y56500000D03*
D17*
X60500000Y58000000D03*
D37*
X53250000Y58500000D03*
D37*
X45750000Y51500000D03*
D37*
X59250000Y62250000D03*
D37*
X22250000Y54000000D03*
D37*
X40500000Y62000000D03*
D37*
X50000000Y50250000D03*
D37*
X46750000Y50950000D03*
D37*
X62250000Y47500000D03*
D37*
X60250000Y51750000D03*
D37*
X52750000Y49750000D03*
D37*
X49250000Y47000000D03*
D37*
X40750000Y54750000D03*
D37*
X62750000Y59500000D03*
D37*
X18500000Y49000000D03*
D37*
X15750000Y49000000D03*
D37*
X60250000Y60250000D03*
D37*
X42000000Y58000000D03*
D37*
X24000000Y50500000D03*
D37*
X14750000Y49000000D03*
D37*
X35750000Y48750000D03*
D37*
X11000000Y49000000D03*
D37*
X60500000Y59500000D03*
D37*
X56250000Y63250000D03*
D37*
X57000000Y61000000D03*
D37*
X13250000Y51000000D03*
D37*
X14750000Y51000000D03*
D37*
X43750000Y50750000D03*
D37*
X65250000Y60500000D03*
D37*
X24500000Y63500000D03*
D37*
X46750000Y48750000D03*
D37*
X58750000Y55250000D03*
D37*
X42000000Y47500000D03*
D37*
X57486091Y52513909D03*
D37*
X27750000Y58000000D03*
D37*
X60250000Y52750000D03*
D37*
X50000000Y49500000D03*
D37*
X42000000Y57000000D03*
D37*
X46000000Y49000000D03*
D37*
X60000000Y50000000D03*
D37*
X45250000Y50800000D03*
D37*
X60250000Y63500000D03*
D37*
X26000000Y50500000D03*
D37*
X52750000Y47750000D03*
D37*
X55250000Y52250000D03*
D37*
X59250000Y47000000D03*
D37*
X14750000Y54000000D03*
D37*
X54750000Y60750000D03*
D37*
X52750000Y52250000D03*
D37*
X13250000Y54000000D03*
D37*
X55250000Y49750000D03*
D37*
X66000000Y58000000D03*
D37*
X47500000Y55250000D03*
D37*
X53250000Y57750000D03*
D37*
X43000000Y55750000D03*
D37*
X45250000Y49500000D03*
D37*
X19750000Y49000000D03*
D37*
X41500000Y55750000D03*
D37*
X62750000Y62000000D03*
D37*
X35750000Y53250000D03*
D37*
X50500000Y50949998D03*
D37*
X40500000Y60000000D03*
D37*
X57250000Y64250000D03*
D37*
X56000000Y57250000D03*
D37*
X47750000Y53250000D03*
D37*
X57750000Y49500000D03*
D37*
X26000000Y62000000D03*
D37*
X17000000Y49000000D03*
D37*
X54476375Y47917313D03*
D37*
X48750000Y53000000D03*
D37*
X57000000Y57750000D03*
M02*
