%FSLAX46Y46*%
%MOMM*%
%AMPS13*
21,1,0.300000,0.450000,0.000000,0.000000,360.000000*
%
%ADD13PS13*%
%AMPS12*
21,1,0.300000,0.450000,0.000000,0.000000,180.000000*
%
%ADD12PS12*%
%AMPS26*
21,1,0.600000,1.900000,0.000000,0.000000,270.000000*
%
%ADD26PS26*%
%AMPS23*
21,1,0.600000,1.900000,0.000000,0.000000,90.000000*
%
%ADD23PS23*%
%AMPS24*
21,1,2.100000,2.800000,0.000000,0.000000,270.000000*
%
%ADD24PS24*%
%AMPS22*
21,1,2.100000,2.800000,0.000000,0.000000,90.000000*
%
%ADD22PS22*%
%AMPS17*
21,1,0.600000,1.950000,0.000000,0.000000,360.000000*
%
%ADD17PS17*%
%AMPS16*
21,1,0.600000,1.950000,0.000000,0.000000,180.000000*
%
%ADD16PS16*%
%AMPS29*
21,1,0.300000,0.600000,0.000000,0.000000,360.000000*
%
%ADD29PS29*%
%AMPS28*
21,1,0.300000,0.600000,0.000000,0.000000,270.000000*
%
%ADD28PS28*%
%AMPS30*
21,1,0.300000,0.600000,0.000000,0.000000,180.000000*
%
%ADD30PS30*%
%AMPS27*
21,1,0.300000,0.600000,0.000000,0.000000,90.000000*
%
%ADD27PS27*%
%AMPS11*
1,1,0.360000,0.220000,-0.195000*
1,1,0.360000,0.220000,0.195000*
21,1,0.800000,0.390000,0.000000,0.000000,360.000000*
21,1,0.440000,0.750000,0.000000,0.000000,360.000000*
1,1,0.360000,-0.220000,-0.195000*
1,1,0.360000,-0.220000,0.195000*
%
%ADD11PS11*%
%AMPS15*
1,1,0.360000,-0.195000,-0.220000*
1,1,0.360000,0.195000,-0.220000*
21,1,0.800000,0.390000,0.000000,0.000000,270.000000*
21,1,0.440000,0.750000,0.000000,0.000000,270.000000*
1,1,0.360000,-0.195000,0.220000*
1,1,0.360000,0.195000,0.220000*
%
%ADD15PS15*%
%AMPS18*
1,1,0.360000,-0.220000,0.195000*
1,1,0.360000,-0.220000,-0.195000*
21,1,0.800000,0.390000,0.000000,0.000000,180.000000*
21,1,0.440000,0.750000,0.000000,0.000000,180.000000*
1,1,0.360000,0.220000,0.195000*
1,1,0.360000,0.220000,-0.195000*
%
%ADD18PS18*%
%AMPS25*
1,1,0.360000,0.195000,0.220000*
1,1,0.360000,-0.195000,0.220000*
21,1,0.800000,0.390000,0.000000,0.000000,90.000000*
21,1,0.440000,0.750000,0.000000,0.000000,90.000000*
1,1,0.360000,0.195000,-0.220000*
1,1,0.360000,-0.195000,-0.220000*
%
%ADD25PS25*%
%AMPS14*
1,1,0.240000,-0.330000,-0.130000*
1,1,0.240000,0.330000,-0.130000*
21,1,0.500000,0.660000,0.000000,0.000000,270.000000*
21,1,0.260000,0.900000,0.000000,0.000000,270.000000*
1,1,0.240000,-0.330000,0.130000*
1,1,0.240000,0.330000,0.130000*
%
%ADD14PS14*%
%AMPS21*
1,1,0.240000,-0.130000,0.330000*
1,1,0.240000,-0.130000,-0.330000*
21,1,0.500000,0.660000,0.000000,0.000000,180.000000*
21,1,0.260000,0.900000,0.000000,0.000000,180.000000*
1,1,0.240000,0.130000,0.330000*
1,1,0.240000,0.130000,-0.330000*
%
%ADD21PS21*%
%AMPS10*
1,1,0.240000,0.330000,0.130000*
1,1,0.240000,-0.330000,0.130000*
21,1,0.500000,0.660000,0.000000,0.000000,90.000000*
21,1,0.260000,0.900000,0.000000,0.000000,90.000000*
1,1,0.240000,0.330000,-0.130000*
1,1,0.240000,-0.330000,-0.130000*
%
%ADD10PS10*%
%AMPS19*
1,1,0.100000,0.250000,-0.500000*
1,1,0.100000,0.250000,0.500000*
21,1,0.600000,1.000000,0.000000,0.000000,360.000000*
21,1,0.500000,1.100000,0.000000,0.000000,360.000000*
1,1,0.100000,-0.250000,-0.500000*
1,1,0.100000,-0.250000,0.500000*
%
%ADD19PS19*%
%AMPS20*
1,1,0.100000,-0.250000,0.500000*
1,1,0.100000,-0.250000,-0.500000*
21,1,0.600000,1.000000,0.000000,0.000000,180.000000*
21,1,0.500000,1.100000,0.000000,0.000000,180.000000*
1,1,0.100000,0.250000,0.500000*
1,1,0.100000,0.250000,-0.500000*
%
%ADD20PS20*%
%AMPS31*
4,1,4,
-1.443750,1.443750,
-0.206250,1.443750,
-0.206250,0.206250,
-1.443750,0.206250,
-1.443750,1.443750,
0*
4,1,4,
0.206250,1.443750,
1.443750,1.443750,
1.443750,0.206250,
0.206250,0.206250,
0.206250,1.443750,
0*
4,1,4,
0.206250,-0.206250,
1.443750,-0.206250,
1.443750,-1.443750,
0.206250,-1.443750,
0.206250,-0.206250,
0*
4,1,4,
-1.443750,-0.206250,
-0.206250,-0.206250,
-0.206250,-1.443750,
-1.443750,-1.443750,
-1.443750,-0.206250,
0*
%
%ADD31PS31*%
G01*
G01*
%LPD*%
G75*
D10*
X46500000Y31000000D03*
D10*
X46500000Y29500000D03*
D11*
X50250000Y24000000D03*
D11*
X51750000Y24000000D03*
D11*
X70000000Y35250000D03*
D11*
X71500000Y35250000D03*
D12*
X56000000Y37100000D03*
D13*
X56000000Y35750000D03*
D13*
X55500000Y35750000D03*
D13*
X55000000Y35750000D03*
D12*
X55000000Y37100000D03*
D14*
X60000000Y30750000D03*
D14*
X60000000Y32250000D03*
D10*
X58500000Y31250000D03*
D10*
X58500000Y29750000D03*
D15*
X60250000Y39750000D03*
D15*
X60250000Y38250000D03*
D16*
X19705000Y29450000D03*
D17*
X20975000Y24550000D03*
D16*
X17165000Y29450000D03*
D17*
X22245000Y24550000D03*
D17*
X14625000Y24550000D03*
D17*
X15895000Y24550000D03*
D16*
X14625000Y29450000D03*
D17*
X18435000Y24550000D03*
D17*
X19705000Y24550000D03*
D16*
X15895000Y29450000D03*
D17*
X13355000Y24550000D03*
D16*
X18435000Y29450000D03*
D16*
X20975000Y29450000D03*
D16*
X22245000Y29450000D03*
D16*
X13355000Y29450000D03*
D17*
X17165000Y24550000D03*
D18*
X48500000Y24000000D03*
D18*
X47000000Y24000000D03*
D10*
X45000000Y31000000D03*
D10*
X45000000Y29500000D03*
D19*
X61800000Y37700000D03*
D19*
X63700000Y37700000D03*
D20*
X63700000Y40300000D03*
D20*
X61800000Y40300000D03*
D20*
X62750000Y40300000D03*
D21*
X41500000Y37000000D03*
D21*
X43000000Y37000000D03*
D22*
X64000000Y34900000D03*
D23*
X61650000Y29750000D03*
D24*
X64000000Y24600000D03*
D23*
X61650000Y28750000D03*
D23*
X61650000Y30750000D03*
D23*
X61650000Y27750000D03*
D23*
X61650000Y31750000D03*
D15*
X57250000Y37175000D03*
D15*
X57250000Y35675000D03*
D11*
X48750000Y29250000D03*
D11*
X50250000Y29250000D03*
D10*
X14523334Y39750000D03*
D10*
X14523334Y38250000D03*
D18*
X58500000Y24000000D03*
D18*
X57000000Y24000000D03*
D25*
X65250000Y38250000D03*
D25*
X65250000Y39750000D03*
D11*
X53750000Y24000000D03*
D11*
X55250000Y24000000D03*
D24*
X40000000Y24600000D03*
D26*
X42350000Y29750000D03*
D22*
X40000000Y34900000D03*
D26*
X42350000Y30750000D03*
D26*
X42350000Y28750000D03*
D26*
X42350000Y31750000D03*
D26*
X42350000Y27750000D03*
D27*
X56350000Y28750000D03*
D28*
X51650000Y28750000D03*
D29*
X54250000Y25650000D03*
D27*
X56350000Y26250000D03*
D30*
X53250000Y30350000D03*
D27*
X56350000Y29750000D03*
D28*
X51650000Y27250000D03*
D29*
X53750000Y25650000D03*
D30*
X55250000Y30350000D03*
D27*
X56350000Y28250000D03*
D29*
X53250000Y25650000D03*
D27*
X56350000Y26750000D03*
D28*
X51650000Y28250000D03*
D29*
X52250000Y25650000D03*
D28*
X51650000Y26750000D03*
D30*
X52750000Y30350000D03*
D28*
X51650000Y27750000D03*
D31*
X54000000Y28000000D03*
D30*
X55750000Y30350000D03*
D29*
X55250000Y25650000D03*
D30*
X52250000Y30350000D03*
D30*
X54750000Y30350000D03*
D30*
X54250000Y30350000D03*
D29*
X54750000Y25650000D03*
D30*
X53750000Y30350000D03*
D28*
X51650000Y26250000D03*
D28*
X51650000Y29750000D03*
D27*
X56350000Y27750000D03*
D28*
X51650000Y29250000D03*
D27*
X56350000Y27250000D03*
D27*
X56350000Y29250000D03*
D29*
X55750000Y25650000D03*
D29*
X52750000Y25650000D03*
D15*
X11750000Y26000000D03*
D15*
X11750000Y24500000D03*
D14*
X60500000Y33500000D03*
D14*
X60500000Y35000000D03*
D10*
X46500000Y77000000D03*
D10*
X46500000Y75500000D03*
D11*
X50250000Y70000000D03*
D11*
X51750000Y70000000D03*
D11*
X70000000Y81250000D03*
D11*
X71500000Y81250000D03*
D12*
X56000000Y83100000D03*
D13*
X56000000Y81750000D03*
D13*
X55500000Y81750000D03*
D13*
X55000000Y81750000D03*
D12*
X55000000Y83100000D03*
D14*
X60000000Y76750000D03*
D14*
X60000000Y78250000D03*
D10*
X58500000Y77250000D03*
D10*
X58500000Y75750000D03*
D15*
X60250000Y85750000D03*
D15*
X60250000Y84250000D03*
D16*
X19705000Y75450000D03*
D17*
X20975000Y70550000D03*
D16*
X17165000Y75450000D03*
D17*
X22245000Y70550000D03*
D17*
X14625000Y70550000D03*
D17*
X15895000Y70550000D03*
D16*
X14625000Y75450000D03*
D17*
X18435000Y70550000D03*
D17*
X19705000Y70550000D03*
D16*
X15895000Y75450000D03*
D17*
X13355000Y70550000D03*
D16*
X18435000Y75450000D03*
D16*
X20975000Y75450000D03*
D16*
X22245000Y75450000D03*
D16*
X13355000Y75450000D03*
D17*
X17165000Y70550000D03*
D18*
X48500000Y70000000D03*
D18*
X47000000Y70000000D03*
D10*
X45000000Y77000000D03*
D10*
X45000000Y75500000D03*
D19*
X61800000Y83700000D03*
D19*
X63700000Y83700000D03*
D20*
X63700000Y86300000D03*
D20*
X61800000Y86300000D03*
D20*
X62750000Y86300000D03*
D21*
X41500000Y83000000D03*
D21*
X43000000Y83000000D03*
D22*
X64000000Y80900000D03*
D23*
X61650000Y75750000D03*
D24*
X64000000Y70600000D03*
D23*
X61650000Y74750000D03*
D23*
X61650000Y76750000D03*
D23*
X61650000Y73750000D03*
D23*
X61650000Y77750000D03*
D15*
X57250000Y83175000D03*
D15*
X57250000Y81675000D03*
D11*
X48750000Y75250000D03*
D11*
X50250000Y75250000D03*
D10*
X14523334Y85750000D03*
D10*
X14523334Y84250000D03*
D18*
X58500000Y70000000D03*
D18*
X57000000Y70000000D03*
D25*
X65250000Y84250000D03*
D25*
X65250000Y85750000D03*
D11*
X53750000Y70000000D03*
D11*
X55250000Y70000000D03*
D24*
X40000000Y70600000D03*
D26*
X42350000Y75750000D03*
D22*
X40000000Y80900000D03*
D26*
X42350000Y76750000D03*
D26*
X42350000Y74750000D03*
D26*
X42350000Y77750000D03*
D26*
X42350000Y73750000D03*
D27*
X56350000Y74750000D03*
D28*
X51650000Y74750000D03*
D29*
X54250000Y71650000D03*
D27*
X56350000Y72250000D03*
D30*
X53250000Y76350000D03*
D27*
X56350000Y75750000D03*
D28*
X51650000Y73250000D03*
D29*
X53750000Y71650000D03*
D30*
X55250000Y76350000D03*
D27*
X56350000Y74250000D03*
D29*
X53250000Y71650000D03*
D27*
X56350000Y72750000D03*
D28*
X51650000Y74250000D03*
D29*
X52250000Y71650000D03*
D28*
X51650000Y72750000D03*
D30*
X52750000Y76350000D03*
D28*
X51650000Y73750000D03*
D31*
X54000000Y74000000D03*
D30*
X55750000Y76350000D03*
D29*
X55250000Y71650000D03*
D30*
X52250000Y76350000D03*
D30*
X54750000Y76350000D03*
D30*
X54250000Y76350000D03*
D29*
X54750000Y71650000D03*
D30*
X53750000Y76350000D03*
D28*
X51650000Y72250000D03*
D28*
X51650000Y75750000D03*
D27*
X56350000Y73750000D03*
D28*
X51650000Y75250000D03*
D27*
X56350000Y73250000D03*
D27*
X56350000Y75250000D03*
D29*
X55750000Y71650000D03*
D29*
X52750000Y71650000D03*
D15*
X11750000Y72000000D03*
D15*
X11750000Y70500000D03*
D14*
X60500000Y79500000D03*
D14*
X60500000Y81000000D03*
D10*
X46500000Y8000000D03*
D10*
X46500000Y6500000D03*
D11*
X50250000Y1000000D03*
D11*
X51750000Y1000000D03*
D11*
X70000000Y12250000D03*
D11*
X71500000Y12250000D03*
D12*
X56000000Y14100000D03*
D13*
X56000000Y12750000D03*
D13*
X55500000Y12750000D03*
D13*
X55000000Y12750000D03*
D12*
X55000000Y14100000D03*
D14*
X60000000Y7750000D03*
D14*
X60000000Y9250000D03*
D10*
X58500000Y8250000D03*
D10*
X58500000Y6750000D03*
D15*
X60250000Y16750000D03*
D15*
X60250000Y15250000D03*
D16*
X19705000Y6450000D03*
D17*
X20975000Y1550000D03*
D16*
X17165000Y6450000D03*
D17*
X22245000Y1550000D03*
D17*
X14625000Y1550000D03*
D17*
X15895000Y1550000D03*
D16*
X14625000Y6450000D03*
D17*
X18435000Y1550000D03*
D17*
X19705000Y1550000D03*
D16*
X15895000Y6450000D03*
D17*
X13355000Y1550000D03*
D16*
X18435000Y6450000D03*
D16*
X20975000Y6450000D03*
D16*
X22245000Y6450000D03*
D16*
X13355000Y6450000D03*
D17*
X17165000Y1550000D03*
D18*
X48500000Y1000000D03*
D18*
X47000000Y1000000D03*
D10*
X45000000Y8000000D03*
D10*
X45000000Y6500000D03*
D19*
X61800000Y14700000D03*
D19*
X63700000Y14700000D03*
D20*
X63700000Y17300000D03*
D20*
X61800000Y17300000D03*
D20*
X62750000Y17300000D03*
D21*
X41500000Y14000000D03*
D21*
X43000000Y14000000D03*
D22*
X64000000Y11900000D03*
D23*
X61650000Y6750000D03*
D24*
X64000000Y1600000D03*
D23*
X61650000Y5750000D03*
D23*
X61650000Y7750000D03*
D23*
X61650000Y4750000D03*
D23*
X61650000Y8750000D03*
D15*
X57250000Y14175000D03*
D15*
X57250000Y12675000D03*
D11*
X48750000Y6250000D03*
D11*
X50250000Y6250000D03*
D10*
X14523334Y16750000D03*
D10*
X14523334Y15250000D03*
D18*
X58500000Y1000000D03*
D18*
X57000000Y1000000D03*
D25*
X65250000Y15250000D03*
D25*
X65250000Y16750000D03*
D11*
X53750000Y1000000D03*
D11*
X55250000Y1000000D03*
D24*
X40000000Y1600000D03*
D26*
X42350000Y6750000D03*
D22*
X40000000Y11900000D03*
D26*
X42350000Y7750000D03*
D26*
X42350000Y5750000D03*
D26*
X42350000Y8750000D03*
D26*
X42350000Y4750000D03*
D27*
X56350000Y5750000D03*
D28*
X51650000Y5750000D03*
D29*
X54250000Y2650000D03*
D27*
X56350000Y3250000D03*
D30*
X53250000Y7350000D03*
D27*
X56350000Y6750000D03*
D28*
X51650000Y4250000D03*
D29*
X53750000Y2650000D03*
D30*
X55250000Y7350000D03*
D27*
X56350000Y5250000D03*
D29*
X53250000Y2650000D03*
D27*
X56350000Y3750000D03*
D28*
X51650000Y5250000D03*
D29*
X52250000Y2650000D03*
D28*
X51650000Y3750000D03*
D30*
X52750000Y7350000D03*
D28*
X51650000Y4750000D03*
D31*
X54000000Y5000000D03*
D30*
X55750000Y7350000D03*
D29*
X55250000Y2650000D03*
D30*
X52250000Y7350000D03*
D30*
X54750000Y7350000D03*
D30*
X54250000Y7350000D03*
D29*
X54750000Y2650000D03*
D30*
X53750000Y7350000D03*
D28*
X51650000Y3250000D03*
D28*
X51650000Y6750000D03*
D27*
X56350000Y4750000D03*
D28*
X51650000Y6250000D03*
D27*
X56350000Y4250000D03*
D27*
X56350000Y6250000D03*
D29*
X55750000Y2650000D03*
D29*
X52750000Y2650000D03*
D15*
X11750000Y3000000D03*
D15*
X11750000Y1500000D03*
D14*
X60500000Y10500000D03*
D14*
X60500000Y12000000D03*
D10*
X46500000Y54000000D03*
D10*
X46500000Y52500000D03*
D11*
X50250000Y47000000D03*
D11*
X51750000Y47000000D03*
D11*
X70000000Y58250000D03*
D11*
X71500000Y58250000D03*
D12*
X56000000Y60100000D03*
D13*
X56000000Y58750000D03*
D13*
X55500000Y58750000D03*
D13*
X55000000Y58750000D03*
D12*
X55000000Y60100000D03*
D14*
X60000000Y53750000D03*
D14*
X60000000Y55250000D03*
D10*
X58500000Y54250000D03*
D10*
X58500000Y52750000D03*
D15*
X60250000Y62750000D03*
D15*
X60250000Y61250000D03*
D16*
X19705000Y52450000D03*
D17*
X20975000Y47550000D03*
D16*
X17165000Y52450000D03*
D17*
X22245000Y47550000D03*
D17*
X14625000Y47550000D03*
D17*
X15895000Y47550000D03*
D16*
X14625000Y52450000D03*
D17*
X18435000Y47550000D03*
D17*
X19705000Y47550000D03*
D16*
X15895000Y52450000D03*
D17*
X13355000Y47550000D03*
D16*
X18435000Y52450000D03*
D16*
X20975000Y52450000D03*
D16*
X22245000Y52450000D03*
D16*
X13355000Y52450000D03*
D17*
X17165000Y47550000D03*
D18*
X48500000Y47000000D03*
D18*
X47000000Y47000000D03*
D10*
X45000000Y54000000D03*
D10*
X45000000Y52500000D03*
D19*
X61800000Y60700000D03*
D19*
X63700000Y60700000D03*
D20*
X63700000Y63300000D03*
D20*
X61800000Y63300000D03*
D20*
X62750000Y63300000D03*
D21*
X41500000Y60000000D03*
D21*
X43000000Y60000000D03*
D22*
X64000000Y57900000D03*
D23*
X61650000Y52750000D03*
D24*
X64000000Y47600000D03*
D23*
X61650000Y51750000D03*
D23*
X61650000Y53750000D03*
D23*
X61650000Y50750000D03*
D23*
X61650000Y54750000D03*
D15*
X57250000Y60175000D03*
D15*
X57250000Y58675000D03*
D11*
X48750000Y52250000D03*
D11*
X50250000Y52250000D03*
D10*
X14523334Y62750000D03*
D10*
X14523334Y61250000D03*
D18*
X58500000Y47000000D03*
D18*
X57000000Y47000000D03*
D25*
X65250000Y61250000D03*
D25*
X65250000Y62750000D03*
D11*
X53750000Y47000000D03*
D11*
X55250000Y47000000D03*
D24*
X40000000Y47600000D03*
D26*
X42350000Y52750000D03*
D22*
X40000000Y57900000D03*
D26*
X42350000Y53750000D03*
D26*
X42350000Y51750000D03*
D26*
X42350000Y54750000D03*
D26*
X42350000Y50750000D03*
D27*
X56350000Y51750000D03*
D28*
X51650000Y51750000D03*
D29*
X54250000Y48650000D03*
D27*
X56350000Y49250000D03*
D30*
X53250000Y53350000D03*
D27*
X56350000Y52750000D03*
D28*
X51650000Y50250000D03*
D29*
X53750000Y48650000D03*
D30*
X55250000Y53350000D03*
D27*
X56350000Y51250000D03*
D29*
X53250000Y48650000D03*
D27*
X56350000Y49750000D03*
D28*
X51650000Y51250000D03*
D29*
X52250000Y48650000D03*
D28*
X51650000Y49750000D03*
D30*
X52750000Y53350000D03*
D28*
X51650000Y50750000D03*
D31*
X54000000Y51000000D03*
D30*
X55750000Y53350000D03*
D29*
X55250000Y48650000D03*
D30*
X52250000Y53350000D03*
D30*
X54750000Y53350000D03*
D30*
X54250000Y53350000D03*
D29*
X54750000Y48650000D03*
D30*
X53750000Y53350000D03*
D28*
X51650000Y49250000D03*
D28*
X51650000Y52750000D03*
D27*
X56350000Y50750000D03*
D28*
X51650000Y52250000D03*
D27*
X56350000Y50250000D03*
D27*
X56350000Y52250000D03*
D29*
X55750000Y48650000D03*
D29*
X52750000Y48650000D03*
D15*
X11750000Y49000000D03*
D15*
X11750000Y47500000D03*
D14*
X60500000Y56500000D03*
D14*
X60500000Y58000000D03*
M02*
